<svg xmlns="http://www.w3.org/2000/svg" xmlns:xlink="http://www.w3.org/1999/xlink" id="Layer_2" width="348.94" height="432.36" data-name="Layer 2" viewBox="0 0 348.94 432.36"><defs><linearGradient id="linear-gradient" x1="159.41" x2="159.02" y1="334.64" y2="367.4" gradientUnits="userSpaceOnUse"><stop offset="0" stop-color="#050a07"/><stop offset="1" stop-opacity="0"/></linearGradient><linearGradient id="linear-gradient-2" x1="121.71" x2="141.91" y1="251.99" y2="290" gradientUnits="userSpaceOnUse"><stop offset="0" stop-color="#bdafa4"/><stop offset=".42" stop-color="#baada2"/><stop offset=".64" stop-color="#b2a89d"/><stop offset=".79" stop-color="#a8a297"/><stop offset=".82" stop-color="#969187"/><stop offset=".88" stop-color="#68655f"/><stop offset=".97" stop-color="#242625"/></linearGradient><linearGradient id="linear-gradient-3" x1="201.04" x2="181.6" y1="256.91" y2="297.06" gradientUnits="userSpaceOnUse"><stop offset="0" stop-color="#bdafa4"/><stop offset=".36" stop-color="#baada2"/><stop offset=".54" stop-color="#b2a89d"/><stop offset=".67" stop-color="#a8a297"/><stop offset=".7" stop-color="#969187"/><stop offset=".76" stop-color="#68655f"/><stop offset=".83" stop-color="#242625"/></linearGradient><linearGradient id="linear-gradient-4" x1="189.33" x2="156.87" y1="136.26" y2="216.09" gradientUnits="userSpaceOnUse"><stop offset=".02" stop-color="#231f20"/><stop offset=".11" stop-color="#231f20" stop-opacity=".69"/><stop offset=".34" stop-color="#231f20" stop-opacity="0"/></linearGradient><linearGradient id="linear-gradient-5" x1="85.73" x2="89.44" y1="196.65" y2="203.15" gradientUnits="userSpaceOnUse"><stop offset=".02"/><stop offset=".39" stop-color="#231f20" stop-opacity="0"/></linearGradient><linearGradient xlink:href="#linear-gradient-5" id="linear-gradient-6" x1="97.03" x2="100.16" y1="200.19" y2="206.99" gradientTransform="matrix(-1 0 0 1 339.63 0)"/><linearGradient id="linear-gradient-7" x1="279.75" x2="306.32" y1="59.13" y2="79.1" gradientUnits="userSpaceOnUse"><stop offset=".28" stop-color="#120a0a"/><stop offset=".4" stop-color="#1d1c19"/><stop offset=".55" stop-color="#262b26"/><stop offset=".72" stop-color="#2c342e"/><stop offset=".98" stop-color="#2e3731"/></linearGradient><linearGradient xlink:href="#linear-gradient-7" id="linear-gradient-8" x1="80.48" x2="46.76" y1="53.11" y2="66.09"/><linearGradient id="linear-gradient-9" x1="51.19" x2="66.47" y1="14.79" y2="14.79" gradientUnits="userSpaceOnUse"><stop offset=".18" stop-color="#1a1819"/><stop offset=".43" stop-color="#21312f"/><stop offset=".66" stop-color="#26423d"/><stop offset=".84" stop-color="#284843"/></linearGradient><linearGradient id="linear-gradient-10" x1="70.71" x2="94.41" y1="29.32" y2="29.32" gradientUnits="userSpaceOnUse"><stop offset=".28" stop-color="#5e5d4b"/><stop offset=".52" stop-color="#62634b"/><stop offset=".98" stop-color="#65664c"/></linearGradient><linearGradient id="linear-gradient-11" x1="60.08" x2="74.59" y1="19.93" y2="19.93" gradientUnits="userSpaceOnUse"><stop offset=".1" stop-color="#1e2223"/><stop offset=".6" stop-color="#1e4c48"/><stop offset=".98" stop-color="#1e6861"/></linearGradient><linearGradient id="linear-gradient-12" x1="307.04" x2="286.15" y1="38.53" y2="33.49" gradientUnits="userSpaceOnUse"><stop offset=".36" stop-color="#1e2223"/><stop offset=".71" stop-color="#1e4c48"/><stop offset=".98" stop-color="#1e6861"/></linearGradient><linearGradient xlink:href="#linear-gradient-10" id="linear-gradient-13" x1="276.18" x2="281.98" y1="33.81" y2="51.08"/><linearGradient id="linear-gradient-14" x1="317.25" x2="293.47" y1="36.74" y2="22.04" gradientUnits="userSpaceOnUse"><stop offset=".28" stop-color="#1a1819"/><stop offset=".49" stop-color="#21312f"/><stop offset=".69" stop-color="#26423d"/><stop offset=".84" stop-color="#284843"/></linearGradient><linearGradient id="linear-gradient-15" x1="148.54" x2="227.15" y1="259.45" y2="-69.47" gradientUnits="userSpaceOnUse"><stop offset="0" stop-color="#050a07"/><stop offset=".11" stop-color="#030604" stop-opacity=".65"/><stop offset=".45" stop-opacity="0"/></linearGradient><style>.cls-1,.cls-3,.cls-4{fill:none}.cls-9{fill:#d8b690}.cls-10{fill:#c09d6c}.cls-11{fill:#1b090a}.cls-12{fill:#656952}.cls-13{fill:#9aa88e}.cls-15{fill:#a17a56}.cls-19{fill:#e6cca9}.cls-21{fill:#8d6943}.cls-24{fill:#eccdaa}.cls-33{fill:#f3f3f0}.cls-35{fill:#314431}.cls-37{fill:#c0c3b2}.cls-38{fill:#7e583c}.cls-3,.cls-4{stroke-miterlimit:10}.cls-40{fill:#676b54}.cls-43{fill:#e0e1da}.cls-44{fill:#242625}.cls-3{stroke:#614d36}.cls-46{fill:#0f1907}.cls-48{fill:#614d36}.cls-49{fill:#c40500}.cls-54{fill:#2b2b2a}.cls-57{fill:#15190f}.cls-59{fill:#8c6341}.cls-65{fill:#c2956d}.cls-71{fill:#928877}.cls-72{fill:#5e4434}.cls-73{fill:#c5c6bf}.cls-74{fill:#e3dcd4}.cls-80{fill:#1a1414}.cls-81{fill:#34352d}.cls-82{fill:#959887}.cls-86{fill:#446454}.cls-90{fill:#fff}.cls-91{fill:#875c3b}.cls-93{fill:#1e4c42}.cls-97{fill:#51bca4}.cls-100{fill:#e50000}.cls-102{fill:#bdafa4}.cls-103{fill:#cfcdbd}.cls-105{fill:#7e8b74}.cls-116{fill:#be8e5e}.cls-117{fill:#473323}.cls-118{fill:#1d2a14}.cls-122{fill:#7dad98}.cls-124{fill:#9f7847}.cls-4{stroke:#241f20;stroke-width:.75px}.cls-127{fill:#b39f89}.cls-128{fill:#766041}.cls-132{fill:#92694a}.cls-134{fill:#535648}.cls-136{fill:#33251b}.cls-138{fill:#241f20}.cls-140{fill:#21463e}.cls-142{fill:#c6b59d}.cls-143{fill:#2f1f20}.cls-145{fill:#393333}.cls-146{fill:#dedace}.cls-148{fill:#6d4f38}.cls-151{fill:#cdd0c3}.cls-153{fill:#1d5248}.cls-155{fill:#f9f5ec}.cls-160{fill:#767467}.cls-162{fill:#d1b594}.cls-166{fill:#63665d}.cls-171{fill:#936f4b}.cls-173{fill:#b3835a}</style></defs><g id="MATOAKA-dynamic"><g id="neck"><g id="neck-2" data-name="neck"><path d="M220.78 303.06c-2.55 3.12-5.37 6.38-8.53 9.84-4.9 5.36-9.03 9.65-12.57 13.08-3.18 3.09-5.87 5.49-8.17 7.35l-16.28 16.56 29.87 7.81 15.69-54.65Z" style="fill:#1a1a1c"/><path d="M119.9 323.56c-2.25-2.24-4.56-4.6-6.84-7.04-4.94-5.27-9.76-10.87-13.64-16.12h-.6l5.9 45.05 15.17-21.8v-.09Z" style="fill:#91a98f"/><path d="m104.72 345.45 29.97 50.13-5.69-36.96-24.28-13.17z" style="fill:#76b19f"/><path d="m119.89 323.65-15.17 21.8L129 358.62l-9.11-34.97z" style="fill:#448b7d"/><path d="m134.69 395.58 23.21 13.35-3.19-23.8L129 358.62l5.69 36.96z" style="fill:#b0b4a2"/><path d="m154.71 385.13 3.19 23.8 27.2-29.52-30.39 5.72z" style="fill:#292d1e"/><path d="m154.71 385.13 30.39-5.72-9.87-29.51-20.52 35.23z" style="fill:#1b796e"/><path d="m175.23 349.9 9.87 29.51 20-21.7-29.87-7.81z" style="fill:#224841"/><path d="M138.37 339.54c-.74-.36-1.42-.76-2.04-1.21-1.98-1.45-4.97-3.96-8.47-7.16-2.45-2.24-5.16-4.82-7.96-7.6v.09l9.1 34.96 31.34-16.3c-7.74.38-16.42-.03-21.97-2.77Z" style="fill:#151014"/><path d="m129 358.62 25.71 26.51 5.63-42.82L129 358.62z" style="fill:#243a35"/><path d="M178.51 340.12c-.89.13-1.72.21-2.58.38-2.33.47-8.2 1.4-14.88 1.77-.24.01-.47.03-.71.04l-5.63 42.82 20.52-35.24 16.28-16.56c-6.8 5.52-10.21 6.38-13.01 6.79Z" style="fill:#274942"/></g><path id="shadow" d="M220.78 303.06c-2.55 3.12-5.37 6.38-8.53 9.84-4.9 5.36-9.03 9.65-12.57 13.08-3.18 3.09-5.87 5.49-8.17 7.35-6.8 5.52-10.21 6.38-13.01 6.79-.89.13-1.72.21-2.58.38-2.33.47-8.2 1.4-14.88 1.77-.24.01-.47.03-.71.04-7.74.38-16.42-.03-21.97-2.77-.74-.36-1.42-.76-2.04-1.21-1.98-1.45-4.97-3.96-8.47-7.16-2.45-2.24-5.16-4.82-7.96-7.6-2.25-2.24-4.56-4.6-6.84-7.04-4.94-5.27-9.76-10.87-13.64-16.12h-.6l5.9 45.05 29.97 50.13 23.21 13.35 27.2-29.51 20-21.7 15.69-54.65Z" style="fill:url(#linear-gradient)"/></g><path id="hair" d="M330.1 398.3c1.98-.29 9.96-17.55-1.93-27.55s-43.78-3.17-52.23 0c-4.55 1.71-19.75 3.98-38.16 5.79 8.53-5.63 10.34-14.22 9.16-21.82-2.01-12.93 9.2-35.17 15.59-54.22 16.03-23.01 11.14-49.22 9.2-55.23.11-1.81.56-4.58.87-8.5-2.62-.08-5.19-.49-7.67-1.32l2.13-5.78c2.76-9.72 4.9-29.78-17.11-44.89 0 0 0-.01-.01-.02 0 0 0 .01.01.02 0 0 .12 7.45 0 17.56-.18 14.86-.89 35.49-3.26 46.73-1.04 4.91-2.09 9.63-3.53 14.44-2.62 8.74-6.54 17.75-14.16 28.74-4.3 6.19-8.6 10.95-8.22 10.87s-15.69 54.65-15.69 54.65l-19.98 21.68c-32.47-.56-51.89-16.74-71.9-36.42-10.94-10.76-17.95-34.35-22.95-60.98-2.47-9.15-6.84-23.68-9.25-40.32s0-.01 0-.01c-2.03-14.02-2.67-29.53.41-44.6 0-.03.01-.05.02-.08 1.55-7.55 3.9-14.96 6.64-21.94l.2-.49c1.75-4.41 3.65-8.64 5.6-12.64 9.38-19.22 19.88-32.79 19.88-32.79s-16.21 3.58-32.31 15.46a84.225 84.225 0 0 0-10.44 9.09c-4.18 4.31-8.09 9.32-11.38 15.12-5.96 10.5-9.92 23.6-9.89 39.88-8.19 20.24-9.28 33.32-7.49 54.76 1.78 21.43.15 35.88-15.48 79.03s-8.62 54.11 37.88 69.06c46.5 14.95 114.46 14.96 156.14 5.83 41.68-9.13 106.37 2.04 106.37 2.04l2.95 11.95s6.6 5.8 17.14-11.43c8.72-20.52-19.12-21.4-17.14-21.69Z"/><g id="face"><g id="lips"><path d="M142.53 297.38c.72-1.04 2.03-1.48 3.27-1.75.28-.06.56-.09.84-.14-2.61.02-5.22-.17-7.8-.56-.84-.13-1.71-.28-2.53-.08-.83.2-1.62.84-1.69 1.69-.03.3.04.6.13.88 2.27 1.55 4.78 3.14 7.4 4.61-.04-.25-.09-.51-.12-.76-.19-1.33-.27-2.79.5-3.89Z" style="fill:#d00"/><path d="M146.64 295.49c1.99-.01 3.98-.13 5.96-.38-2-.05-3.99.04-5.96.38Z" class="cls-49"/><path d="M190.77 295.18c-1.27-.93-2.93-1.08-4.51-1.19l-5.04-.36c-2.14-.15-4.28-.31-6.42-.38-5.44-.19-10.9.13-16.29.95-1.96.3-3.91.66-5.88.91h-.04c3.38.09 6.78.55 10.16.74 2.7.15 5.41.12 8.12.08 2.76-.05 5.61-.1 8.16.95 1.25.52 2.38 1.28 3.5 2.04.71.48 1.42.97 2.08 1.52 2.48-1.5 4.79-3.07 6.85-4.53-.2-.27-.43-.53-.7-.72Z" class="cls-100"/><path d="M185.57 291.89c-18.34-2.38-44.42.04-46.15.29-1.49.22-11.95-2.24-14.83-2.93-.28-.04-.53-.09-.74-.18 0 0 4.52 4 10.9 8.36-.09-.29-.16-.58-.13-.88.07-.85.86-1.49 1.69-1.69.83-.2 1.69-.05 2.53.08 2.58.39 5.19.57 7.8.56 1.97-.35 3.96-.44 5.96-.38h.04c1.97-.25 3.92-.61 5.88-.91 5.38-.82 10.84-1.14 16.29-.95 2.14.08 4.28.23 6.42.38l5.04.36c1.57.11 3.24.26 4.51 1.19.27.2.5.45.7.72 5.2-3.72 8.71-6.82 8.71-6.82-7.08 2.95-14.61 2.82-14.61 2.82Z" class="cls-49"/><path d="M178.02 299.76c-.29-.35-.74-.52-1.18-.64-1.43-.39-2.94-.41-4.42-.43-4.89-.07-9.78-.15-14.66-.22-2.98-.05-5.98-.09-8.91.46-.6.11-1.22.26-1.69.64s-.77 1.06-.53 1.62c.19.44.65.7 1.07.93 2.75 1.46 5.54 2.94 8.58 3.65 2.84.67 5.79.63 8.7.45 1.71-.11 3.43-.28 5.07-.76 1.17-.35 2.28-.85 3.4-1.35l4.23-1.91c.15-.16.29-.34.4-.53.33-.58.39-1.37-.04-1.89Z" style="fill:#db4a00"/><path d="M182.54 298.92c-1.12-.76-2.25-1.52-3.5-2.04-2.55-1.05-5.4-1-8.16-.95-2.71.05-5.42.08-8.12-.08-3.38-.19-6.78-.65-10.16-.74-1.98.25-3.97.37-5.96.38-.28.05-.56.08-.84.14-1.24.27-2.54.71-3.27 1.75-.77 1.1-.68 2.57-.5 3.89l.12.76c6.39 3.58 13.48 6.46 19.56 6.24h.59c6.97.24 15.26-3.56 22.31-7.85-.66-.55-1.37-1.04-2.08-1.52Zm-9.1 5.16c-1.11.5-2.23 1-3.4 1.35-1.64.49-3.36.65-5.07.76-2.91.19-5.86.22-8.7-.45-3.03-.71-5.83-2.19-8.58-3.65-.43-.23-.88-.48-1.07-.93-.24-.56.05-1.24.53-1.62s1.09-.53 1.69-.64c2.93-.54 5.93-.5 8.91-.46 4.89.07 9.78.15 14.66.22 1.49.02 2.99.05 4.42.43.44.12.89.29 1.18.64.42.52.36 1.31.04 1.89-.11.19-.25.37-.4.53l-4.23 1.91Z" style="fill:#ce2f00"/><path d="M143.35 286.39c1.83-.65 3.57-1.57 5.47-1.97 6.75-1.43 13.73 4 20.34 2.03 1.07-.32 2.08-.83 3.16-1.13 4.64-1.31 9.55 1.32 14.34.73.05 0 .1-.02.15-.02-7.81-3.09-15.91-7.23-15.91-7.23l-8.58 3.41h-.59l-8.58-3.41s-10.53 5.38-19.15 8.45c3.13.48 6.38.21 9.37-.85Z" class="cls-100"/><path d="M186.8 286.02s-.1.02-.15.02c-4.78.59-9.7-2.03-14.34-.73-1.08.3-2.09.81-3.16 1.13-6.61 1.97-13.59-3.46-20.34-2.03-1.9.4-3.64 1.33-5.47 1.97-2.99 1.06-6.24 1.33-9.37.85-3.86 1.37-7.34 2.28-9.32 2.03 3.57.79 18.14 3.56 28.2-1.51 5.96.64 9.63 3.63 21.43 0 0 0 19.53 3.81 25.88 1.32-2.13.89-7.68-.8-13.38-3.06Z" class="cls-49"/><path d="M167.14 302.54c0 .69 1.11 1.89 2.28 1.89s1.91-.81 1.91-1.49c0-.69-.95-.51-2.13-.51s-2.06-.58-2.06.11ZM151.25 282.2l-3.27 3.04.54 1.54 2.73-1.17v-3.41zM155.92 292.19l-2.79 8.24 1.39 1.94 1.82-5.56-.42-4.62zM158.46 292.2l5.49 10 1.25-4.77-6.74-5.23z" class="cls-151"/></g><g id="face-2" data-name="face"><path d="m157.93 248.25 3.47 17.62 6.48-16.3-9.95-1.32z" style="fill:#e3e1da"/><path d="m161.4 265.87-23.11-6.13 14.84 19.05 8.27-12.92z" class="cls-73"/><path d="m184.97 260.15-23.57 5.72 9.49 12.92 14.08-18.64z" class="cls-73"/><path d="M81 241.68c2.77 19.11 8.12 35.44 10.21 44.03.08.35.2.71.32 1.08l2.32-29.45L81 241.68Z" class="cls-44"/><path d="m191.52 181.81 13.5-5.2-21.31 1.03 7.81 4.17z" class="cls-4"/><path d="m191.52 181.81 6.87 12.68 6.63-17.88-13.5 5.2z" class="cls-38"/><path d="M198.39 194.49c3.27-1.77 7.52-3.15 13-3.56 0 0 2.56-.22 7.04.58 3.64.65 8.53 1.98 14.39 4.66l-27.79-19.56-6.64 17.88Z" class="cls-10"/><path d="m205.02 176.61 27.79 19.56-1.27-18.53-26.52-1.03z" class="cls-21"/><path d="m232.81 196.17 17.14 6.11-18.41-24.64 1.27 18.53z" class="cls-134"/><path d="m249.95 184.72-18.41-7.08 18.41 24.65c.12-10.12 0-17.56 0-17.56Z" class="cls-35"/><path d="m81.42 196.99 14.06-4.92-7.42-17.02c-2.74 6.98-5.09 14.38-6.64 21.94Z" class="cls-134"/><path d="m88.06 175.06 7.42 17.02 25.75-15.47-33.17-1.55z" class="cls-21"/><path d="M88.06 175.06c.06-.16.13-.33.2-.49l-.81.46 32.33 1.52 23.61 1.09-22.15-1.02-33.17-1.56Z" class="cls-80"/><path d="m121.23 176.61 22.15 1.03-25.42-11.08 3.27 10.05z" class="cls-143"/><path d="m121.23 176.61-18.89-10.06-14.08 8.01c-.06.16-.13.33-.2.49l33.17 1.56Z" class="cls-80"/><path d="M117.96 166.56h-15.62l18.89 10.05-3.27-10.05z" class="cls-145"/><path d="m145.73 200.42 10.61 1.57 1.48-14.27-14.44-10.08-8.35 5.81 10.7 16.97z" class="cls-15"/><path d="m143.38 177.64-22.15-1.03 13.8 6.84 8.35-5.81z" class="cls-11"/><path d="m140.52 205.24 11.49 2.18 4.33-5.43-10.61-1.57-5.21 4.82z" class="cls-59"/><path d="m135.03 183.45-6.36 9.6c9.16 4.92 11.86 12.2 11.86 12.2l5.2-4.82-10.7-16.98Z" class="cls-72"/><path d="m135.03 183.45-13.8-6.84 7.44 16.44 6.36-9.6z" class="cls-38"/><path d="m88.25 174.57 14.08-8.01-8.49-4.63c-1.95 3.99-3.85 8.23-5.6 12.64Z" style="fill:#cabba1"/><path d="m117.96 166.56 25.42 11.08 8.63-20.33-34.05 9.25z" class="cls-40"/><path d="m93.85 161.93 8.49 4.63h15.62l-1.5-16.25-22.61 11.62z" class="cls-128"/><path d="m93.85 161.93 22.61-11.62-2.72-21.17s-10.5 13.57-19.88 32.79Z" class="cls-173"/><path d="m116.46 150.31 1.5 16.25 34.05-9.25-35.55-7z" class="cls-65"/><path d="m80.99 241.67.01.01v-.01h-.01z" class="cls-1"/><path d="m169.24 189.3.84-8.14-7.82-6.13-6.34 7.08 1.9 5.61 7.38 6.76 4.04-5.18z" class="cls-122"/><path d="M81.42 196.99s-.01.05-.02.08c-3.07 15.06-2.44 30.58-.41 44.6s4.94-21.38 4.94-21.38L81.41 197Z" style="fill:#254d45"/><path d="m103.56 225.91-17.61-5.63L81 241.66l22.56-15.75z" class="cls-74"/><path d="m81.42 196.99 4.53 23.29 17.61 5.63-22.14-28.92z" class="cls-71"/><path d="M111.12 187.49c1.94-.09 3.89-.11 5.82.15 1.09.15 2.17.38 3.25.62 1.21.27 2.43.54 3.53 1.1.74.38 1.41.89 2.07 1.4.94.72 1.89 1.44 2.83 2.17l-7.38-16.32-24.23 14.55c3.17-.99 6.19-2.5 9.44-3.17 1.54-.31 3.11-.43 4.68-.5Z" class="cls-10"/><path d="m81.42 196.99 2.43 3.18 11.63-8.09-14.06 4.91z" class="cls-81"/><path d="M157.93 209.36h.02l.04.01c-.02 0-.04 0-.06-.01ZM169.5 209.37h-.01Z" class="cls-4"/><path d="m191.52 181.81 13.5-5.2-21.31 1.03 7.81 4.17z" class="cls-11"/><path d="m200.85 169.29 4.17 7.32 22.16-8.62-26.33 1.3z" class="cls-145"/><path d="m183.71 177.64 21.31-1.03-4.17-7.32-17.14 8.35zM227.18 167.99l4.36 9.65 18.41 7.08-22.77-16.73z" class="cls-143"/><path d="m205.02 176.61 26.52 1.03-4.36-9.65-22.16 8.62z" class="cls-80"/><path d="m191.52 181.81-6.78 20.18 3.24 4.26c.15-.35.37-.81.63-1.32 1.43-2.8 4.52-7.59 9.78-10.44l-6.87-12.68Z" class="cls-59"/><path d="M169.48 209.37c-1.48.36-3.31.75-5.53 1.14l-.95 30.33 4.88 8.73 8.11-12.18-6.49-28.02Z" style="fill:#bc9579"/><path d="M157.99 209.37h-.04l-7.75 29.29 7.74 9.59 5.07-7.41.95-30.33c-2.4-.37-4.36-.76-5.97-1.14Z" style="fill:#a4815b"/><path d="m150.2 238.66 7.75-29.29h-.02c-4.31-1.03-5.91-1.95-5.91-1.95l-9.99 23.43 8.17 7.81ZM169.49 209.37l6.49 28.02 6.36-7.08-7.08-22.82s-1.42.82-5.76 1.88Z" class="cls-24"/><path d="m171.81 203.52-7.86 3.97-7.61-5.5-4.33 5.43s1.6.91 5.91 1.94c.02 0 .04 0 .06.01 1.6.38 3.56.77 5.97 1.14 2.23-.39 4.05-.78 5.53-1.14h.01c4.35-1.06 5.76-1.88 5.76-1.88l2.54-2.24-5.99-1.73Z" style="fill:#d6bc99"/><path d="m165.2 194.48-7.38-6.76-1.48 14.27 7.61 5.5 1.25-13.01z" style="fill:#6b4c30"/><path d="m171.81 203.52-2.57-14.22-4.04 5.18-1.25 13.01 7.86-3.97z" style="fill:#5a4128"/><path d="m164.91 146.68-2.65 28.35 15.54-22.9-12.89-5.45z" style="fill:#483127"/><path d="m177.8 152.13-15.54 22.9 21.45 2.61 1.03-12.43-6.94-13.08z" class="cls-118"/><path d="m162.26 175.03 7.82 6.13 13.63-3.52-21.45-2.61z" style="fill:#5c492b"/><path d="m183.71 177.64-13.63 3.52-.84 8.14 14.47-11.66z" style="fill:#817666"/><path d="m152.01 157.31 10.25 17.72 2.65-28.35-12.9 10.63z" class="cls-35"/><path d="m143.38 177.64 18.88-2.61-10.25-17.72-8.63 20.33z" style="fill:#d6c4ac"/><path d="M164.35 130.66c-1.24-.3-2.47-.58-3.67-.84l-8.67 27.49 12.9-10.63-.56-16.02Z" class="cls-105"/><path d="m162.26 175.03-18.88 2.61 12.54 4.47 6.34-7.08z" style="fill:#8a7e6d"/><path d="m143.38 177.64 14.44 10.08-1.9-5.61-12.54-4.47z" style="fill:#775434"/><path d="M218.3 152.93c-7.35-4.28-16.73-8.54-30.32-14.48l13.79 13.68 16.53.8Z" class="cls-171"/><path d="m184.74 165.21-1.03 12.43 17.14-8.35.92-17.16-17.03 13.08z" class="cls-40"/><path d="m177.8 152.13 6.94 13.08 17.03-13.08H177.8zM201.77 152.13l25.41 15.86-8.88-15.06-16.53-.8z" class="cls-128"/><path d="m200.85 169.29 26.33-1.3-25.41-15.86-.92 17.16z" class="cls-65"/><path d="m218.3 152.93 8.88 15.06 22.77 16.73c-12.11-16.74-18.76-24.29-31.65-31.79Z" class="cls-140"/><path d="m187.98 138.44-10.18 13.69h23.97l-13.79-13.69z" class="cls-173"/><path d="m171.81 203.52 5.99 1.72 6.94-3.25-6.31-4.2-6.62 5.73z" class="cls-59"/><path d="m183.71 177.64-14.47 11.66 2.57 14.22 6.62-5.73 5.28-20.15z" class="cls-15"/><path d="m183.71 177.64-5.28 20.15 6.31 4.2 6.78-20.18-7.81-4.17z" class="cls-72"/><path d="M232.86 196.19c-.14.38-.41.72-.73.97-.59.45-1.33.67-2.01.98-1.1.51-2.06 1.27-3.1 1.89-1.1.65-2.3 1.14-3.51 1.57-2.57.89-5.22 1.48-7.91 1.9l6.19 4.37 13.76-10.72-2.68-.96Z" class="cls-9"/><path d="m215.1 203.58-8.77 6.93 15.46-2.64-6.19-4.37c-.17.03-.33.06-.5.08Z" class="cls-19"/><path d="M215.1 203.58c-1.84.27-3.68.47-5.53.64-2.62.23-5.25.4-7.86.11-1.38-.15-2.74-.44-4.12-.57-.54-.05-1.08-.08-1.62-.09-2.36.41-4.75 1.02-6.68 2.44-.15.11-.27.24-.41.35l17.45 4.05 8.77-6.93Z" class="cls-124"/><path d="m119.32 202.4-10.33 6.08 14.19.89-.84-7.26c-1.01.11-2.01.21-3.02.29Z" class="cls-19"/><path d="M137.58 204.4c-2.82-2.15-6.55-2.75-10.1-2.68-1.72.03-3.43.21-5.15.39l.84 7.26 14.98-3.56c.1-.15.15-.34.12-.51-.07-.38-.39-.66-.69-.89Z" class="cls-124"/><path d="M116.88 202.54c-4.22.1-8.47-.64-12.4-2.21-.96-.38-1.91-.82-2.76-1.42-1.04-.74-1.89-1.71-2.74-2.68-.08-.06-.16-.12-.23-.18L109 208.49l10.33-6.08c-.81.07-1.63.12-2.45.14ZM119.32 202.4l-10.33 6.08 10.33-6.08z" class="cls-9"/><path d="m249.95 202.28-10.08 27.19 3.29 33.98c1.44-4.8 2.49-9.52 3.53-14.44 2.38-11.24 3.08-31.87 3.26-46.73Z" class="cls-153"/><path d="m249.95 202.28-30.99 24.25 20.9 2.94 10.09-27.19z" class="cls-103"/><path d="M96.14 192.87c-.23-.27-.45-.53-.66-.8l-11.63 8.09 25.14 8.31-12.85-15.61Z" class="cls-48"/><path d="m83.85 200.17 19.71 25.74 5.43-17.43-25.14-8.31z" class="cls-142"/><path d="m218.96 226.53 8.41 28.21 12.49-25.27-20.9-2.94z" class="cls-155"/><path d="m239.86 229.47-12.49 25.27 15.79 8.71-3.3-33.98z" style="fill:#488978"/><path d="m218.96 226.53-36.62 3.78 45.03 24.43-8.41-28.21z" class="cls-102"/><path d="m215.5 267.45 13.5 24.74c7.62-10.99 11.54-20 14.16-28.74l-27.66 4Z" style="fill:#606359"/><path d="m182.34 230.31 33.16 37.14 11.87-12.71-45.03-24.43z" class="cls-74"/><path d="m227.37 254.74-11.87 12.71 27.66-4-15.79-8.71z" style="fill:#99b6a2"/><path d="m93.85 257.34-2.32 29.44 18.75-28.72-16.43-.72z" style="fill:#4d8c7c"/><path d="m110.28 258.06 31.74-27.21-38.46-4.94 6.72 32.15z" class="cls-102"/><path d="m103.56 225.91 38.46 4.94 9.99-23.43-48.45 18.49z" class="cls-148"/><path d="m206.32 210.51 12.64 16.02 2.82-18.66-15.46 2.64z" class="cls-71"/><path d="m184.74 201.99-6.94 3.25-2.54 2.25 12.72-1.24-3.24-4.26z" class="cls-44"/><path d="m206.32 210.51-18.34-4.26 6.55 9.63 11.79-5.37z" class="cls-19"/><path d="m187.98 206.25-12.72 1.24 19.27 8.39-6.55-9.63z" class="cls-128"/><path d="m206.32 210.51-11.79 5.37 24.43 10.65-12.64-16.02z" class="cls-142"/><path d="m175.26 207.49 7.08 22.82 12.19-14.43-19.27-8.39z" class="cls-44"/><path d="m194.53 215.88-12.19 14.43 36.62-3.78-24.43-10.65z" class="cls-148"/><path d="m140.52 205.24-17.34 4.13 28.83-1.95-11.49-2.18z" class="cls-44"/><path d="m108.99 208.48-5.43 17.43 19.62-16.54-14.19-.89z" style="fill:#a17945"/><path d="m123.18 209.37-19.62 16.54 48.45-18.49-28.83 1.95z" class="cls-162"/><path d="m103.56 225.91-9.71 31.43 16.43.72-6.72-32.15z" class="cls-155"/><path d="M81 241.67v.01l12.85 15.66 9.71-31.43L81 241.67z" class="cls-103"/><path d="m249.95 202.28-14.41-5.13 9.37 9.08 5.04-3.95z" class="cls-81"/><path d="m218.96 226.53 25.95-20.3-23.13 1.64-2.82 18.66z" class="cls-74"/><path d="m235.54 197.15-13.76 10.72 23.13-1.64-9.37-9.08z" class="cls-48"/><path d="M182.34 135.99c-6.45-2.25-12.44-3.98-18-5.33l.56 16.02 23.07-8.24-5.64-2.46Z" class="cls-140"/><path d="m164.91 146.68 12.89 5.45 10.18-13.69-23.07 8.24z" style="fill:#593e2a"/><path d="m130.67 141.6 12.76-14.49c-19.66-1.8-29.69 2.03-29.69 2.03l16.94 12.46Z" style="fill:#837661"/><path d="m116.46 150.31 35.55 7-21.34-15.71-14.21 8.71z" class="cls-171"/><path d="m113.73 129.14 2.73 21.17 14.21-8.71-16.94-12.46z" class="cls-128"/><path d="m130.67 141.6 21.34 15.71-8.58-30.2-12.76 14.49z" style="fill:#808d75"/><path d="m143.43 127.11 8.58 30.19 8.67-27.49c-6.4-1.4-12.15-2.24-17.25-2.71Z" style="fill:#4d563f"/><path d="M123.85 289.07c.23.1.51.15.82.19l-.82-.19Z" class="cls-1"/><path d="M123.85 289.07c.21.09.47.14.74.18-.47-.11-.74-.18-.74-.18Z" class="cls-1"/><path d="m170.89 278.79-8.58 3.41h-.59l-8.58-3.41s-22.08 11.28-28.47 10.48c3.57.79 18.14 3.56 28.2-1.51 5.96.64 9.63 3.63 21.43 0 0 0 19.53 3.81 25.88 1.32-5.04 2.11-29.29-10.28-29.29-10.28Z" class="cls-3"/><path d="M185.57 291.89c-18.34-2.38-44.42.04-46.15.29-1.49.22-11.95-2.24-14.83-2.93-.28-.04-.53-.09-.74-.18 0 0 22.27 19.75 37.87 19.21h.59c15.6.54 37.87-19.21 37.87-19.21-7.08 2.95-14.61 2.82-14.61 2.82Z" class="cls-3"/><path d="m170.89 278.79-8.58 3.41h-.59l-8.58-3.41s-22.08 11.28-28.47 10.48c-.03 0-.05 0-.07-.01-.28-.04-.53-.09-.74-.18 0 0 22.27 19.75 37.87 19.21h.59c15.6.54 37.87-19.21 37.87-19.21-5.04 2.11-29.29-10.28-29.29-10.28Z" class="cls-1"/><path d="m138.29 259.74 23.11 6.13-14.98-12.12-8.13 5.99zM161.4 265.87l23.57-5.72-10.63-5.41-12.94 11.13z" class="cls-138"/><path d="m161.71 282.2-8.58-3.41s-22.08 11.28-28.47 10.48c-.03 0-.05 0-.07-.01-.28-.04-.53-.09-.74-.18 0 0 22.27 19.75 37.87 19.21h.59c15.6.54 37.87-19.21 37.87-19.21-5.04 2.11-29.29-10.28-29.29-10.28l-8.58 3.41h-.59Z" class="cls-1"/><path d="M124.66 289.27s-.05 0-.07-.01c-.28-.04-.53-.09-.74-.18 0 0 22.27 19.75 37.87 19.21h.59c15.6.54 37.87-19.21 37.87-19.21-5.04 2.11-29.29-10.28-29.29-10.28l-9.49-12.92-8.26 12.92s-22.08 11.28-28.47 10.48Z" class="cls-1"/><path d="m162.31 282.2 8.58-3.41-9.49-12.92-8.27 12.92 8.58 3.41h.6z" class="cls-127"/><path d="M139.42 292.19c1.73-.25 27.8-2.67 46.15-.29 0 0 7.53.13 14.61-2.82-6.36 2.5-25.88-1.32-25.88-1.32-11.81 3.63-15.47.64-21.43 0-10.06 5.07-24.63 2.3-28.2 1.51-.03 0-.05 0-.07-.01 2.88.69 13.35 3.15 14.83 2.93Z" style="fill:#0c0b0b"/><path d="m163 240.84-5.07 7.41 9.95 1.32-4.88-8.73z" class="cls-160"/><path d="m167.88 249.57-6.48 16.3 12.94-11.13-6.46-5.17z" class="cls-24"/><path d="m146.42 253.75 14.98 12.12-3.47-17.62-11.51 5.5z" style="fill:#f0d7b8"/><path d="m182.34 230.31-6.35 7.08 12.88 12.18-6.53-19.26z" class="cls-127"/><path d="m175.99 237.39-8.11 12.18 6.46 5.17 14.53-5.17-12.88-12.18z" class="cls-91"/><path d="m174.34 254.74 10.63 5.41 3.9-10.58-14.53 5.17z" class="cls-33"/><path d="m142.02 230.85-4.86 15.61 13.04-7.8-8.18-7.81z" class="cls-127"/><path d="m138.29 259.74 8.13-5.99-9.26-7.29 1.13 13.28z" class="cls-33"/><path d="m150.2 238.66-13.04 7.8 9.26 7.29 11.51-5.5-7.73-9.59z" class="cls-91"/><path d="m138.29 259.74-1.13-13.28-10.73 19.41 11.86-6.13z" class="cls-103"/><path d="m137.16 246.46 4.86-15.61-31.74 27.21 16.15 7.81 10.73-19.41z" class="cls-155"/><path d="m138.29 259.74-11.86 6.13 26.7 12.92-14.84-19.05zM170.89 278.79l26.26-6.67-12.18-11.97-14.08 18.64z" class="cls-160"/><path d="m184.97 260.15 12.18 11.97-8.28-22.55-3.9 10.58z" class="cls-103"/><path d="m182.34 230.31 6.53 19.26 8.28 22.55 18.35-4.67-33.16-37.14z" class="cls-155"/><path d="M138.29 339.59c5.55 2.75 14.24 3.15 21.97 2.77.24-.01.47-.03.71-.04l3.99-14.83-26.67 12.1Z" class="cls-74"/><path d="m164.96 327.49-3.99 14.83c6.68-.37 12.55-1.3 14.88-1.77.86-.17 1.69-.25 2.58-.38l-13.47-12.68Z" class="cls-118"/><path d="m159.83 314-21.54 25.59 26.67-12.1-5.13-13.49z" class="cls-155"/><path d="M123.85 289.07s.23.21.66.57l.16-.38s-.05 0-.07-.01c-.28-.04-.53-.09-.74-.18Z" class="cls-1"/><path d="m112.98 316.57 11.52-26.93-32.97-2.86c2.47 7.83 11.76 19.43 21.46 29.79Z" style="fill:#928f7b"/><path d="m124.5 289.64-.2-.44c-.17-.03-.32-.07-.46-.13 0 0 .23.21.66.57Z" class="cls-1"/><path d="m91.53 286.78 32.97 2.86c-.42-.36-.66-.57-.66-.57.13.06.29.09.46.13l-14.02-31.14-18.76 28.72Z" class="cls-155"/><path d="m110.28 258.06 14.02 31.14c.09.02.18.04.28.05.03 0 .05 0 .07.01 6.39.81 28.47-10.48 28.47-10.48l-42.85-20.73Z" style="fill:url(#linear-gradient-2)"/><path d="M138.29 339.59 159.83 314l-18.04 9.69-3.5 15.9z" class="cls-74"/><path d="M127.79 331.21c3.5 3.2 6.48 5.71 8.47 7.16.62.45 1.3.85 2.04 1.21l3.5-15.9-14.01 7.52Z" class="cls-142"/><path d="m141.79 323.69-28.81-7.12c5.13 5.48 10.38 10.61 14.8 14.65l14.01-7.52Z" class="cls-74"/><path d="m112.98 316.57 28.81 7.12-5.67-14.43-23.14 7.31z" class="cls-122"/><path d="m141.79 323.69 18.04-9.69-23.71-4.74 5.67 14.43z" class="cls-155"/><path d="m112.98 316.57 23.14-7.31-11.62-19.62-11.52 26.93z" class="cls-134"/><path d="m136.12 309.26 23.71 4.74-15.31-10.68-8.4 5.94z" class="cls-162"/><path d="M162.31 308.28h-.59c-4.72.16-10.04-1.53-15.18-3.97-10.14-4.82-19.53-12.54-22.03-14.67l11.62 19.62 8.4-5.94L159.84 314l2.89-5.72h-.42Z" class="cls-142"/><path d="M170.89 278.79s24.25 12.4 29.29 10.28l15.32-21.62-44.61 11.34Z" style="fill:url(#linear-gradient-3)"/><path d="m215.5 267.45-15.32 21.62 28.82 3.12-13.5-24.74z" class="cls-103"/><path d="m200.18 289.07 12 23.87c7.07-7.75 12.53-14.56 16.83-20.76l-28.83-3.11Z" class="cls-153"/><path d="m164.96 327.49 13.47 12.68 9.55-21.51-23.02 8.83z" class="cls-134"/><path d="M178.43 340.17c3.74-.54 8.59-1.91 21.18-14.14l-11.63-7.37-9.55 21.51Z" class="cls-72"/><path d="m187.98 318.66 11.63 7.37c3.53-3.43 7.67-7.72 12.57-13.08l-24.19 5.71Z" class="cls-138"/><path d="m200.18 289.07-12.2 29.59 24.2-5.71-12-23.88z" style="fill:#805331"/><path d="m164.96 327.49 23.02-8.83-28.15-4.66 5.13 13.49z" class="cls-138"/><path d="M200.18 289.07s-21.88 19.39-37.45 19.2-2.89 5.72-2.89 5.72l23.87-5.71 16.47-19.22Z" class="cls-44"/><path d="m159.83 314 28.15 4.66-4.27-10.37-23.88 5.71z" class="cls-153"/><path d="m183.71 308.29 4.27 10.37 12.2-29.59-16.47 19.22z" class="cls-122"/><path d="M264.94 235.39s1.1-2.19 2.13-5.78l-2.13 5.78Z" class="cls-1"/></g><g id="eyes"><path d="M128.67 193.05c-.34-.18-.7-.36-1.06-.54-.66-.32-1.36-.63-2.08-.93-2.54-1.04-5.48-1.88-8.88-2.39-.03 0-.07-.01-.1-.02-.35-.06-.69-.09-1.04-.14-.93-.12-1.84-.21-2.75-.23-.9.49-1.66 1.1-2.27 1.77.69-.12 1.77-.26 3.12-.3.6-.02 1.24-.02 1.95.01 2.39.11 5.35.58 8.59 1.79 1.08.4 2.19.88 3.32 1.46.44.23.89.49 1.34.75v-.09c0-.4-.06-.78-.15-1.16Z" class="cls-54"/><path d="M95.48 192.08c.21.26.43.53.66.8l-.66-.8Z" class="cls-1"/><path d="M96.38 191.81c-.3.09-.59.17-.89.26 1.05 1.34 2.39 2.77 4.23 4.07 3.15 2.22 7.77 4.03 14.92 4.28-.67-.22-1.28-.51-1.86-.83-10.32.12-14.92-5.44-16.4-7.79Z" class="cls-166"/><path d="M101.39 190.4c-1.61.42-3.26.89-5.02 1.41.33.53.83 1.22 1.5 1.96.2-.69.93-2.12 3.51-3.37Z" class="cls-81"/><path d="M99.72 193.36c.49-1.2 1.55-2.15 2.8-2.5.58-.16 1.19-.19 1.79-.23 1.98-.1 4-.15 5.93.25.64-.81 1.49-1.52 2.52-2.09-3.74-.1-7.38.56-11.37 1.6-2.58 1.25-3.31 2.68-3.51 3.37.45.5.99 1.04 1.63 1.57a3.53 3.53 0 0 1 .21-1.98Z" class="cls-54"/><path d="M108.99 194.21c0-1.21.46-2.34 1.24-3.32-1.92-.4-3.95-.35-5.93-.25-.6.03-1.21.07-1.79.23-1.25.34-2.32 1.3-2.8 2.5-.25.63-.34 1.32-.21 1.98 2.61 2.19 6.82 4.33 13.27 4.26-2.29-1.26-3.78-3.2-3.78-5.39Zm-8.51 1.05c-.09-.46-.03-.95.15-1.39.34-.84 1.09-1.51 1.97-1.75.41-.11.83-.14 1.25-.16 1.39-.07 2.81-.11 4.16.18-.55.69-.87 1.48-.87 2.33 0 1.54 1.04 2.9 2.65 3.78-4.52.05-7.47-1.45-9.31-2.99Z" class="cls-82"/><path d="M107.13 194.47c0-.85.32-1.64.87-2.33-1.35-.28-2.77-.25-4.16-.18-.42.02-.85.05-1.25.16-.88.24-1.63.91-1.97 1.75-.18.44-.24.93-.15 1.39 1.83 1.54 4.78 3.04 9.31 2.99-1.61-.89-2.65-2.24-2.65-3.78Zm-4.95.73c-.06-.29-.02-.6.09-.88.22-.53.69-.95 1.24-1.11.26-.07.53-.09.79-.1.88-.04 1.77-.07 2.62.11-.35.44-.55.94-.55 1.47 0 .97.66 1.83 1.67 2.39-2.86.03-4.72-.92-5.87-1.89Z" class="cls-37"/><path d="M106.38 194.69c0-.53.2-1.03.55-1.47-.85-.18-1.75-.16-2.62-.11-.27.01-.53.03-.79.1-.55.15-1.03.57-1.24 1.11-.11.28-.15.59-.09.88 1.16.97 3.02 1.92 5.87 1.89-1.02-.56-1.67-1.42-1.67-2.39Z" class="cls-43"/><path d="M125.78 190.76c-.66-.51-1.33-1.02-2.07-1.4-1.1-.57-2.32-.84-3.53-1.1-1.08-.24-2.15-.47-3.25-.62-1.92-.26-3.88-.24-5.82-.15-1.57.07-3.14.19-4.68.5-3.25.67-6.28 2.18-9.44 3.17l-1.52.91c6.51-1.93 11.76-3.43 17.28-3.28 1.24.03 2.5.15 3.79.37 4.94.73 8.92 2.16 12.12 3.88l-.05-.12c-.94-.72-1.89-1.44-2.83-2.17ZM83.85 200.17l-2.43-3.18 2.43 3.18z" class="cls-134"/><path d="M114.73 200.43h-.1c-10.51-.38-15.54-4.11-18.49-7.55l2.61 3.16c1.26 1.01 2.55 2 3.87 2.93.61.43 1.23.85 1.92 1.14.69.3 1.44.46 2.18.6 3.24.62 6.54.92 9.84.89.73 0 1.47-.03 2.2-.13 1.03-.14 2.05-.42 3.08-.55l.35-.21c-2.19-.1-4.65-.19-7.45-.28Z" class="cls-54"/><path d="M137.11 199.84c.02.13.05.25.05.37 0 .22-.01.46-.13.64-.22.33-.68.38-1.08.39-1.17.01-2.34-.07-3.5-.25-2.07-.32-4.12-.94-6.22-.84-.52.02-1.04.09-1.55.16l-2.04.27c-.15.04-.3.09-.46.13 12.57.56 15.79 1.36 18.34 4.53 0 0-.91-2.42-3.41-5.4Z" class="cls-57"/><path d="M135.05 200.29c-.07-.52-.41-.96-.75-1.37-.92-1.13-1.91-2.23-3.05-3.13a9.919 9.919 0 0 0-2.44-1.42c-.07 2.05-1.43 3.88-3.54 5.11 2.07-.8 3.49-2.31 3.55-4.06.6.25 1.17.58 1.69.99.8.63 1.48 1.39 2.12 2.17.23.28.47.59.52.95.03.23-.05.47-.19.63-.54-.02-1.08-.06-1.61-.15-1.44-.22-2.86-.65-4.31-.58-.36.02-.72.06-1.08.11-.35.05-.7.09-1.05.14-.69.37-1.45.67-2.27.91l2.04-.27c.52-.07 1.03-.14 1.55-.16 2.09-.1 4.15.53 6.22.84.77.12 1.55.18 2.33.21.21-.24.32-.59.28-.91Z" class="cls-82"/><path d="M127.03 199.43c1.45-.07 2.87.36 4.31.58.53.08 1.07.12 1.61.15.14-.17.22-.41.19-.63-.05-.36-.29-.67-.52-.95-.64-.78-1.32-1.54-2.12-2.17-.51-.4-1.08-.74-1.69-.99-.06 1.75-1.48 3.26-3.55 4.06-.12.07-.24.14-.36.2.35-.05.7-.09 1.05-.14.36-.05.72-.09 1.08-.11Z" class="cls-146"/><path d="M137.11 199.84c-1.85-2.2-4.56-4.71-8.44-6.79.09.38.15.76.15 1.16v.16c.87.35 1.69.84 2.44 1.42 1.15.9 2.13 2 3.05 3.13.33.41.67.85.75 1.37.05.33-.07.67-.28.91.39.02.78.04 1.17.03.4 0 .86-.05 1.08-.39.12-.19.14-.42.13-.64 0-.13-.03-.25-.05-.37Z" class="cls-81"/><path d="M199.35 201.8c-2.3.05-4.6.17-6.89.37-.31.03-.71 0-.8-.29-.04-.11-.01-.23 0-.35.12-.58.24-1.17.35-1.75a27.688 27.688 0 0 0-3.42 5.16c2.73-2.17 9.18-2.68 15.74-2.65-.02 0-.03-.01-.04-.02-1.59-.47-3.29-.5-4.95-.46Z" class="cls-57"/><path d="M199.94 199.45s.02.03.03.04c-.01-.01-.02-.03-.03-.04ZM198.33 195.96v-.16.16ZM200.39 199.92l-.02-.02.02.02ZM199.55 198.96s.03.05.05.07c-.02-.02-.03-.05-.05-.07ZM198.36 196.15c.02.12.03.24.05.36-.02-.12-.04-.24-.05-.36ZM198.67 197.36c.03.07.05.14.07.2-.03-.07-.05-.13-.07-.2ZM198.48 196.77c.02.09.04.18.07.27-.03-.09-.05-.18-.07-.27ZM199.2 198.45s.04.07.06.11c-.02-.04-.04-.07-.06-.11ZM198.91 197.91c.03.05.05.11.08.16-.03-.05-.05-.11-.08-.16ZM198.32 195.79c0-.13-.02-.26-.02-.4 0 .13.01.27.02.4Z" class="cls-1"/><path d="M218.42 191.51c-4.48-.8-7.04-.58-7.04-.58-5.48.41-9.72 1.79-13 3.56-2.65 1.44-4.75 3.36-6.36 5.28l-.18.88c1.82-1.59 3.74-3.06 5.76-4.4.24-.16.48-.31.72-.46 0-.13-.02-.26-.02-.4 0 .13.01.27.02.4.89-.56 1.8-1.09 2.76-1.51 1.4-.61 2.88-1 4.38-1.27 4.6-.84 9.34-.58 13.96.15.1.02.2.03.3.04 4.19.68 8.31 1.72 12.44 2.68-5.57-2.49-10.25-3.75-13.75-4.38Z" class="cls-54"/><path d="M198.55 197.04c.03.11.08.21.12.32-.04-.11-.08-.21-.12-.32ZM198.33 195.96c0 .06.02.13.03.19 0-.06-.02-.13-.03-.19ZM198.42 196.51c.02.09.05.18.07.27-.02-.09-.05-.18-.07-.27ZM198.74 197.56c.05.12.11.23.16.35a5.43 5.43 0 0 1-.16-.35ZM200.39 199.92c1.02.99 2.36 1.79 3.91 2.34-1.55-.55-2.9-1.36-3.91-2.34ZM198.98 198.07ZM199.97 199.49c.13.14.26.28.4.41-.14-.14-.27-.27-.4-.41ZM199.6 199.03ZM199.27 198.56Z" class="cls-43"/><path d="M194.21 201.36c-.24-.11-.44-.29-.63-.47-.07-.07-.14-.14-.17-.23-.04-.11 0-.24.02-.35.19-.66.54-1.26 1-1.76-.88.68-1.75 1.38-2.59 2.11l-.18.87c-.02.12-.05.24 0 .35.1.29.49.32.8.29 1.56-.13 3.12-.22 4.68-.29-.75-.07-1.5-.17-2.24-.32-.24-.05-.48-.1-.7-.2Z" style="fill:#676858"/><path d="m200.39 199.92-.02-.02c-.14-.14-.27-.27-.4-.41-.01-.01-.02-.03-.03-.04-.12-.14-.23-.27-.34-.41-.02-.02-.03-.05-.05-.07-.1-.13-.19-.26-.28-.4-.02-.04-.04-.07-.06-.11-.08-.13-.15-.25-.22-.38-.03-.05-.05-.11-.08-.16a5.43 5.43 0 0 1-.16-.35c-.03-.07-.05-.13-.07-.2-.04-.11-.08-.21-.12-.32-.03-.09-.05-.18-.07-.27-.02-.09-.05-.18-.07-.27-.02-.12-.04-.24-.05-.36 0-.06-.02-.13-.03-.19v-.16c-.24.15-.48.31-.72.46-1.09.72-2.14 1.49-3.17 2.28-.46.51-.81 1.11-1 1.76-.03.12-.06.24-.02.35.03.09.1.17.17.23.19.19.39.36.63.47.22.11.46.16.7.2.74.15 1.49.25 2.24.32.74-.03 1.47-.07 2.21-.08 1.67-.04 3.36 0 4.95.46-1.55-.55-2.9-1.36-3.91-2.34Zm-1.5 1.25c-.54.01-1.08.04-1.62.06-.55-.05-1.1-.13-1.64-.23-.17-.03-.35-.07-.51-.15-.17-.08-.32-.21-.46-.35-.05-.05-.1-.1-.12-.17-.03-.08 0-.17.02-.26.14-.48.4-.92.73-1.29.75-.58 1.52-1.14 2.32-1.67l.52-.34v.12c0 .05.01.09.02.14.01.09.02.18.04.26.01.07.03.13.05.2.02.07.03.13.05.2.02.08.06.16.08.23.02.05.03.1.05.15.04.09.08.17.12.25.02.04.03.08.05.12.05.09.11.19.16.28.02.03.03.05.05.08.06.1.13.2.2.29.01.02.02.04.04.05.08.1.16.2.25.3 0 0 .02.02.02.03.09.1.19.2.29.3l.01.01c.74.72 1.73 1.31 2.86 1.71-1.16-.34-2.41-.36-3.62-.34Z" class="cls-82"/><path d="m199.65 199.79-.01-.01c-.1-.1-.2-.2-.29-.3 0 0-.02-.02-.02-.03-.09-.1-.17-.2-.25-.3-.01-.02-.02-.04-.04-.05-.07-.1-.14-.19-.2-.29-.02-.03-.03-.05-.05-.08-.06-.09-.11-.18-.16-.28-.02-.04-.04-.08-.05-.12-.04-.08-.08-.17-.12-.25-.02-.05-.04-.1-.05-.15-.03-.08-.06-.16-.08-.23-.02-.07-.03-.13-.05-.2-.02-.07-.04-.13-.05-.2-.02-.09-.03-.17-.04-.26 0-.05-.02-.09-.02-.14v-.12c-.18.11-.35.22-.52.34-.79.53-1.57 1.09-2.32 1.67-.34.37-.59.81-.73 1.29-.02.08-.04.17-.02.26.02.07.07.12.12.17.14.14.29.26.46.35.16.08.34.11.51.15.54.11 1.09.18 1.64.23.54-.02 1.08-.05 1.62-.06 1.22-.03 2.46 0 3.62.34-1.14-.4-2.12-.99-2.86-1.71Z" class="cls-43"/><path d="M232.81 196.17c-.22-.1-.43-.19-.64-.28-.82-.19-1.64-.38-2.45-.58.06.04.13.08.18.14.19.23.14.59-.03.84-.18.24-.45.4-.72.53-2.27 1.15-4.78 1.73-7.26 2.29l-4.23.96c-.62.57-1.34 1.09-2.16 1.51 9.31-1.73 14.47-3.76 17.31-5.41Z" class="cls-166"/><path d="M226.64 195.56a51.8 51.8 0 0 0-7.18-2.32c.29.68.46 1.4.46 2.16 0 1.12-.35 2.18-.96 3.14 2.22.07 4.5.09 6.56-.73.61-.24 1.2-.57 1.63-1.06.1-.12.2-.25.22-.41.04-.38-.37-.63-.73-.77Zm-1.21.82c-.25.28-.58.46-.93.6-1.17.47-2.47.46-3.73.42.35-.54.55-1.15.55-1.79 0-.43-.1-.84-.26-1.23 1.39.34 2.76.78 4.09 1.32.2.08.44.22.41.44 0 .09-.06.17-.12.23Z" class="cls-37"/><path d="M225.14 195.71c-1.33-.54-2.69-.98-4.09-1.32.16.39.26.8.26 1.23 0 .64-.2 1.24-.55 1.79 1.27.04 2.56.05 3.73-.42.35-.14.68-.32.93-.6.06-.07.11-.14.12-.23.02-.22-.21-.36-.41-.44Z" class="cls-146"/><path d="M229.9 195.45c-.05-.06-.12-.1-.18-.14-3.31-.78-6.63-1.56-9.99-2.1-.1-.02-.2-.03-.3-.04.01.02.02.05.03.08 2.45.6 4.85 1.37 7.18 2.32.35.14.77.39.73.77-.02.16-.11.29-.22.41-.43.49-1.02.82-1.63 1.06-2.06.82-4.34.8-6.56.73-.35.55-.79 1.06-1.3 1.53l4.23-.96c2.48-.56 4.99-1.13 7.26-2.29.27-.14.54-.29.72-.53.18-.24.22-.6.03-.84Z" class="cls-81"/><path d="M203.31 192.11c-.36.49-.62 1.06-.84 1.65.67-.22 1.35-.41 2.04-.56-.36-.42-.76-.79-1.2-1.09Z" class="cls-1"/><path d="M232.81 196.17c-2.84 1.65-8.01 3.68-17.31 5.41-.74.14-1.5.27-2.3.41-2.94.28-5.96.3-8.85.29-5.66-.03-11.25.35-14.42 1.86 2.54-.42 5.11-.65 7.66-.39 1.38.14 2.74.42 4.12.57 2.61.29 5.25.13 7.86-.11 1.85-.16 3.7-.36 5.53-.64.17-.02.33-.05.5-.08 2.69-.42 5.34-1.01 7.91-1.9 1.21-.42 2.41-.91 3.51-1.57 1.04-.62 2-1.38 3.1-1.89.68-.31 1.41-.53 2.01-.98.32-.25.59-.59.73-.97l-.05-.02Z" style="fill:#24281c"/><path d="M195.96 203.66c-2.02-.05-4.04.15-6.04.48-.5.24-.94.5-1.31.79-.26.51-.47.97-.63 1.32l.89.21c.14-.12.27-.25.41-.35 1.92-1.42 4.32-2.03 6.68-2.44Z" class="cls-46"/><path d="M140.52 205.24c-2.55-3.17-5.77-3.97-18.34-4.53l-.35.21c-1.02.13-2.05.41-3.08.55-.73.1-1.46.12-2.2.13-3.3.03-6.6-.26-9.84-.89-.74-.14-1.49-.3-2.18-.6-.69-.29-1.31-.71-1.92-1.14-1.25-.87-2.45-1.8-3.64-2.75.85.97 1.7 1.94 2.74 2.68.85.6 1.8 1.04 2.76 1.42 3.92 1.57 8.17 2.31 12.4 2.21.82-.02 1.63-.07 2.45-.14 1.01-.08 2.01-.18 3.02-.29 1.71-.18 3.43-.35 5.15-.39 3.55-.07 7.27.53 10.1 2.68.31.23.62.51.69.89a.71.71 0 0 1-.12.51l2.36-.56Z" class="cls-57"/><g id="left-eye"><path d="M114.94 192.34c.05.72.48 1.37 1.04 1.83s1.23.75 1.9 1.02c.7.29 1.43.56 2.19.59.76.03 1.57-.23 2.03-.83.33-.43.44-.98.68-1.46.3-.59.79-1.07 1.36-1.41-3.24-1.21-6.2-1.68-8.59-1.79-.15.24-.27.5-.38.77-.16.41-.28.85-.25 1.28Z" class="cls-46"/><path d="M127.47 193.54c-.07.26-.15.53-.24.78-.67 1.85-1.81 3.64-3.56 4.55-.7.36-1.46.57-2.22.78-.81.22-1.63.44-2.46.5-.71.05-1.43-.02-2.14-.13-1.23-.19-2.49-.52-3.43-1.35-.31-.27-.57-.59-.83-.91-.45-.55-.9-1.12-1.09-1.8-.17-.59-.13-1.21-.01-1.81.27-1.42.96-2.77 1.99-3.78.04-.04.08-.06.12-.1-1.35.04-2.43.18-3.12.3-.95 1.06-1.5 2.3-1.5 3.63 0 2.74 2.31 5.11 5.64 6.22h.1c2.8.09 5.26.18 7.45.28 3.82-.93 6.58-3.44 6.63-6.41-.45-.26-.9-.53-1.34-.75Z" class="cls-57"/><path d="M126.17 192.92c-.05.07-.11.13-.16.2-.79 1.04-1.62 2.04-2.5 3-.95 1.05-2.06 2.1-3.46 2.3-.47.06-.94.03-1.41-.02-.88-.09-1.76-.23-2.59-.54-.83-.31-1.61-.79-2.16-1.49a1.94 1.94 0 0 1-.39-.72c-.06-.24-.06-.48-.05-.73.07-1.58.36-3.15.83-4.66h-.67c-.04.04-.09.06-.12.1a7.137 7.137 0 0 0-1.99 3.78c-.11.6-.15 1.22.01 1.81.19.68.64 1.25 1.09 1.8.26.32.52.64.83.91.93.83 2.2 1.16 3.43 1.35.71.11 1.42.18 2.14.13.84-.06 1.65-.28 2.46-.5.76-.21 1.52-.42 2.22-.78 1.75-.91 2.89-2.69 3.56-4.55.09-.26.18-.52.24-.78-.44-.23-.87-.43-1.31-.62Z" class="cls-40"/><path d="M113.49 195.65c.07.27.22.5.39.72.55.69 1.33 1.18 2.16 1.49.83.31 1.71.45 2.59.54.47.05.94.09 1.41.02 1.4-.19 2.51-1.25 3.46-2.3.88-.96 1.71-1.97 2.5-3 .05-.07.1-.13.16-.2-.68-.31-1.35-.59-2.01-.84-.58.34-1.07.81-1.36 1.41-.24.48-.35 1.03-.68 1.46-.46.61-1.27.86-2.03.83-.76-.03-1.49-.31-2.19-.59-.67-.27-1.34-.56-1.9-1.02s-1-1.11-1.04-1.83c-.03-.44.09-.87.25-1.28.1-.27.23-.52.38-.77-.46-.02-.88-.02-1.29-.02-.48 1.51-.76 3.08-.83 4.66-.01.24-.02.49.05.73Z" class="cls-105"/><path d="M117.89 195.19c0 .69-1.11 1.89-2.28 1.89s-1.91-.81-1.91-1.49.95-.51 2.13-.51 2.06-.58 2.06.11ZM122.78 194.48c-.38-.06-.29.52-.95.89s-1.24.35-1.07.65 1.04.47 1.7.09.66-1.58.32-1.64Z" class="cls-151"/><circle cx="119.34" cy="191.64" r=".74" class="cls-90"/><path d="m117.11 191.81-2.65-.26-1.26 1.38 1.96.85 1.95-1.97z" class="cls-97"/></g><g id="right-eye"><path d="M207.18 197.05c.68.5 1.57.61 2.4.48.83-.12 1.61-.46 2.38-.79.34-.15.7-.31.87-.64.1-.2.12-.44.13-.66.02-.75-.01-1.5-.11-2.24-.03-.22-.06-.45-.08-.68-2.45-.07-4.89.06-7.3.5-.32.06-.64.12-.96.19.49.57.91 1.22 1.26 1.88.39.72.75 1.49 1.41 1.97Z" class="cls-46"/><path d="M219.43 193.16c-.79-.12-1.58-.23-2.37-.32.2.64.37 1.29.49 1.95.16.84.25 1.72 0 2.54-.31 1-1.12 1.79-2.05 2.27-.93.49-1.97.71-3 .87-3.26.5-6.89.35-9.42-1.77-.59-.49-1.12-1.12-1.25-1.88-.12-.66.08-1.33.28-1.96.11-.36.24-.73.37-1.09-.47.15-.93.32-1.39.52-.96.42-1.88.95-2.76 1.51v.16c0 .06.02.13.03.19.02.12.03.24.05.36.02.09.05.18.07.27.02.09.04.18.07.27.03.11.08.21.12.32.03.07.05.14.07.2.05.12.11.23.16.35.03.05.05.11.08.16.07.13.14.25.22.38.02.04.04.07.06.11.09.14.18.27.28.4.02.02.03.05.05.07.11.14.22.28.34.41.01.01.02.03.03.04.13.14.26.28.4.41l.02.02c1.02.99 2.36 1.79 3.91 2.34s.03.01.04.02c2.89.01 5.92-.01 8.85-.29.8-.13 1.56-.27 2.3-.41 2.68-1.4 4.42-3.64 4.42-6.18 0-.78-.18-1.52-.49-2.23Z" class="cls-57"/><path d="M204.64 197.85c.18.19.39.34.61.48 1.63 1.05 3.68 1.19 5.62 1.2.4 0 .81 0 1.2-.1.52-.13 1-.4 1.49-.63.49-.22 1.01-.4 1.48-.67.47-.28.89-.69 1.02-1.21.07-.25.07-.5.06-.76 0-1.15-.08-2.29-.17-3.44-1.06-.1-2.12-.19-3.19-.22.02.23.05.46.08.68.1.74.13 1.49.11 2.24 0 .23-.02.46-.13.66-.17.33-.53.49-.87.64-.77.33-1.55.67-2.38.79-.83.12-1.73.01-2.4-.48-.66-.48-1.02-1.25-1.41-1.97-.35-.66-.77-1.31-1.26-1.88-.57.12-1.13.29-1.69.46.15 1.08.55 2.13 1.06 3.1.21.39.43.78.74 1.09Z" class="cls-105"/><path d="M217.55 194.79c-.12-.66-.29-1.31-.49-1.95-.37-.04-.73-.07-1.1-.11.09 1.14.16 2.29.17 3.44 0 .25 0 .51-.06.76-.14.52-.56.93-1.02 1.21-.47.28-.99.45-1.48.67-.49.22-.96.5-1.49.63-.39.09-.8.1-1.2.1-1.94 0-3.99-.15-5.62-1.2-.22-.14-.43-.3-.61-.48-.31-.31-.54-.7-.74-1.09-.51-.97-.92-2.02-1.06-3.1-.12.04-.24.06-.36.1-.13.36-.26.73-.37 1.09-.2.64-.4 1.31-.28 1.96.13.76.66 1.38 1.25 1.88 2.53 2.11 6.16 2.27 9.42 1.77 1.03-.16 2.08-.38 3-.87.93-.49 1.73-1.28 2.05-2.27.26-.81.17-1.7 0-2.54Z" class="cls-40"/><path d="M210.19 195.19c0 .69 1.11 1.89 2.28 1.89s1.91-.81 1.91-1.49c0-.69-.95-.51-2.13-.51s-2.06-.58-2.06.11Z" class="cls-151"/><circle cx="208.74" cy="193.44" r=".74" class="cls-90"/><path d="m207.05 194.86-2.19.73v1.61l2.19-.43v-1.91z" class="cls-97"/></g></g><g id="shadow-2" data-name="shadow"><path id="hat_shadow" d="M249.92 184.72c-12.11-16.74-18.76-24.29-31.65-31.79-7.35-4.28-16.73-8.54-30.32-14.48l-5.64-2.46c-6.45-2.25-12.44-3.98-18-5.33-1.24-.3-2.47-.58-3.67-.84-6.4-1.4-12.15-2.24-17.25-2.71-19.66-1.8-29.69 2.03-29.69 2.03s-10.5 13.57-19.88 32.79c-1.95 3.99-3.85 8.23-5.6 12.64l-.81.46.61.03c-.39 1-.78 2.02-1.15 3.04 18.5-6.68 44.25-10.62 77.74-3.96 39.02 7.77 66.01 15.2 85.33 24.94.07-8.45-.03-14.37-.03-14.37Z" data-name="hat shadow" style="fill:url(#linear-gradient-4)"/><path id="left_eye_shadow" d="m100.76 189.81-19.28 7.1-4.18 18.12 23.46-25.22z" data-name="left eye shadow" style="fill:url(#linear-gradient-5)"/><path id="right_eye_shadow" d="m224.72 192.94 25.57 9.41 4.18 18.13-29.75-27.54z" data-name="right eye shadow" style="fill:url(#linear-gradient-6)"/></g></g><g id="hat"><g id="hat-2" data-name="hat"><path d="m309.17 42.55-33.24 26.6v25.79l26.54-19.57 6.7-32.82z" style="fill:url(#linear-gradient-7)"/><path d="m202.83 57.51-52.23-7.19 6.28 36.67 45.95-29.48z" style="fill:#2c3222"/><path d="M264.86 39.89 215.1 14.44l20.44 53.4 29.32-27.95z" class="cls-117"/><path d="M95.3 112.38 81.43 144.6c16.11-11.87 32.31-15.46 32.31-15.46s10.03-3.83 29.69-2.03L95.3 112.38Z" style="fill:#2d4026"/><path d="M121.28 53.67 95.6 42.55l24.32 25.29 1.36-14.17z" style="fill:#573529"/><path d="m108.19 74.28 11.73-6.44-26.07-27.11 14.34 33.55z" style="fill:#191011"/><path d="M43.64 58.56c-.31 3.35-.33 6.54-.17 9.41.31 5.45 1.27 9.76 2.15 11.85L70.6 94.93 47.72 52.97l-4.08 5.57Z" style="fill:#978672"/><path d="m51.19 26.35-1.51 11.62-1.96 15.02 22.89 41.95 13.24-32.28-32.66-36.31z" style="fill:url(#linear-gradient-8)"/><path d="M108.19 74.28 70.61 94.94l37.58-20.66z" style="stroke-miterlimit:10;stroke:#fff;fill:none"/><path d="M94.41 42.04 51.19 26.35l32.66 36.31 24.34 11.62-13.78-32.24z" style="fill:#ece8e1"/><path d="M108.19 74.28 83.85 62.66 70.61 94.94l37.58-20.66z" class="cls-116"/><path d="M85.11 14.07 76.74 4.9 61.34 0l32.51 40.73 1.75 1.82 25.68 11.12-36.17-39.6z" style="fill:#b38f6e"/><path d="m275.93 94.94 19.08 34.88 9.85-12.41 4.31-5.44-1.63-14.98-31.61-2.05z" style="fill:#6a6353"/><path d="m306.17 12.8-16.61 3.55-9.46 9.01-15.24 14.53 4.94 9.29 36.37-36.38z" style="fill:#97704c"/><path d="m264.86 39.89-29.32 27.95 18.07 12.12 16.19-30.78-4.94-9.29z" style="fill:#1d1512"/><path d="m269.8 49.18-16.19 30.78 22.32-10.81 33.24-26.6-39.37 6.63z" style="fill:#fafaf8"/><path d="M275.93 94.94V69.15l-22.32 10.81 22.32 14.98z" style="fill:#8a8475"/><path d="m95.34 25.27 25.94 28.4 9.03-40.87-34.97 12.47z" class="cls-117"/><path d="m121.28 53.67 29.32-3.35-20.29-37.52-9.03 40.87zM202.83 57.51l32.71 10.33-20.44-53.4-12.27 43.07z" class="cls-136"/><path d="m191.47 27.59 23.63-13.15-84.79-1.64 61.16 14.79z" class="cls-13"/><path d="M191.47 27.59 130.31 12.8l20.29 37.52 40.87-22.73z" style="fill:#575b42"/><path d="m191.47 27.59 11.36 29.92 12.27-43.07-23.63 13.15z" style="fill:#63442f"/><path d="m150.6 50.32 52.23 7.19-11.36-29.92-40.87 22.73z" style="fill:#2e4229"/><path d="M45.62 79.83c-.53.28-1.04.56-1.56.85-6.01 2.41-16.46 6.91-16.46 6.91l3.17 2.47-11.16 5.89 4.16 1.51 46.84-2.51-24.98-15.11Z" style="fill:#baae98"/><path d="M23.77 97.45c-4.1 5.13-7.1 10.57-9.29 16.11l-9.76 10.71 4.72-1.45L0 138.67l9.9-7.76c-1.09 7.05-1.39 13.86-1.55 19.95L70.6 94.95l-46.84 2.51Z" class="cls-86"/><path d="m310.02 127.54 2.38-.91-4.47-2.27 5.92-2.62-8.99-4.33-9.85 12.41 25.25 17.01c-2.83-6.89-6.53-13.49-10.24-19.29Z" style="fill:#3b342c"/><path d="m150.6 50.32-29.32 3.35 20.74 47.12 8.58-50.47z" style="fill:#5f402b"/><path d="M11.55 185.96c2.61 5.63 6.25 9.86 10.24 13.05v9.47l4.24-6.53c.28.17.56.34.84.5v5.42l2.21-4.25c10.39 5.14 20.62 5.08 20.62 5.08l-1.99-65.13-36.17 42.4Z" style="fill:#7c5b3d"/><path d="m2.54 160.06 4.94-2.75-4.94 14.99 2.91-3.01L0 184.83l5.81-1.38v6.36l5.74-3.85 36.17-42.4-39.36 7.3-5.82 9.2z" class="cls-93"/><path d="m8.36 150.86 39.36-7.3 22.89-48.62-62.25 55.92z" style="fill:#946645"/><path d="m70.61 94.94-22.89 48.62 47.58-31.18-24.69-17.44z" style="fill:#775d3f"/><path d="m143.43 127.11-1.41-26.32-46.72 11.59 48.13 14.73z" style="fill:#745640"/><path d="M108.19 74.28 70.61 94.94l24.69 17.44 24.62-44.54-11.73 6.44z" class="cls-132"/><path d="m121.28 53.67-1.36 14.17 22.1 32.95-20.74-47.12z" style="fill:#4e4b3c"/><path d="M119.92 67.84 95.3 112.38l46.72-11.59-22.1-32.95z" class="cls-12"/><path d="m47.72 143.56 33.7 1.04 13.88-32.22-47.58 31.18z" style="fill:#9c7752"/><path d="m150.6 50.32-8.58 50.47 14.86-13.8-6.28-36.67z" style="fill:#313332"/><path d="m202.83 57.51-45.95 29.48 28.09 10.46 17.86-39.94z" style="fill:#78ab96"/><path d="m156.88 86.99 7.47 43.67 20.62-33.21-28.09-10.46z" style="fill:#243434"/><path d="m184.97 97.45-20.63 33.21c5.56 1.34 11.55 3.08 18 5.33l5.64 2.46-3.01-40.99Z" style="fill:#988975"/><path d="M143.43 127.11c5.11.47 10.85 1.31 17.25 2.71 1.2.26 2.42.54 3.67.84l-22.32-29.87 1.4 26.32Z" style="fill:#6d6153"/><path d="m142.02 100.79 22.33 29.87-7.47-43.67-14.86 13.8z" style="fill:#ac7c52"/><path d="m202.83 57.51-17.86 39.94 44.44-2.51-26.58-37.43z" style="fill:#3d362e"/><path d="m235.54 67.84-32.71-10.33 26.58 37.43 6.13-27.1z" style="fill:#c2b599"/><path d="m184.97 97.45 48.38 25.45-3.94-27.96-44.44 2.51z" style="fill:#412c1f"/><path d="m253.61 79.96-18.07-12.12-6.13 27.1 40.39 39.18-16.19-54.16z" style="fill:#9f7356"/><path d="m229.41 94.94 3.94 27.96 36.45 11.22-40.39-39.18z" class="cls-12"/><path d="m184.97 97.45 3.01 40.99 45.37-15.54-48.38-25.45z" class="cls-132"/><path d="M187.98 138.44c20.33 8.89 31.25 14.02 40.03 21.07l5.33-36.61-45.36 15.54Z" style="fill:#292e2f"/><path d="m233.35 122.9-5.34 36.62 41.79-25.4-36.45-11.22z" class="cls-86"/><path d="M228.01 159.52c7.38 5.93 13.26 13.2 21.94 25.2l19.85-50.6-41.79 25.4Z" style="fill:#453424"/><path d="m269.8 134.12-19.85 50.6 41.99-22.79-22.14-27.81z" style="fill:#5a4f43"/><path d="m291.94 161.93-41.99 22.79c22.01 15.12 19.87 35.17 17.11 44.89l24.88-67.68Z" style="fill:#a68562"/><path d="m338.19 208.21-10.21-15.75c-.08-1.15-.2-2.33-.33-3.54l6.91 1.03s-4.58-5.69-7.99-8.96l-34.62-19.07 32.1 50.01 5.07 2.27-1.82-6.58 10.9.59Z" style="fill:#715334"/><path d="M267.06 229.61c-1.02 3.6-2.13 5.78-2.13 5.78 9.29 3.1 19.81.44 29.47-4.02l-2.46-69.45-24.88 67.68Z" style="fill:#402b1f"/><path d="M294.4 231.38c10.72-4.95 20.38-12.13 26.11-16.14 1.39-.98 2.56-2.08 3.52-3.3l-32.1-50.01 2.46 69.45Z" class="cls-93"/><path d="M324.09 153.99h4.07l-7.9-7.16-25.25-17.01L326.57 181c-.44-2.82-.92-5.76-1.42-8.81.31-3.68.05-7.47-.64-11.29l3.66.23-4.07-7.13Z" style="fill:#28635d"/><path d="m275.93 94.94-6.13 39.18 25.21-4.3-19.08-34.88z" style="fill:#3c342b"/><path d="m253.61 79.96 16.19 54.16 6.13-39.18-22.32-14.98z" style="fill:#29504f"/><path d="m295.01 129.82-2.97 32.17L326.56 181l-31.55-51.18z" style="fill:#292d2a"/><path d="m269.8 134.12 22.14 27.81.1.06 2.97-32.17-25.21 4.3z" style="fill:#837b69"/><path d="M66.47 6.42 61.34 0l-8.17 11.17-1.98 15.18 8.89 3.23 1.26-10.89 5.13-12.27z" style="fill:url(#linear-gradient-9)"/><path d="M93.85 40.73 74.59 16.6l-3.88 16.83 23.7 8.61-.56-1.31z" style="fill:url(#linear-gradient-10)"/><path d="m66.47 6.42-5.13 12.27-1.26 10.89 10.63 3.85 3.88-16.83-8.12-10.18z" style="fill:url(#linear-gradient-11)"/><path d="m311.9 65.93-2.53-23.45-.2.07-6.7 32.82-26.54 19.57 31.61 2.05 6.54-16.08-2.18-14.98z" style="fill:#bbaf9a"/><path d="m287.08 31.9.94 14.21 13.15-2.21-5.74-20.35-8.35 8.35z" style="fill:url(#linear-gradient-12)"/><path d="m269.8 49.18 18.22-3.07-.94-14.21-17.28 17.28z" style="fill:url(#linear-gradient-13)"/><path d="m309.37 42.48-3.2-29.68-10.74 10.75 5.74 20.35 8-1.35.2-.07z" style="fill:url(#linear-gradient-14)"/><path d="M49.71 208.69c-.02-16.28 3.94-29.38 9.89-39.88l-11.88-25.25 1.99 65.13Z" class="cls-116"/><path d="M59.6 168.81c3.29-5.8 7.2-10.81 11.38-15.12l-23.26-10.13 11.88 25.25Z" style="fill:#e9cfac"/><path d="m81.42 144.6-33.7-1.04 23.26 10.13c3.36-3.46 6.9-6.48 10.44-9.09Z" class="cls-13"/></g><path id="shadow-3" d="m51.19 26.35-1.51 11.62-1.96 15.02-4.08 5.57c-.31 3.35-.33 6.54-.17 9.41.31 5.45 1.27 9.76 2.15 11.85-.53.28-1.04.56-1.56.85-6.01 2.41-16.46 6.91-16.46 6.91l3.17 2.47-11.16 5.89 4.16 1.51c-4.1 5.13-7.1 10.57-9.29 16.11l-9.76 10.71 4.72-1.45L0 138.67l9.9-7.76c-1.09 7.05-1.39 13.86-1.55 19.95l-5.81 9.2 4.94-2.75-4.94 15 2.91-3.01L0 184.84l5.81-1.38v6.36l5.74-3.86c2.61 5.63 6.25 9.86 10.24 13.05v9.47l4.24-6.53c.28.17.56.34.84.5v5.42l2.21-4.25c10.39 5.14 20.62 5.08 20.62 5.08-.02-16.28 3.94-29.38 9.89-39.88 3.29-5.8 7.2-10.81 11.38-15.12 3.36-3.46 6.9-6.48 10.44-9.09 16.11-11.87 32.31-15.46 32.31-15.46s10.03-3.83 29.69-2.03c5.11.47 10.85 1.31 17.25 2.71 1.2.26 2.42.54 3.67.84 5.56 1.34 11.55 3.08 18 5.33l5.64 2.46c20.33 8.89 31.25 14.02 40.03 21.07 7.38 5.93 13.26 13.2 21.94 25.2 22.01 15.12 19.87 35.17 17.11 44.89-1.02 3.6-2.13 5.78-2.13 5.78 9.29 3.1 19.81.44 29.47-4.02 10.72-4.95 20.38-12.13 26.11-16.14 1.39-.98 2.56-2.08 3.52-3.3l5.07 2.27-1.82-6.58 10.9.59-10.21-15.75c-.08-1.15-.2-2.33-.33-3.54l6.91 1.03s-4.58-5.69-7.99-8.96c-.44-2.82-.92-5.76-1.42-8.81.31-3.68.05-7.47-.64-11.29l3.66.23-4.07-7.13h4.07l-7.9-7.16c-2.83-6.89-6.53-13.49-10.24-19.29l2.38-.91-4.47-2.27 5.92-2.62-8.99-4.33 4.31-5.43-1.63-14.98 6.54-16.07-2.18-14.98-2.53-23.45-3.2-29.68-16.62 3.54-9.45 9.01-15.24 14.53-49.76-25.45-84.78-1.63-34.98 12.46-10.23-11.2-8.37-9.17L61.34 0l-8.17 11.17-1.98 15.18" data-name="shadow" style="fill:url(#linear-gradient-15)"/></g></g></svg>