<?xml version="1.0" encoding="UTF-8"?>
<svg id="Layer_2" data-name="Layer 2" xmlns="http://www.w3.org/2000/svg" width="453.82" height="295.75" xmlns:xlink="http://www.w3.org/1999/xlink" viewBox="0 0 453.82 295.75">
  <defs>
    <style>
      .cls-1, .cls-2, .cls-3, .cls-4 {
        fill: none;
      }

      .cls-5 {
        fill: #d6bc99;
      }

      .cls-6 {
        fill: #8a8475;
      }

      .cls-7 {
        fill: #ce2f00;
      }

      .cls-8 {
        fill: #28635d;
      }

      .cls-9 {
        fill: #d8b690;
      }

      .cls-10 {
        fill: #c09d6c;
      }

      .cls-11 {
        fill: #1b090a;
      }

      .cls-12 {
        fill: #656952;
      }

      .cls-13 {
        fill: #9aa88e;
      }

      .cls-14 {
        fill: #775d3f;
      }

      .cls-15 {
        fill: #a17a56;
      }

      .cls-16 {
        fill: #4e4b3c;
      }

      .cls-17 {
        fill: #488978;
      }

      .cls-18 {
        fill: #292d1e;
      }

      .cls-19 {
        fill: #e6cca9;
      }

      .cls-20 {
        fill: #76b19f;
      }

      .cls-21 {
        fill: #8d6943;
      }

      .cls-22 {
        fill: #b38f6e;
      }

      .cls-23 {
        fill: #412c1f;
      }

      .cls-24 {
        fill: #eccdaa;
      }

      .cls-25 {
        fill: url(#linear-gradient-8);
      }

      .cls-26 {
        fill: url(#linear-gradient-7);
      }

      .cls-27 {
        fill: url(#linear-gradient-5);
      }

      .cls-28 {
        fill: url(#linear-gradient-6);
      }

      .cls-29 {
        fill: url(#linear-gradient-9);
      }

      .cls-30 {
        fill: url(#linear-gradient-4);
      }

      .cls-31 {
        fill: url(#linear-gradient-3);
      }

      .cls-32 {
        fill: url(#linear-gradient-2);
      }

      .cls-33 {
        fill: #f3f3f0;
      }

      .cls-34 {
        fill: #db4a00;
      }

      .cls-35 {
        fill: #314431;
      }

      .cls-36 {
        fill: #f0d7b8;
      }

      .cls-37 {
        fill: #c0c3b2;
      }

      .cls-38 {
        fill: #7e583c;
      }

      .cls-2 {
        stroke: #fff;
      }

      .cls-2, .cls-3, .cls-4 {
        stroke-miterlimit: 10;
      }

      .cls-39 {
        fill: #4d563f;
      }

      .cls-40 {
        fill: #676b54;
      }

      .cls-41 {
        fill: #3d362e;
      }

      .cls-42 {
        fill: #e9cfac;
      }

      .cls-43 {
        fill: #e0e1da;
      }

      .cls-44 {
        fill: #242625;
      }

      .cls-45 {
        fill: #baae98;
      }

      .cls-3 {
        stroke: #614d36;
      }

      .cls-46 {
        fill: #0f1907;
      }

      .cls-47 {
        fill: #8a7e6d;
      }

      .cls-48 {
        fill: #614d36;
      }

      .cls-49 {
        fill: #c40500;
      }

      .cls-50 {
        fill: url(#linear-gradient);
      }

      .cls-51 {
        fill: #5a4f43;
      }

      .cls-52 {
        fill: #151014;
      }

      .cls-53 {
        fill: #573529;
      }

      .cls-54 {
        fill: #2b2b2a;
      }

      .cls-55 {
        fill: #1a1a1c;
      }

      .cls-56 {
        fill: #3b342c;
      }

      .cls-57 {
        fill: #15190f;
      }

      .cls-58 {
        fill: #d6c4ac;
      }

      .cls-59 {
        fill: #8c6341;
      }

      .cls-60 {
        fill: #775434;
      }

      .cls-61 {
        fill: #274942;
      }

      .cls-62 {
        fill: #63442f;
      }

      .cls-63 {
        fill: #6b4c30;
      }

      .cls-64 {
        fill: #5f402b;
      }

      .cls-65 {
        fill: #c2956d;
      }

      .cls-66 {
        fill: #606359;
      }

      .cls-67 {
        fill: #1b796e;
      }

      .cls-68 {
        fill: #243a35;
      }

      .cls-69 {
        fill: #988975;
      }

      .cls-70 {
        fill: #448b7d;
      }

      .cls-71 {
        fill: #928877;
      }

      .cls-72 {
        fill: #5e4434;
      }

      .cls-73 {
        fill: #c5c6bf;
      }

      .cls-74 {
        fill: #e3dcd4;
      }

      .cls-75 {
        fill: #0c0b0b;
      }

      .cls-76 {
        fill: #97704c;
      }

      .cls-77 {
        fill: #cabba1;
      }

      .cls-78 {
        fill: #6a6353;
      }

      .cls-79 {
        fill: #928f7b;
      }

      .cls-80 {
        fill: #1a1414;
      }

      .cls-81 {
        fill: #34352d;
      }

      .cls-82 {
        fill: #959887;
      }

      .cls-83 {
        fill: #e3e1da;
      }

      .cls-84 {
        fill: #978672;
      }

      .cls-85 {
        fill: #b0b4a2;
      }

      .cls-86 {
        fill: #446454;
      }

      .cls-87 {
        fill: #2d4026;
      }

      .cls-88 {
        fill: #5a4128;
      }

      .cls-89 {
        fill: #1d1512;
      }

      .cls-90 {
        fill: #fff;
      }

      .cls-91 {
        fill: #875c3b;
      }

      .cls-92 {
        fill: #fafaf8;
      }

      .cls-93 {
        fill: #1e4c42;
      }

      .cls-94 {
        fill: #d13221;
      }

      .cls-95 {
        fill: #2c3222;
      }

      .cls-96 {
        fill: #c2b599;
      }

      .cls-97 {
        fill: #99b6a2;
      }

      .cls-98 {
        fill: #51bca4;
      }

      .cls-99 {
        fill: #a4815b;
      }

      .cls-100 {
        fill: #a68562;
      }

      .cls-101 {
        fill: #e50000;
      }

      .cls-102 {
        fill: #191011;
      }

      .cls-103 {
        fill: #bdafa4;
      }

      .cls-104 {
        fill: #cfcdbd;
      }

      .cls-105 {
        fill: #575b42;
      }

      .cls-106 {
        fill: #7e8b74;
      }

      .cls-107 {
        fill: #254d45;
      }

      .cls-108 {
        fill: url(#linear-gradient-10);
      }

      .cls-109 {
        fill: url(#linear-gradient-11);
      }

      .cls-110 {
        fill: url(#linear-gradient-12);
      }

      .cls-111 {
        fill: url(#linear-gradient-13);
      }

      .cls-112 {
        fill: url(#linear-gradient-14);
      }

      .cls-113 {
        fill: url(#linear-gradient-15);
      }

      .cls-114 {
        fill: #453424;
      }

      .cls-115 {
        fill: #78ab96;
      }

      .cls-116 {
        fill: #2e4229;
      }

      .cls-117 {
        fill: #be8e5e;
      }

      .cls-118 {
        fill: #473323;
      }

      .cls-119 {
        fill: #1d2a14;
      }

      .cls-120 {
        fill: #946645;
      }

      .cls-121 {
        fill: #24281c;
      }

      .cls-122 {
        fill: #bc9579;
      }

      .cls-123 {
        fill: #7dad98;
      }

      .cls-124 {
        fill: #9c7752;
      }

      .cls-125 {
        fill: #9f7847;
      }

      .cls-126 {
        fill: #805331;
      }

      .cls-4 {
        stroke: #241f20;
        stroke-width: .75px;
      }

      .cls-127 {
        fill: #676858;
      }

      .cls-128 {
        fill: #b39f89;
      }

      .cls-129 {
        fill: #766041;
      }

      .cls-130 {
        fill: #292d2a;
      }

      .cls-131 {
        fill: #d00;
      }

      .cls-132 {
        fill: #243434;
      }

      .cls-133 {
        fill: #92694a;
      }

      .cls-134 {
        fill: #402b1f;
      }

      .cls-135 {
        fill: #535648;
      }

      .cls-136 {
        fill: #3c342b;
      }

      .cls-137 {
        fill: #33251b;
      }

      .cls-138 {
        fill: #ece8e1;
      }

      .cls-139 {
        fill: #241f20;
      }

      .cls-140 {
        fill: #6d6153;
      }

      .cls-141 {
        fill: #21463e;
      }

      .cls-142 {
        fill: #29504f;
      }

      .cls-143 {
        fill: #c6b59d;
      }

      .cls-144 {
        fill: #2f1f20;
      }

      .cls-145 {
        fill: #808d75;
      }

      .cls-146 {
        fill: #393333;
      }

      .cls-147 {
        fill: #dedace;
      }

      .cls-148 {
        fill: #a17945;
      }

      .cls-149 {
        fill: #6d4f38;
      }

      .cls-150 {
        fill: #91a98f;
      }

      .cls-151 {
        fill: #837661;
      }

      .cls-152 {
        fill: #cdd0c3;
      }

      .cls-153 {
        fill: #817666;
      }

      .cls-154 {
        fill: #1d5248;
      }

      .cls-155 {
        fill: #292e2f;
      }

      .cls-156 {
        fill: #f9f5ec;
      }

      .cls-157 {
        fill: #593e2a;
      }

      .cls-158 {
        fill: #483127;
      }

      .cls-159 {
        fill: #715334;
      }

      .cls-160 {
        fill: #745640;
      }

      .cls-161 {
        fill: #767467;
      }

      .cls-162 {
        fill: #224841;
      }

      .cls-163 {
        fill: #d1b594;
      }

      .cls-164 {
        fill: #7c5b3d;
      }

      .cls-165 {
        fill: #837b69;
      }

      .cls-166 {
        fill: #9f7356;
      }

      .cls-167 {
        fill: #63665d;
      }

      .cls-168 {
        fill: #5c492b;
      }

      .cls-169 {
        fill: #313332;
      }

      .cls-170 {
        fill: #4d8c7c;
      }

      .cls-171 {
        fill: #bbaf9a;
      }

      .cls-172 {
        fill: #936f4b;
      }

      .cls-173 {
        fill: #ac7c52;
      }

      .cls-174 {
        fill: #b3835a;
      }
    </style>
    <linearGradient id="linear-gradient" x1="230.65" y1="246.89" x2="230.45" y2="263.27" gradientUnits="userSpaceOnUse">
      <stop offset="0" stop-color="#050a07"/>
      <stop offset="1" stop-color="#000" stop-opacity="0"/>
    </linearGradient>
    <linearGradient id="linear-gradient-2" x1="212.73" y1="205.06" x2="225.16" y2="228.47" gradientUnits="userSpaceOnUse">
      <stop offset="0" stop-color="#bdafa4"/>
      <stop offset=".42" stop-color="#baada2"/>
      <stop offset=".64" stop-color="#b2a89d"/>
      <stop offset=".79" stop-color="#a8a297"/>
      <stop offset=".82" stop-color="#969187"/>
      <stop offset=".88" stop-color="#68655f"/>
      <stop offset=".97" stop-color="#242625"/>
    </linearGradient>
    <linearGradient id="linear-gradient-3" x1="251.47" y1="208.02" x2="241.74" y2="228.1" gradientUnits="userSpaceOnUse">
      <stop offset="0" stop-color="#bdafa4"/>
      <stop offset=".36" stop-color="#baada2"/>
      <stop offset=".54" stop-color="#b2a89d"/>
      <stop offset=".67" stop-color="#a8a297"/>
      <stop offset=".7" stop-color="#969187"/>
      <stop offset=".76" stop-color="#68655f"/>
      <stop offset=".83" stop-color="#242625"/>
    </linearGradient>
    <linearGradient id="linear-gradient-4" x1="245.61" y1="147.69" x2="229.38" y2="187.61" gradientUnits="userSpaceOnUse">
      <stop offset=".02" stop-color="#231f20"/>
      <stop offset=".11" stop-color="#231f20" stop-opacity=".69"/>
      <stop offset=".34" stop-color="#231f20" stop-opacity="0"/>
    </linearGradient>
    <linearGradient id="linear-gradient-5" x1="193.8" y1="177.88" x2="195.66" y2="181.13" gradientUnits="userSpaceOnUse">
      <stop offset=".02" stop-color="#000"/>
      <stop offset=".39" stop-color="#231f20" stop-opacity="0"/>
    </linearGradient>
    <linearGradient id="linear-gradient-6" x1="266.48" y1="179.65" x2="268.04" y2="183.05" gradientTransform="translate(538.73) rotate(-180) scale(1 -1)" xlink:href="#linear-gradient-5"/>
    <linearGradient id="linear-gradient-7" x1="290.83" y1="109.11" x2="304.12" y2="119.1" gradientUnits="userSpaceOnUse">
      <stop offset=".28" stop-color="#120a0a"/>
      <stop offset=".4" stop-color="#1d1c19"/>
      <stop offset=".55" stop-color="#262b26"/>
      <stop offset=".72" stop-color="#2c342e"/>
      <stop offset=".98" stop-color="#2e3731"/>
    </linearGradient>
    <linearGradient id="linear-gradient-8" x1="191.18" y1="106.1" x2="174.32" y2="112.59" xlink:href="#linear-gradient-7"/>
    <linearGradient id="linear-gradient-9" x1="176.53" y1="86.94" x2="184.17" y2="86.94" gradientUnits="userSpaceOnUse">
      <stop offset=".18" stop-color="#1a1819"/>
      <stop offset=".43" stop-color="#21312f"/>
      <stop offset=".66" stop-color="#26423d"/>
      <stop offset=".84" stop-color="#284843"/>
    </linearGradient>
    <linearGradient id="linear-gradient-10" x1="186.29" y1="94.2" x2="198.14" y2="94.2" gradientUnits="userSpaceOnUse">
      <stop offset=".28" stop-color="#5e5d4b"/>
      <stop offset=".52" stop-color="#62634b"/>
      <stop offset=".98" stop-color="#65664c"/>
    </linearGradient>
    <linearGradient id="linear-gradient-11" x1="180.97" y1="89.51" x2="188.23" y2="89.51" gradientUnits="userSpaceOnUse">
      <stop offset=".1" stop-color="#1e2223"/>
      <stop offset=".6" stop-color="#1e4c48"/>
      <stop offset=".98" stop-color="#1e6861"/>
    </linearGradient>
    <linearGradient id="linear-gradient-12" x1="304.48" y1="98.81" x2="294.03" y2="96.29" gradientUnits="userSpaceOnUse">
      <stop offset=".36" stop-color="#1e2223"/>
      <stop offset=".71" stop-color="#1e4c48"/>
      <stop offset=".98" stop-color="#1e6861"/>
    </linearGradient>
    <linearGradient id="linear-gradient-13" x1="289.04" y1="96.45" x2="291.94" y2="105.09" xlink:href="#linear-gradient-10"/>
    <linearGradient id="linear-gradient-14" x1="309.58" y1="97.92" x2="297.69" y2="90.57" gradientUnits="userSpaceOnUse">
      <stop offset=".28" stop-color="#1a1819"/>
      <stop offset=".49" stop-color="#21312f"/>
      <stop offset=".69" stop-color="#26423d"/>
      <stop offset=".84" stop-color="#284843"/>
    </linearGradient>
    <linearGradient id="linear-gradient-15" x1="225.21" y1="209.29" x2="264.52" y2="44.8" gradientUnits="userSpaceOnUse">
      <stop offset="0" stop-color="#050a07"/>
      <stop offset=".11" stop-color="#030604" stop-opacity=".65"/>
      <stop offset=".45" stop-color="#000" stop-opacity="0"/>
    </linearGradient>
  </defs>
  <g id="MATOAKA-dynamic">
    <g>
      <path class="cls-94" d="M184.17,237.85h-36.02v46.19h-36.6v-46.19H0v-26.14L100.22,80.7h40.38l-94.41,125.2h66.52v-40.96h35.44v40.96h36.02v31.95Z"/>
      <path class="cls-94" d="M453.82,237.85h-36.02v46.19h-36.6v-46.19h-111.54v-26.14l100.22-131.01h40.38l-94.41,125.2h66.52v-40.96h35.44v40.96h36.02v31.95Z"/>
      <g id="neck">
        <g id="neck-2" data-name="neck">
          <path class="cls-55" d="M261.34,231.09c-1.28,1.56-2.69,3.19-4.27,4.92-2.45,2.68-4.52,4.83-6.28,6.54-1.59,1.55-2.93,2.74-4.08,3.68l-8.14,8.28,14.94,3.91,7.85-27.33h0Z"/>
          <path class="cls-150" d="M210.89,241.35c-1.12-1.12-2.28-2.3-3.42-3.52-2.47-2.64-4.88-5.43-6.82-8.06h-.3s2.95,22.53,2.95,22.53l7.59-10.9v-.05Z"/>
          <polygon class="cls-20" points="203.3 252.29 218.29 277.36 215.44 258.88 203.3 252.29"/>
          <polygon class="cls-70" points="210.89 241.39 203.3 252.29 215.44 258.88 210.89 241.39"/>
          <polygon class="cls-85" points="218.29 277.36 229.89 284.04 228.3 272.14 215.44 258.88 218.29 277.36"/>
          <polygon class="cls-18" points="228.3 272.14 229.89 284.04 243.49 269.28 243.49 269.28 228.3 272.14"/>
          <polygon class="cls-67" points="228.3 272.14 243.49 269.28 238.56 254.52 228.3 272.14"/>
          <polygon class="cls-162" points="238.56 254.52 243.49 269.28 253.5 258.42 238.56 254.52"/>
          <path class="cls-52" d="M220.12,249.34c-.37-.18-.71-.38-1.02-.61-.99-.73-2.48-1.98-4.23-3.58-1.23-1.12-2.58-2.41-3.98-3.8v.05s4.55,17.48,4.55,17.48l15.67-8.15c-3.87.19-8.21-.01-10.99-1.39Z"/>
          <polygon class="cls-68" points="215.44 258.88 228.3 272.14 231.11 250.73 215.44 258.88"/>
          <path class="cls-61" d="M240.2,249.63c-.45.06-.86.11-1.29.19-1.17.23-4.1.7-7.44.88-.12,0-.23.01-.35.02l-2.82,21.41,10.26-17.62,8.14-8.28c-3.4,2.76-5.11,3.19-6.51,3.39Z"/>
        </g>
        <path id="shadow" class="cls-50" d="M261.34,231.09c-1.28,1.56-2.69,3.19-4.27,4.92-2.45,2.68-4.52,4.83-6.28,6.54-1.59,1.55-2.93,2.74-4.08,3.68-3.4,2.76-5.11,3.19-6.51,3.39-.45.06-.86.11-1.29.19-1.17.23-4.1.7-7.44.88-.12,0-.23.01-.35.02-3.87.19-8.21-.01-10.99-1.39-.37-.18-.71-.38-1.02-.61-.99-.73-2.48-1.98-4.23-3.58-1.23-1.12-2.58-2.41-3.98-3.8-1.12-1.12-2.28-2.3-3.42-3.52-2.47-2.64-4.88-5.43-6.82-8.06h-.3s2.95,22.53,2.95,22.53l14.99,25.07,11.61,6.68,13.6-14.76,10-10.85,7.85-27.33h0Z"/>
      </g>
      <g id="hair">
        <path d="M316.01,278.72c.99-.14,4.98-8.78-.96-13.78-5.95-5-21.89-1.59-26.12,0-2.27.85-9.88,1.99-19.08,2.89,4.26-2.81,5.17-7.11,4.58-10.91-1.01-6.46,4.6-17.59,7.79-27.12,8.01-11.51,5.57-24.61,4.6-27.62.05-.91.28-2.29.43-4.25-1.31-.04-2.59-.24-3.84-.66l1.06-2.89c1.38-4.86,2.45-14.89-8.56-22.45,0,0,0,0,0,0,0,0,0,0,0,0,0,0,.06,3.72,0,8.78-.09,7.43-.44,17.75-1.63,23.37-.52,2.46-1.04,4.82-1.76,7.22-1.31,4.37-3.27,8.88-7.08,14.37-2.15,3.1-4.3,5.48-4.11,5.43h0s-7.85,27.33-7.85,27.33l-9.99,10.84c-16.24-.28-25.95-8.37-35.95-18.21-5.47-5.38-8.98-17.18-11.48-30.5-1.24-4.58-3.42-11.84-4.63-20.16h0s0,0,0,0c-1.01-7.01-1.33-14.77.2-22.3,0-.01,0-.03,0-.04.77-3.78,1.95-7.48,3.32-10.97l.1-.24c.87-2.21,1.82-4.32,2.8-6.32,4.69-9.61,9.94-16.4,9.94-16.4,0,0-8.1,1.79-16.16,7.73-1.77,1.31-3.54,2.81-5.22,4.55-2.09,2.16-4.04,4.66-5.69,7.56-2.98,5.25-4.96,11.8-4.95,19.94-4.09,10.12-4.64,16.66-3.75,27.38.89,10.72.08,17.94-7.74,39.52-7.82,21.58-4.31,27.06,18.94,34.54,23.25,7.48,57.24,7.48,78.08,2.92,20.84-4.57,53.19,1.02,53.19,1.02l1.47,5.98s3.3,2.9,8.57-5.72c4.36-10.26-9.56-10.7-8.57-10.85Z"/>
      </g>
      <g id="face">
        <polygon class="cls-83" points="229.91 203.69 231.64 212.5 234.88 204.35 229.91 203.69"/>
        <polygon class="cls-73" points="231.64 212.5 220.08 209.43 227.51 218.96 231.64 212.5"/>
        <polygon class="cls-73" points="243.43 209.64 231.64 212.5 236.39 218.96 243.43 209.64"/>
        <path class="cls-44" d="M191.44,200.4c1.38,9.56,4.06,17.72,5.11,22.02.04.17.1.36.16.54l1.16-14.72-6.43-7.83Z"/>
        <polygon class="cls-4" points="246.7 170.46 253.46 167.86 242.8 168.37 246.7 170.46"/>
        <polygon class="cls-38" points="246.7 170.46 250.14 176.8 253.46 167.86 246.7 170.46"/>
        <path class="cls-10" d="M250.14,176.8c1.64-.89,3.76-1.57,6.5-1.78,0,0,1.28-.11,3.52.29,1.82.33,4.27.99,7.2,2.33l-13.89-9.78-3.32,8.94Z"/>
        <polygon class="cls-21" points="253.46 167.86 267.35 177.64 266.72 168.37 253.46 167.86"/>
        <polygon class="cls-135" points="267.35 177.64 275.92 180.7 266.72 168.37 267.35 177.64"/>
        <path class="cls-35" d="M275.93,171.92l-9.21-3.54,9.21,12.33c.06-5.06,0-8.78,0-8.78Z"/>
        <path class="cls-135" d="M191.65,178.06l7.03-2.46-3.71-8.51c-1.37,3.49-2.54,7.19-3.32,10.97Z"/>
        <polygon class="cls-21" points="194.97 167.09 198.68 175.6 211.56 167.86 194.97 167.09"/>
        <path class="cls-80" d="M194.97,167.09c.03-.08.07-.16.1-.24l-.4.23,16.17.76,11.81.54-11.08-.51-16.59-.78Z"/>
        <polygon class="cls-144" points="211.56 167.86 222.63 168.37 209.92 162.83 211.56 167.86"/>
        <path class="cls-80" d="M211.56,167.86l-9.45-5.03-7.04,4.01c-.03.08-.07.16-.1.24l16.59.78Z"/>
        <polygon class="cls-146" points="209.92 162.83 202.11 162.83 211.56 167.86 209.92 162.83"/>
        <polygon class="cls-15" points="223.81 179.77 229.11 180.55 229.85 173.42 222.63 168.37 218.46 171.28 223.81 179.77"/>
        <polygon class="cls-11" points="222.63 168.37 211.56 167.86 218.46 171.28 222.63 168.37"/>
        <polygon class="cls-59" points="221.2 182.18 226.95 183.27 229.11 180.55 223.81 179.77 221.2 182.18"/>
        <path class="cls-72" d="M218.46,171.28l-3.18,4.8c4.58,2.46,5.93,6.1,5.93,6.1l2.6-2.41-5.35-8.49Z"/>
        <polygon class="cls-38" points="218.46 171.28 211.56 167.86 215.27 176.08 218.46 171.28"/>
        <path class="cls-77" d="M195.06,166.84l7.04-4.01-4.24-2.31c-.97,2-1.93,4.11-2.8,6.32Z"/>
        <polygon class="cls-40" points="209.92 162.83 222.63 168.37 226.95 158.21 209.92 162.83"/>
        <polygon class="cls-129" points="197.86 160.52 202.11 162.83 209.92 162.83 209.17 154.71 197.86 160.52"/>
        <path class="cls-174" d="M197.86,160.52l11.31-5.81-1.36-10.59s-5.25,6.78-9.94,16.4Z"/>
        <polygon class="cls-65" points="209.17 154.71 209.92 162.83 226.95 158.21 209.17 154.71"/>
        <polygon class="cls-1" points="191.43 200.4 191.44 200.4 191.44 200.39 191.43 200.4"/>
        <polygon class="cls-123" points="235.56 174.21 235.99 170.14 232.07 167.07 228.9 170.61 229.85 173.42 233.54 176.8 235.56 174.21"/>
        <path class="cls-107" d="M191.65,178.06s0,.03,0,.04c-1.54,7.53-1.22,15.29-.2,22.3h0s2.47-10.69,2.47-10.69l-2.26-11.65Z"/>
        <polygon class="cls-74" points="202.72 192.52 193.91 189.7 191.44 200.39 202.72 192.52"/>
        <polygon class="cls-71" points="191.65 178.06 193.91 189.7 202.72 192.52 191.65 178.06"/>
        <path class="cls-10" d="M206.5,173.3c.97-.04,1.95-.05,2.91.07.55.07,1.08.19,1.62.31.6.13,1.22.27,1.77.55.37.19.7.45,1.03.7.47.36.94.72,1.42,1.08l-3.69-8.16-12.12,7.28c1.58-.49,3.09-1.25,4.72-1.58.77-.16,1.56-.22,2.34-.25Z"/>
        <polygon class="cls-81" points="191.65 178.06 192.86 179.64 198.68 175.6 191.65 178.06"/>
        <path class="cls-4" d="M229.91,184.24h.01s.02,0,.02,0c-.01,0-.02,0-.03,0Z"/>
        <polygon class="cls-4" points="235.69 184.24 235.69 184.24 235.69 184.24 235.69 184.24"/>
        <polygon class="cls-11" points="246.7 170.46 253.46 167.86 242.8 168.37 246.7 170.46"/>
        <polygon class="cls-146" points="251.37 164.2 253.46 167.86 264.54 163.55 251.37 164.2"/>
        <polygon class="cls-144" points="242.8 168.37 253.46 167.86 251.37 164.2 242.8 168.37"/>
        <polygon class="cls-144" points="264.54 163.55 266.72 168.37 275.93 171.92 264.54 163.55"/>
        <polygon class="cls-80" points="253.46 167.86 266.72 168.37 264.54 163.55 253.46 167.86"/>
        <path class="cls-59" d="M246.7,170.46l-3.39,10.09,1.62,2.13c.08-.18.18-.4.31-.66.71-1.4,2.26-3.8,4.89-5.22l-3.44-6.34Z"/>
        <path class="cls-122" d="M235.69,184.24c-.74.18-1.65.37-2.77.57l-.48,15.17,2.44,4.37,4.05-6.09-3.25-14.01h0Z"/>
        <path class="cls-99" d="M229.94,184.25h-.02s-3.88,14.65-3.88,14.65l3.87,4.79,2.53-3.7.48-15.17c-1.2-.18-2.18-.38-2.98-.57Z"/>
        <path class="cls-24" d="M226.04,198.89l3.88-14.65h-.01c-2.16-.52-2.96-.97-2.96-.97l-5,11.72,4.09,3.91Z"/>
        <path class="cls-24" d="M235.69,184.24l3.25,14.01,3.18-3.54-3.54-11.41s-.71.41-2.88.94h0Z"/>
        <path class="cls-5" d="M236.85,181.32l-3.93,1.98-3.81-2.75-2.16,2.72s.8.46,2.96.97c.01,0,.02,0,.03,0,.8.19,1.78.38,2.98.57,1.11-.2,2.02-.39,2.77-.57,0,0,0,0,0,0,2.17-.53,2.88-.94,2.88-.94l1.27-1.12-3-.86Z"/>
        <polygon class="cls-63" points="233.54 176.8 229.85 173.42 229.11 180.55 232.92 183.3 233.54 176.8"/>
        <polygon class="cls-88" points="236.85 181.32 235.56 174.21 233.54 176.8 232.92 183.3 236.85 181.32"/>
        <polygon class="cls-158" points="233.4 152.89 232.07 167.07 239.85 155.62 233.4 152.89"/>
        <polygon class="cls-119" points="239.85 155.62 232.07 167.07 242.8 168.37 243.31 162.16 239.85 155.62"/>
        <polygon class="cls-168" points="232.07 167.07 235.99 170.14 242.8 168.37 232.07 167.07"/>
        <polygon class="cls-153" points="242.8 168.37 235.99 170.14 235.56 174.21 242.8 168.37"/>
        <polygon class="cls-35" points="226.95 158.21 232.07 167.07 233.4 152.89 226.95 158.21"/>
        <polygon class="cls-58" points="222.63 168.37 232.07 167.07 226.95 158.21 222.63 168.37"/>
        <path class="cls-106" d="M233.12,144.88c-.62-.15-1.23-.29-1.83-.42l-4.33,13.75,6.45-5.31-.28-8.01Z"/>
        <polygon class="cls-47" points="232.07 167.07 222.63 168.37 228.9 170.61 232.07 167.07"/>
        <polygon class="cls-60" points="222.63 168.37 229.85 173.42 228.9 170.61 222.63 168.37"/>
        <path class="cls-172" d="M260.1,156.02c-3.68-2.14-8.36-4.27-15.16-7.24l6.9,6.84,8.27.4Z"/>
        <polygon class="cls-40" points="243.31 162.16 242.8 168.37 251.37 164.2 251.83 155.62 243.31 162.16"/>
        <polygon class="cls-129" points="239.85 155.62 243.31 162.16 251.83 155.62 239.85 155.62"/>
        <polygon class="cls-129" points="251.83 155.62 264.54 163.55 260.1 156.02 251.83 155.62"/>
        <polygon class="cls-65" points="251.37 164.2 264.54 163.55 251.83 155.62 251.37 164.2"/>
        <path class="cls-141" d="M260.1,156.02l4.44,7.53,11.39,8.37c-6.06-8.37-9.38-12.15-15.83-15.9Z"/>
        <polygon class="cls-174" points="244.94 148.78 239.85 155.62 251.83 155.62 244.94 148.78"/>
        <polygon class="cls-59" points="236.85 181.32 239.85 182.18 243.31 180.55 240.16 178.45 236.85 181.32"/>
        <polygon class="cls-15" points="242.8 168.37 235.56 174.21 236.85 181.32 240.16 178.45 242.8 168.37"/>
        <polygon class="cls-72" points="242.8 168.37 240.16 178.45 243.31 180.55 246.7 170.46 242.8 168.37"/>
        <path class="cls-9" d="M267.38,177.65c-.07.19-.21.36-.37.48-.3.23-.66.34-1,.49-.55.25-1.03.64-1.55.95-.55.33-1.15.57-1.75.78-1.28.45-2.61.74-3.95.95l3.09,2.18,6.88-5.36-1.34-.48Z"/>
        <path class="cls-19" d="M258.5,181.35l-4.39,3.47,7.73-1.32-3.09-2.18c-.08.01-.17.03-.25.04Z"/>
        <path class="cls-125" d="M258.5,181.35c-.92.14-1.84.24-2.77.32-1.31.12-2.63.2-3.93.05-.69-.08-1.37-.22-2.06-.29-.27-.03-.54-.04-.81-.04-1.18.21-2.38.51-3.34,1.22-.07.05-.14.12-.21.18l8.73,2.03,4.39-3.47Z"/>
        <path class="cls-19" d="M210.6,180.76l-5.17,3.04,7.1.44-.42-3.63c-.5.05-1.01.1-1.51.14Z"/>
        <path class="cls-125" d="M219.73,181.76c-1.41-1.07-3.27-1.37-5.05-1.34-.86.02-1.72.1-2.57.19l.42,3.63,7.49-1.78c.05-.07.08-.17.06-.26-.04-.19-.19-.33-.35-.45Z"/>
        <path class="cls-9" d="M209.38,180.83c-2.11.05-4.24-.32-6.2-1.11-.48-.19-.96-.41-1.38-.71-.52-.37-.95-.86-1.37-1.34-.04-.03-.08-.06-.12-.09l5.13,6.22,5.17-3.04c-.41.03-.81.06-1.22.07Z"/>
        <polygon class="cls-9" points="210.6 180.76 205.43 183.8 210.6 180.76 210.6 180.76"/>
        <path class="cls-154" d="M275.92,180.7l-5.04,13.6,1.65,16.99c.72-2.4,1.24-4.76,1.76-7.22,1.19-5.62,1.54-15.94,1.63-23.37Z"/>
        <polygon class="cls-104" points="275.92 180.7 260.43 192.82 270.88 194.3 275.92 180.7"/>
        <path class="cls-48" d="M199.01,175.99c-.11-.13-.22-.27-.33-.4l-5.82,4.05,12.57,4.16-6.43-7.81Z"/>
        <polygon class="cls-143" points="192.86 179.64 202.72 192.52 205.43 183.8 192.86 179.64"/>
        <polygon class="cls-156" points="260.43 192.82 264.63 206.93 270.88 194.3 260.43 192.82"/>
        <polygon class="cls-17" points="270.88 194.3 264.63 206.93 272.53 211.29 270.88 194.3"/>
        <polygon class="cls-103" points="260.43 192.82 242.12 194.71 264.63 206.93 260.43 192.82"/>
        <path class="cls-66" d="M258.7,213.29l6.75,12.37c3.81-5.49,5.77-10,7.08-14.37l-13.83,2Z"/>
        <polygon class="cls-74" points="242.12 194.71 258.7 213.29 264.63 206.93 242.12 194.71"/>
        <polygon class="cls-97" points="264.63 206.93 258.7 213.29 272.53 211.29 264.63 206.93"/>
        <polygon class="cls-170" points="197.86 208.23 196.7 222.96 206.08 208.59 197.86 208.23"/>
        <polygon class="cls-103" points="206.08 208.59 221.95 194.99 202.72 192.52 206.08 208.59"/>
        <polygon class="cls-149" points="202.72 192.52 221.95 194.99 226.95 183.27 202.72 192.52"/>
        <polygon class="cls-71" points="254.11 184.81 260.43 192.82 261.84 183.49 254.11 184.81"/>
        <polygon class="cls-44" points="243.31 180.55 239.85 182.18 238.57 183.3 244.94 182.68 243.31 180.55"/>
        <polygon class="cls-19" points="254.11 184.81 244.94 182.68 248.21 187.5 254.11 184.81"/>
        <polygon class="cls-129" points="244.94 182.68 238.57 183.3 248.21 187.5 248.21 187.5 244.94 182.68"/>
        <polygon class="cls-143" points="254.11 184.81 248.21 187.5 248.21 187.5 248.21 187.5 260.43 192.82 254.11 184.81"/>
        <polygon class="cls-44" points="238.57 183.3 242.12 194.71 248.21 187.5 238.57 183.3"/>
        <polygon class="cls-149" points="248.21 187.5 242.12 194.71 260.43 192.82 248.21 187.5"/>
        <polygon class="cls-44" points="221.2 182.18 212.53 184.24 226.95 183.27 221.2 182.18"/>
        <polygon class="cls-148" points="205.43 183.8 202.72 192.52 212.53 184.24 205.43 183.8"/>
        <polygon class="cls-163" points="212.53 184.24 202.72 192.52 226.95 183.27 212.53 184.24"/>
        <polygon class="cls-156" points="202.72 192.52 197.86 208.23 206.08 208.59 202.72 192.52"/>
        <polygon class="cls-104" points="191.44 200.39 191.44 200.4 197.86 208.23 202.72 192.52 191.44 200.39"/>
        <polygon class="cls-81" points="275.92 180.7 268.72 178.13 273.4 182.67 275.92 180.7"/>
        <polygon class="cls-74" points="260.43 192.82 273.4 182.67 261.84 183.49 260.43 192.82"/>
        <polygon class="cls-48" points="268.72 178.13 261.84 183.49 273.4 182.67 273.4 182.67 268.72 178.13"/>
        <path class="cls-141" d="M242.12,147.55c-3.23-1.13-6.22-1.99-9-2.66l.28,8.01,11.54-4.12c-.91-.4-1.84-.8-2.82-1.23Z"/>
        <polygon class="cls-157" points="233.4 152.89 239.85 155.62 244.94 148.78 233.4 152.89"/>
        <path class="cls-151" d="M216.28,150.36l6.38-7.25c-9.83-.9-14.85,1.02-14.85,1.02l8.47,6.23h0Z"/>
        <polygon class="cls-172" points="209.17 154.71 226.95 158.21 216.28 150.36 209.17 154.71"/>
        <polygon class="cls-129" points="207.81 144.12 209.17 154.71 216.28 150.36 207.81 144.12"/>
        <polygon class="cls-145" points="216.28 150.36 216.28 150.36 226.95 158.21 222.66 143.11 216.28 150.36"/>
        <path class="cls-39" d="M222.66,143.11l4.29,15.1,4.33-13.75c-3.2-.7-6.07-1.12-8.63-1.35Z"/>
        <path class="cls-1" d="M212.86,224.1c.11.05.26.08.41.1-.26-.06-.41-.1-.41-.1Z"/>
        <path class="cls-1" d="M212.86,224.1c.1.04.23.07.37.09-.23-.06-.37-.09-.37-.09Z"/>
        <path class="cls-3" d="M236.39,218.96l-4.29,1.7h-.3l-4.29-1.7s-11.04,5.64-14.24,5.24c1.79.4,9.07,1.78,14.1-.75,2.98.32,4.81,1.82,10.72,0,0,0,9.76,1.91,12.94.66-2.52,1.06-14.65-5.14-14.65-5.14Z"/>
        <path class="cls-3" d="M213.23,224.19c-.14-.02-.27-.05-.37-.09,0,0,11.14,9.88,18.94,9.6h.3c7.8.27,18.94-9.6,18.94-9.6-3.54,1.48-7.31,1.41-7.31,1.41-9.17-1.19-22.21.02-23.08.15"/>
        <path class="cls-1" d="M236.39,218.96l-4.29,1.7h-.3l-4.29-1.7s-11.04,5.64-14.24,5.24c-.01,0-.02,0-.04,0-.14-.02-.27-.05-.37-.09,0,0,11.14,9.88,18.94,9.6h.3c7.8.27,18.94-9.6,18.94-9.6-2.52,1.06-14.65-5.14-14.65-5.14Z"/>
        <polygon class="cls-139" points="220.08 209.43 231.64 212.5 224.15 206.44 220.08 209.43"/>
        <polygon class="cls-139" points="231.64 212.5 243.43 209.64 238.11 206.93 231.64 212.5"/>
        <path class="cls-1" d="M231.8,220.66l-4.29-1.7s-11.04,5.64-14.24,5.24c-.01,0-.02,0-.04,0-.14-.02-.27-.05-.37-.09,0,0,11.14,9.88,18.94,9.6h.3c7.8.27,18.94-9.6,18.94-9.6-2.52,1.06-14.65-5.14-14.65-5.14l-4.29,1.7h-.3Z"/>
        <path class="cls-1" d="M213.27,224.2s-.02,0-.04,0c-.14-.02-.27-.05-.37-.09,0,0,11.14,9.88,18.94,9.6h.3c7.8.27,18.94-9.6,18.94-9.6-2.52,1.06-14.65-5.14-14.65-5.14l-4.75-6.46-4.13,6.46s-11.04,5.64-14.24,5.24Z"/>
        <polygon class="cls-128" points="232.1 220.66 236.39 218.96 231.64 212.5 227.51 218.96 231.8 220.66 232.1 220.66"/>
        <polygon class="cls-161" points="232.44 199.98 229.91 203.69 234.88 204.35 232.44 199.98"/>
        <polygon class="cls-24" points="234.88 204.35 231.64 212.5 238.11 206.93 234.88 204.35"/>
        <polygon class="cls-36" points="224.15 206.44 231.64 212.5 229.91 203.69 224.15 206.44"/>
        <polygon class="cls-128" points="242.12 194.71 238.94 198.26 245.38 204.35 242.12 194.71"/>
        <polygon class="cls-91" points="238.94 198.26 234.88 204.35 238.11 206.93 245.38 204.35 238.94 198.26"/>
        <polygon class="cls-33" points="238.11 206.93 243.43 209.64 245.38 204.35 238.11 206.93"/>
        <polygon class="cls-128" points="221.95 194.99 219.52 202.79 226.04 198.89 221.95 194.99"/>
        <polygon class="cls-33" points="220.08 209.43 224.15 206.44 219.52 202.79 220.08 209.43"/>
        <polygon class="cls-91" points="226.04 198.89 219.52 202.79 224.15 206.44 229.91 203.69 226.04 198.89"/>
        <polygon class="cls-104" points="220.08 209.43 219.52 202.79 214.15 212.5 220.08 209.43"/>
        <polygon class="cls-156" points="219.52 202.79 221.95 194.99 206.08 208.59 214.15 212.5 214.15 212.5 219.52 202.79"/>
        <polygon class="cls-161" points="220.08 209.43 214.15 212.5 214.15 212.5 227.51 218.96 220.08 209.43"/>
        <polygon class="cls-161" points="236.39 218.96 249.52 215.62 243.43 209.64 236.39 218.96"/>
        <polygon class="cls-104" points="243.43 209.64 249.52 215.62 245.38 204.35 243.43 209.64"/>
        <polygon class="cls-156" points="242.12 194.71 245.38 204.35 249.52 215.62 258.7 213.29 242.12 194.71"/>
        <path class="cls-74" d="M220.09,249.36c2.77,1.37,7.12,1.58,10.99,1.39.12,0,.24-.01.35-.02l2-7.42-13.34,6.05Z"/>
        <path class="cls-119" d="M233.42,243.31l-2,7.42c3.34-.19,6.27-.65,7.44-.88.43-.09.84-.13,1.29-.19h0l-6.74-6.34Z"/>
        <polygon class="cls-156" points="230.86 236.57 220.09 249.36 233.42 243.31 230.86 236.57"/>
        <path class="cls-1" d="M212.86,224.1s.12.1.33.28l.08-.19s-.02,0-.04,0c-.14-.02-.27-.05-.37-.09Z"/>
        <path class="cls-79" d="M207.43,237.85l5.76-13.47-16.49-1.43c1.24,3.91,5.88,9.72,10.73,14.9Z"/>
        <path class="cls-1" d="M213.19,224.39l-.1-.22c-.08-.02-.16-.04-.23-.06,0,0,.12.1.33.28Z"/>
        <path class="cls-156" d="M196.7,222.96l16.49,1.43c-.21-.18-.33-.28-.33-.28.07.03.15.05.23.06l-7.01-15.57-9.38,14.36Z"/>
        <path class="cls-32" d="M206.08,208.59l7.01,15.57s.09.02.14.03c.01,0,.03,0,.04,0,7.56,9.51,16.9-4.72,16.9-4.72l-24.09-10.88Z"/>
        <polygon class="cls-74" points="220.09 249.36 230.86 236.57 221.84 241.41 220.09 249.36"/>
        <path class="cls-143" d="M214.83,245.18c1.75,1.6,3.24,2.86,4.23,3.58.31.22.65.43,1.02.61l1.75-7.95-7,3.76Z"/>
        <path class="cls-74" d="M221.84,241.41l-14.41-3.56c2.57,2.74,5.19,5.31,7.4,7.32l7-3.76h0Z"/>
        <polygon class="cls-123" points="207.43 237.85 221.84 241.41 219 234.2 207.43 237.85"/>
        <polygon class="cls-156" points="221.84 241.41 221.84 241.41 230.86 236.57 219 234.2 221.84 241.41"/>
        <polygon class="cls-135" points="207.43 237.85 219 234.2 213.19 224.39 207.43 237.85"/>
        <polygon class="cls-163" points="219 234.2 230.86 236.57 223.2 231.23 219 234.2"/>
        <path class="cls-143" d="M232.1,233.71h-.3c-2.36.08-5.02-.76-7.59-1.98-5.07-2.41-9.77-6.27-11.02-7.34l5.81,9.81,4.2-2.97,7.65,5.34,1.45-2.86h0c-.07,0-.14,0-.21,0Z"/>
        <path class="cls-31" d="M236.39,218.96s12.13,6.2,14.65,5.14l7.66-10.81-22.31,5.67Z"/>
        <polygon class="cls-104" points="258.7 213.29 251.03 224.1 265.45 225.66 258.7 213.29"/>
        <path class="cls-154" d="M251.03,224.1l6,11.94c3.54-3.88,6.27-7.28,8.41-10.38l-14.42-1.56Z"/>
        <polygon class="cls-135" points="233.42 243.31 240.16 249.65 244.94 238.9 233.42 243.31"/>
        <path class="cls-72" d="M240.16,249.65c1.87-.27,4.3-.95,10.59-7.07l-5.81-3.69-4.78,10.76Z"/>
        <path class="cls-139" d="M244.94,238.9l5.81,3.69c1.77-1.72,3.84-3.86,6.28-6.54l-12.1,2.86Z"/>
        <polygon class="cls-126" points="251.03 224.1 244.94 238.9 257.03 236.04 251.03 224.1"/>
        <polygon class="cls-139" points="233.42 243.31 244.94 238.9 230.86 236.57 233.42 243.31"/>
        <path class="cls-44" d="M251.03,224.1s-15.35-2.2-23.14-2.29l4.41,11.9-1.45,2.86,11.94-2.86,8.24-9.61Z"/>
        <polygon class="cls-154" points="230.86 236.57 244.94 238.9 242.8 233.71 230.86 236.57"/>
        <polygon class="cls-123" points="242.8 233.71 244.94 238.9 251.03 224.1 242.8 233.71"/>
        <path class="cls-1" d="M283.42,197.26s.55-1.09,1.06-2.89l-1.06,2.89Z"/>
        <path class="cls-75" d="M216.1,224.56c1.44.35,4,2.25,4.73,2.39,3.14.61,19.52-.77,22.9-1.43,0,0,3.76.07,7.31-1.41-3.18,1.25-13.5-2.06-13.5-2.06-5.9,1.82-7.31.09-10.29-.23"/>
      </g>
      <g id="eyes">
        <path class="cls-46" d="M208.41,175.73c.02.36.24.69.52.92s.62.37.95.51c.35.14.72.28,1.1.3.38.02.79-.11,1.02-.42.16-.22.22-.49.34-.73.15-.3.39-.54.68-.7-1.62-.61-3.1-.84-4.29-.9-.07.12-.14.25-.19.38-.08.2-.14.42-.12.64Z"/>
        <path class="cls-57" d="M214.68,176.33c-.03.13-.07.26-.12.39-.34.93-.91,1.82-1.78,2.27-.35.18-.73.29-1.11.39-.41.11-.81.22-1.23.25-.36.03-.72,0-1.07-.06-.62-.09-1.25-.26-1.71-.67-.15-.14-.29-.3-.42-.46-.22-.27-.45-.56-.54-.9-.08-.29-.06-.61,0-.9.13-.71.48-1.38,1-1.89.02-.02.04-.03.06-.05-.68.02-1.22.09-1.56.15-.47.53-.75,1.15-.75,1.82,0,1.37,1.15,2.55,2.82,3.11.02,0,.03,0,.05,0,1.4.05,2.63.09,3.72.14,1.91-.47,3.29-1.72,3.32-3.21-.22-.13-.45-.26-.67-.38Z"/>
        <path class="cls-54" d="M215.27,176.08c-.17-.09-.35-.18-.53-.27-.33-.16-.68-.32-1.04-.46-1.27-.52-2.74-.94-4.44-1.2-.02,0-.03,0-.05,0-.18-.03-.35-.05-.52-.07-.46-.06-.92-.1-1.38-.12-.45.25-.83.55-1.13.89.35-.06.89-.13,1.56-.15.3,0,.62-.01.98,0,1.19.05,2.67.29,4.29.9.54.2,1.09.44,1.66.73.22.11.45.25.67.38,0-.02,0-.03,0-.05,0-.2-.03-.39-.08-.58Z"/>
        <path class="cls-1" d="M198.68,175.6c.1.13.21.26.33.4l-.33-.4Z"/>
        <path class="cls-167" d="M199.13,175.46c-.15.04-.29.09-.45.13.53.67,1.2,1.39,2.11,2.03,1.58,1.11,3.88,2.01,7.46,2.14-.33-.11-.64-.25-.93-.41-5.16.06-7.46-2.72-8.2-3.89Z"/>
        <path class="cls-81" d="M201.63,174.76c-.8.21-1.63.45-2.51.7.17.26.41.61.75.98.1-.35.46-1.06,1.76-1.69Z"/>
        <path class="cls-54" d="M200.8,176.24c.24-.6.78-1.08,1.4-1.25.29-.08.59-.1.89-.11.99-.05,2-.08,2.96.13.32-.4.75-.76,1.26-1.04-1.87-.05-3.69.28-5.68.8-1.29.63-1.66,1.34-1.76,1.69.23.25.5.52.81.78-.07-.33-.02-.68.11-.99Z"/>
        <path class="cls-82" d="M205.43,176.66c0-.6.23-1.17.62-1.66-.96-.2-1.98-.18-2.96-.13-.3.02-.6.03-.89.11-.63.17-1.16.65-1.4,1.25-.13.31-.17.66-.11.99,1.31,1.1,3.41,2.17,6.64,2.13-1.15-.63-1.89-1.6-1.89-2.7ZM201.18,177.19c-.05-.23-.01-.48.07-.7.17-.42.55-.76.98-.88.2-.06.42-.07.63-.08.69-.04,1.4-.05,2.08.09-.28.35-.44.74-.44,1.16,0,.77.52,1.45,1.33,1.89-2.26.03-3.74-.73-4.65-1.49Z"/>
        <path class="cls-37" d="M204.5,176.79c0-.42.16-.82.44-1.16-.68-.14-1.39-.12-2.08-.09-.21.01-.42.02-.63.08-.44.12-.81.45-.98.88-.09.22-.12.46-.07.7.92.77,2.39,1.52,4.65,1.49-.8-.44-1.33-1.12-1.33-1.89ZM202.03,177.16c-.03-.15,0-.3.05-.44.11-.27.34-.48.62-.55.13-.04.26-.04.4-.05.44-.02.89-.03,1.31.06-.17.22-.28.47-.28.74,0,.49.33.91.84,1.19-1.43.02-2.36-.46-2.94-.94Z"/>
        <path class="cls-43" d="M204.13,176.91c0-.27.1-.52.28-.74-.43-.09-.87-.08-1.31-.06-.13,0-.27.01-.4.05-.28.08-.51.29-.62.55-.06.14-.08.29-.05.44.58.48,1.51.96,2.94.94-.51-.28-.84-.71-.84-1.19Z"/>
        <path class="cls-135" d="M213.83,174.94c-.33-.25-.66-.51-1.03-.7-.55-.28-1.16-.42-1.77-.55-.54-.12-1.08-.24-1.62-.31-.96-.13-1.94-.12-2.91-.07-.78.04-1.57.09-2.34.25-1.63.33-3.14,1.09-4.72,1.58l-.76.46c3.25-.96,5.88-1.71,8.64-1.64.62.02,1.25.08,1.9.18,2.47.36,4.46,1.08,6.06,1.94l-.03-.06c-.47-.36-.94-.72-1.42-1.08Z"/>
        <polygon class="cls-135" points="192.86 179.64 192.86 179.64 191.65 178.06 192.86 179.64"/>
        <path class="cls-54" d="M208.31,179.77s-.03,0-.05,0c-5.26-.19-7.77-2.05-9.25-3.78l1.3,1.58c.63.51,1.27,1,1.94,1.47.31.21.62.42.96.57.35.15.72.23,1.09.3,1.62.31,3.27.46,4.92.44.37,0,.74-.02,1.1-.06.51-.07,1.03-.21,1.54-.28l.17-.1c-1.09-.05-2.32-.09-3.72-.14Z"/>
        <path class="cls-57" d="M219.5,179.48c0,.06.02.12.03.19,0,.11,0,.23-.07.32-.11.17-.34.19-.54.19-.59,0-1.17-.03-1.75-.12-1.04-.16-2.06-.47-3.11-.42-.26.01-.52.05-.78.08-.34.04-.68.09-1.02.13-.08.02-.15.04-.23.06,6.29.28,7.9.68,9.17,2.27,0,0-.45-1.21-1.71-2.7Z"/>
        <path class="cls-82" d="M218.46,179.71c-.04-.26-.21-.48-.37-.69-.46-.57-.95-1.11-1.53-1.56-.37-.29-.78-.53-1.22-.71-.03,1.03-.72,1.94-1.77,2.56,1.04-.4,1.75-1.15,1.78-2.03.3.12.59.29.84.49.4.31.74.69,1.06,1.08.12.14.23.29.26.48.02.11-.02.23-.1.32-.27-.01-.54-.03-.81-.07-.72-.11-1.43-.33-2.15-.29-.18,0-.36.03-.54.06-.17.02-.35.05-.52.07-.35.18-.73.34-1.13.45.34-.04.68-.09,1.02-.13.26-.03.52-.07.78-.08,1.05-.05,2.07.26,3.11.42.39.06.77.09,1.16.11.1-.12.16-.29.14-.46Z"/>
        <path class="cls-147" d="M214.46,179.27c.73-.03,1.44.18,2.15.29.27.04.54.06.81.07.07-.08.11-.2.1-.32-.03-.18-.14-.33-.26-.48-.32-.39-.66-.77-1.06-1.08-.26-.2-.54-.37-.84-.49-.03.88-.74,1.63-1.78,2.03-.06.03-.12.07-.18.1.17-.02.35-.05.52-.07.18-.02.36-.05.54-.06Z"/>
        <path class="cls-81" d="M219.5,179.48c-.92-1.1-2.28-2.35-4.22-3.4.05.19.08.38.08.58,0,.03,0,.05,0,.08.44.18.85.42,1.22.71.57.45,1.06,1,1.53,1.56.17.2.34.43.37.69.02.16-.03.34-.14.46.2,0,.39.02.59.02.2,0,.43-.03.54-.19.06-.09.07-.21.07-.32,0-.06-.02-.12-.03-.19Z"/>
        <path class="cls-57" d="M250.62,180.46c-1.15.02-2.3.09-3.44.18-.15.01-.35,0-.4-.15-.02-.06,0-.12,0-.18.06-.29.12-.58.18-.88-.79.94-1.35,1.88-1.71,2.58,1.36-1.08,4.59-1.34,7.87-1.32,0,0-.01,0-.02,0-.8-.23-1.64-.25-2.48-.23Z"/>
        <path class="cls-1" d="M250.92,179.28s.01.01.02.02c0,0-.01-.01-.02-.02Z"/>
        <path class="cls-1" d="M250.11,177.54s0-.05,0-.08c0,0,0,0,0,0,0,.03,0,.05,0,.08Z"/>
        <path class="cls-1" d="M251.14,179.52s0,0,0,0c0,0,0,0,0,0Z"/>
        <path class="cls-1" d="M250.72,179.04s.02.02.03.04c0-.01-.02-.02-.03-.04Z"/>
        <path class="cls-1" d="M250.13,177.63c0,.06.02.12.03.18-.01-.06-.02-.12-.03-.18Z"/>
        <path class="cls-1" d="M250.28,178.24s.02.07.04.1c-.01-.03-.02-.07-.04-.1Z"/>
        <path class="cls-1" d="M250.19,177.94s.02.09.03.14c-.01-.04-.02-.09-.03-.14Z"/>
        <path class="cls-1" d="M250.55,178.78s.02.04.03.06c-.01-.02-.02-.04-.03-.06Z"/>
        <path class="cls-1" d="M250.4,178.51s.02.05.04.08c-.01-.03-.02-.05-.04-.08Z"/>
        <path class="cls-1" d="M250.11,177.45s0,0,0,0c0-.07-.01-.13-.01-.2,0,.07,0,.13.01.2Z"/>
        <path class="cls-54" d="M260.16,175.31c-2.24-.4-3.52-.29-3.52-.29-2.74.21-4.86.9-6.5,1.78-1.33.72-2.37,1.68-3.18,2.64l-.09.44c.91-.79,1.87-1.53,2.88-2.2.12-.08.24-.16.36-.23,0-.07-.01-.13-.01-.2,0,.07,0,.13.01.2.44-.28.9-.54,1.38-.75.7-.31,1.44-.5,2.19-.64,2.3-.42,4.67-.29,6.98.08.05,0,.1.01.15.02,2.09.34,4.15.86,6.22,1.34-2.78-1.24-5.12-1.88-6.87-2.19Z"/>
        <path class="cls-43" d="M250.22,178.08c.02.05.04.11.06.16-.02-.05-.04-.11-.06-.16Z"/>
        <path class="cls-43" d="M250.11,177.54s.01.06.01.1c0-.03-.01-.06-.01-.1Z"/>
        <path class="cls-43" d="M250.15,177.81s.02.09.03.13c-.01-.04-.02-.09-.03-.13Z"/>
        <path class="cls-43" d="M250.32,178.34c.02.06.05.12.08.17-.03-.06-.06-.12-.08-.17Z"/>
        <path class="cls-43" d="M251.14,179.52c.51.49,1.18.9,1.96,1.17h0c-.78-.28-1.45-.68-1.96-1.17Z"/>
        <path class="cls-43" d="M250.44,178.59c.03.06.07.13.11.19-.04-.06-.08-.13-.11-.19Z"/>
        <path class="cls-43" d="M250.93,179.3c.06.07.13.14.2.21-.07-.07-.14-.14-.2-.21Z"/>
        <path class="cls-43" d="M250.74,179.08c.05.07.11.14.17.21-.06-.07-.12-.14-.17-.21Z"/>
        <path class="cls-43" d="M250.58,178.84c.04.07.09.13.14.2-.05-.07-.1-.13-.14-.2Z"/>
        <path class="cls-127" d="M248.05,180.24c-.12-.06-.22-.14-.31-.24-.03-.03-.07-.07-.08-.12-.02-.06,0-.12.01-.18.09-.33.27-.63.5-.88-.44.34-.87.69-1.29,1.06-.03.15-.06.29-.09.44-.01.06-.02.12,0,.18.05.15.25.16.4.15.78-.07,1.56-.11,2.34-.14-.38-.03-.75-.09-1.12-.16-.12-.02-.24-.05-.35-.1Z"/>
        <path class="cls-82" d="M251.14,179.52s0,0,0,0c-.07-.07-.14-.14-.2-.21,0,0-.01-.01-.02-.02-.06-.07-.12-.14-.17-.21,0-.01-.02-.02-.03-.04-.05-.07-.1-.13-.14-.2-.01-.02-.02-.04-.03-.06-.04-.06-.08-.13-.11-.19-.01-.03-.02-.05-.04-.08-.03-.06-.06-.12-.08-.17-.01-.03-.02-.07-.04-.1-.02-.05-.04-.11-.06-.16-.01-.04-.02-.09-.03-.14-.01-.04-.02-.09-.03-.13-.01-.06-.02-.12-.03-.18,0-.03-.01-.06-.01-.1,0-.03,0-.05,0-.08-.12.08-.24.15-.36.23-.54.36-1.07.74-1.59,1.14-.23.25-.41.55-.5.88-.02.06-.03.12-.01.18.01.05.05.08.08.12.09.09.2.18.31.24.11.05.23.08.35.1.37.07.74.13,1.12.16.37-.02.74-.03,1.1-.04.83-.02,1.68,0,2.48.23-.78-.28-1.45-.68-1.96-1.17ZM250.39,180.14c-.27,0-.54.02-.81.03-.27-.02-.55-.06-.82-.12-.09-.02-.18-.04-.26-.07-.09-.04-.16-.11-.23-.17-.03-.03-.05-.05-.06-.09-.01-.04,0-.09,0-.13.07-.24.2-.46.37-.64.38-.29.76-.57,1.16-.83.09-.06.17-.11.26-.17,0,.02,0,.04,0,.06,0,.02,0,.05.01.07,0,.04.01.09.02.13,0,.03.02.07.02.1,0,.03.02.07.03.1.01.04.03.08.04.12,0,.02.02.05.03.07.02.04.04.09.06.13,0,.02.02.04.03.06.02.05.05.09.08.14,0,.01.02.03.02.04.03.05.07.1.1.15,0,0,.01.02.02.03.04.05.08.1.13.15,0,0,0,0,.01.01.05.05.1.1.15.15,0,0,0,0,0,0,.37.36.86.66,1.43.86-.58-.17-1.2-.18-1.81-.17Z"/>
        <path class="cls-43" d="M250.77,179.45s0,0,0,0c-.05-.05-.1-.1-.15-.15,0,0,0,0-.01-.01-.04-.05-.09-.1-.13-.15,0,0-.01-.02-.02-.03-.04-.05-.07-.1-.1-.15,0-.01-.02-.03-.02-.04-.03-.05-.06-.09-.08-.14-.01-.02-.02-.04-.03-.06-.02-.04-.04-.08-.06-.13-.01-.02-.02-.05-.03-.07-.01-.04-.03-.08-.04-.12-.01-.03-.02-.07-.03-.1,0-.03-.02-.06-.02-.1,0-.04-.01-.09-.02-.13,0-.02,0-.05-.01-.07,0-.02,0-.04,0-.06-.09.06-.18.11-.26.17-.4.26-.78.54-1.16.83-.17.18-.3.4-.37.64-.01.04-.02.09,0,.13.01.03.04.06.06.09.07.07.14.13.23.17.08.04.17.06.26.07.27.05.54.09.82.12.27-.01.54-.02.81-.03.61-.01,1.23,0,1.81.17-.57-.2-1.06-.5-1.43-.86Z"/>
        <path class="cls-167" d="M267.35,177.64c-.11-.05-.21-.09-.32-.14-.41-.1-.82-.19-1.23-.29.03.02.07.04.09.07.1.12.07.3-.02.42-.09.12-.22.2-.36.27-1.13.58-2.39.86-3.63,1.14-.71.16-1.41.32-2.12.48-.31.29-.67.54-1.08.76,4.65-.86,7.23-1.88,8.66-2.7Z"/>
        <path class="cls-37" d="M264.27,177.34c-1.17-.48-2.37-.86-3.59-1.16.14.34.23.7.23,1.08,0,.56-.17,1.09-.48,1.57,1.11.03,2.25.05,3.28-.37.3-.12.6-.28.82-.53.05-.06.1-.13.11-.2.02-.19-.19-.31-.36-.39ZM263.66,177.75c-.12.14-.29.23-.46.3-.59.23-1.24.23-1.87.21.17-.27.27-.57.27-.89,0-.21-.05-.42-.13-.61.7.17,1.38.39,2.04.66.1.04.22.11.21.22,0,.04-.03.08-.06.12Z"/>
        <path class="cls-147" d="M263.52,177.41c-.66-.27-1.35-.49-2.04-.66.08.19.13.4.13.61,0,.32-.1.62-.27.89.63.02,1.28.03,1.87-.21.17-.07.34-.16.46-.3.03-.03.06-.07.06-.12.01-.11-.11-.18-.21-.22Z"/>
        <path class="cls-81" d="M265.9,177.28s-.06-.05-.09-.07c-1.66-.39-3.31-.78-4.99-1.05-.05,0-.1-.01-.15-.02,0,.01,0,.03.01.04,1.22.3,2.43.68,3.59,1.16.18.07.38.2.36.39,0,.08-.06.15-.11.2-.22.25-.51.41-.82.53-1.03.41-2.17.4-3.28.37-.18.27-.39.53-.65.77.71-.16,1.41-.32,2.12-.48,1.24-.28,2.5-.57,3.63-1.14.13-.07.27-.14.36-.27.09-.12.11-.3.02-.42Z"/>
        <path class="cls-1" d="M252.6,175.61c-.18.25-.31.53-.42.83.33-.11.68-.2,1.02-.28-.18-.21-.38-.4-.6-.55Z"/>
        <path class="cls-46" d="M254.54,178.08c.34.25.79.3,1.2.24.41-.06.8-.23,1.19-.4.17-.07.35-.16.43-.32.05-.1.06-.22.06-.33.01-.37,0-.75-.05-1.12-.01-.11-.03-.23-.04-.34-1.22-.04-2.45.03-3.65.25-.16.03-.32.06-.48.1.25.29.45.61.63.94.19.36.38.74.7.98Z"/>
        <path class="cls-57" d="M260.66,176.14c-.39-.06-.79-.11-1.19-.16.1.32.18.64.25.97.08.42.12.86,0,1.27-.16.5-.56.89-1.02,1.14-.46.24-.98.35-1.5.43-1.63.25-3.45.17-4.71-.88-.29-.25-.56-.56-.63-.94-.06-.33.04-.66.14-.98.06-.18.12-.37.19-.55-.23.08-.47.16-.69.26-.48.21-.94.47-1.38.75,0,.03,0,.05,0,.08,0,.03.01.06.01.1,0,.06.02.12.03.18,0,.04.02.09.03.13.01.05.02.09.03.14.02.05.04.11.06.16.01.03.02.07.04.1.02.06.05.12.08.17.01.03.02.05.04.08.03.06.07.13.11.19.01.02.02.04.03.06.04.07.09.13.14.2,0,.01.02.02.03.04.05.07.11.14.17.21,0,0,.01.01.02.02.06.07.13.14.2.21,0,0,0,0,0,0,.51.49,1.18.9,1.96,1.17h0s.01,0,.02,0c1.45,0,2.96,0,4.43-.15.4-.07.78-.14,1.15-.2,1.34-.7,2.21-1.82,2.21-3.09,0-.39-.09-.76-.24-1.12Z"/>
        <path class="cls-106" d="M253.26,178.49c.09.09.2.17.31.24.82.53,1.84.6,2.81.6.2,0,.41,0,.6-.05.26-.06.5-.2.74-.31.25-.11.51-.2.74-.34.23-.14.44-.34.51-.61.03-.12.03-.25.03-.38,0-.57-.04-1.15-.09-1.72-.53-.05-1.06-.09-1.59-.11.01.12.03.23.04.34.05.37.07.75.05,1.12,0,.11-.01.23-.06.33-.08.16-.27.25-.43.32-.38.17-.77.34-1.19.4-.41.06-.86,0-1.2-.24-.33-.24-.51-.63-.7-.98-.18-.33-.39-.65-.63-.94-.28.06-.56.14-.84.23.07.54.28,1.06.53,1.55.1.2.22.39.37.55Z"/>
        <path class="cls-40" d="M259.72,176.95c-.06-.33-.14-.65-.25-.97-.18-.02-.37-.04-.55-.05.05.57.08,1.15.09,1.72,0,.13,0,.26-.03.38-.07.26-.28.47-.51.61-.23.14-.49.22-.74.34-.25.11-.48.25-.74.31-.2.05-.4.05-.6.05-.97,0-2-.07-2.81-.6-.11-.07-.21-.15-.31-.24-.16-.16-.27-.35-.37-.55-.26-.48-.46-1.01-.53-1.55-.06.02-.12.03-.18.05-.07.18-.13.36-.19.55-.1.32-.2.65-.14.98.07.38.33.69.63.94,1.26,1.06,3.08,1.13,4.71.88.52-.08,1.04-.19,1.5-.43.46-.24.87-.64,1.02-1.14.13-.41.08-.85,0-1.27Z"/>
        <path class="cls-152" d="M256.04,177.15c0,.34.55.95,1.14.95s.95-.4.95-.75c0-.34-.48-.25-1.06-.25s-1.03-.29-1.03.05Z"/>
        <path class="cls-40" d="M214.02,176.02s-.05.07-.08.1c-.39.52-.81,1.02-1.25,1.5-.48.52-1.03,1.05-1.73,1.15-.23.03-.47.01-.7-.01-.44-.05-.88-.12-1.3-.27-.42-.15-.81-.4-1.08-.74-.09-.11-.16-.23-.2-.36-.03-.12-.03-.24-.02-.36.03-.79.18-1.58.42-2.33-.11,0-.23,0-.33,0-.02.02-.04.03-.06.05-.52.51-.86,1.18-1,1.89-.06.3-.08.61,0,.9.1.34.32.63.54.9.13.16.26.32.42.46.47.41,1.1.58,1.71.67.35.05.71.09,1.07.06.42-.03.83-.14,1.23-.25.38-.1.76-.21,1.11-.39.87-.45,1.44-1.35,1.78-2.27.05-.13.09-.26.12-.39-.22-.11-.44-.21-.65-.31Z"/>
        <path class="cls-106" d="M207.69,177.39c.03.13.11.25.2.36.28.35.67.59,1.08.74.42.15.86.22,1.3.27.23.02.47.04.7.01.7-.1,1.26-.62,1.73-1.15.44-.48.85-.98,1.25-1.5.02-.03.05-.07.08-.1-.34-.15-.68-.3-1.01-.42-.29.17-.53.41-.68.7-.12.24-.18.52-.34.73-.23.3-.63.43-1.02.42-.38-.02-.74-.15-1.1-.3-.33-.14-.67-.28-.95-.51s-.5-.55-.52-.92c-.01-.22.05-.44.12-.64.05-.13.12-.26.19-.38-.23-.01-.44-.01-.64-.01-.24.76-.38,1.54-.42,2.33,0,.12,0,.25.02.36Z"/>
        <path class="cls-152" d="M209.88,177.15c0,.34-.55.95-1.14.95s-.95-.4-.95-.75.48-.25,1.06-.25,1.03-.29,1.03.05Z"/>
        <path class="cls-152" d="M212.33,176.8c-.19-.03-.15.26-.47.45s-.62.18-.53.32.52.24.85.05.33-.79.16-.82Z"/>
        <circle class="cls-90" cx="210.61" cy="175.38" r=".37"/>
        <circle class="cls-90" cx="255.32" cy="176.28" r=".37"/>
        <path class="cls-121" d="M267.35,177.64c-1.42.82-4,1.84-8.66,2.7-.37.07-.75.14-1.15.2-1.47.14-2.98.15-4.43.15-2.83-.01-5.63.18-7.21.93,1.27-.21,2.55-.32,3.83-.2.69.07,1.37.21,2.06.29,1.31.15,2.62.06,3.93-.05.92-.08,1.85-.18,2.77-.32h0c.08-.01.17-.03.25-.04h0c1.34-.21,2.67-.5,3.95-.95.61-.21,1.2-.46,1.75-.78.52-.31,1-.69,1.55-.95.34-.16.71-.27,1-.49.16-.12.29-.3.37-.48h-.03Z"/>
        <path class="cls-46" d="M248.93,181.39c-1.01-.03-2.02.08-3.02.24-.25.12-.47.25-.66.4-.13.26-.24.48-.31.66l.45.1c.07-.06.13-.12.21-.18.96-.71,2.16-1.01,3.34-1.22Z"/>
        <path class="cls-57" d="M221.2,182.18c-1.28-1.59-2.89-1.99-9.17-2.27l-.17.1c-.51.07-1.02.21-1.54.28-.36.05-.73.06-1.1.06-1.65.02-3.3-.13-4.92-.44-.37-.07-.74-.15-1.09-.3-.34-.15-.65-.36-.96-.57-.62-.44-1.23-.9-1.82-1.38.43.48.85.97,1.37,1.34.42.3.9.52,1.38.71,1.96.78,4.09,1.15,6.2,1.11.41,0,.82-.04,1.22-.07.5-.04,1.01-.09,1.51-.14.86-.09,1.71-.18,2.57-.19,1.77-.03,3.64.27,5.05,1.34.15.12.31.26.35.45.02.09,0,.18-.06.26l1.18-.28Z"/>
        <polygon class="cls-98" points="209.5 175.46 208.17 175.33 207.54 176.02 208.52 176.45 209.5 175.46"/>
        <polygon class="cls-98" points="254.47 176.99 253.37 177.36 253.37 178.16 254.47 177.94 254.47 176.99"/>
      </g>
      <g id="shadow-2" data-name="shadow">
        <path id="hat_shadow" data-name="hat shadow" class="cls-30" d="M275.91,171.92c-6.06-8.37-9.38-12.15-15.83-15.9-3.68-2.14-8.36-4.27-15.16-7.24-.91-.4-1.84-.8-2.82-1.23-3.23-1.13-6.22-1.99-9-2.66-.62-.15-1.23-.29-1.83-.42-3.2-.7-6.07-1.12-8.63-1.35-9.83-.9-14.85,1.02-14.85,1.02,0,0-5.25,6.78-9.94,16.4-.97,2-1.93,4.11-2.8,6.32l-.4.23h.31c-.2.52-.39,1.02-.58,1.53,9.25-3.34,22.13-5.31,38.88-1.98,19.51,3.88,33.01,7.6,42.67,12.47.03-4.22-.01-7.18-.01-7.18Z"/>
        <polygon id="left_eye_shadow" data-name="left eye shadow" class="cls-27" points="201.32 174.46 191.68 178.01 189.59 187.08 201.32 174.46"/>
        <polygon id="right_eye_shadow" data-name="right eye shadow" class="cls-28" points="263.31 176.03 276.1 180.73 278.19 189.8 263.31 176.03"/>
      </g>
      <g id="hat">
        <g id="hat-2" data-name="hat">
          <polygon class="cls-26" points="305.54 100.82 288.92 114.13 288.92 127.02 302.19 117.24 305.54 100.82"/>
          <polygon class="cls-95" points="252.36 108.3 226.24 104.71 229.38 123.04 252.36 108.3"/>
          <polygon class="cls-118" points="283.38 99.49 258.5 86.76 268.72 113.47 283.38 99.49 283.38 99.49"/>
          <path class="cls-87" d="M198.59,135.74l-6.94,16.11h0c8.05-5.94,16.16-7.73,16.16-7.73,0,0,5.02-1.92,14.85-1.02h0l-24.07-7.37Z"/>
          <polygon class="cls-53" points="211.58 106.38 198.74 100.82 210.9 113.47 211.58 106.38"/>
          <polygon class="cls-102" points="205.03 116.69 210.9 113.47 197.86 99.91 205.03 116.69"/>
          <path class="cls-84" d="M172.75,108.83c-.15,1.68-.17,3.27-.08,4.71.15,2.73.64,4.88,1.08,5.93l12.49,7.56-11.44-20.98-2.04,2.79Z"/>
          <polygon class="cls-25" points="176.53 92.72 175.77 98.53 174.8 106.04 186.24 127.02 192.86 110.88 176.53 92.72"/>
          <polygon class="cls-2" points="205.03 116.69 186.24 127.02 205.03 116.69 205.03 116.69"/>
          <polygon class="cls-138" points="198.14 100.56 176.53 92.72 192.86 110.88 205.03 116.69 198.14 100.56"/>
          <polygon class="cls-117" points="205.03 116.69 192.86 110.88 186.24 127.02 205.03 116.69"/>
          <polygon class="cls-22" points="193.49 86.58 189.3 82 181.61 79.54 197.86 99.91 198.74 100.82 211.58 106.38 193.49 86.58"/>
          <polygon class="cls-78" points="288.92 127.02 298.46 144.46 303.38 138.26 305.54 135.54 304.72 128.04 288.92 127.02"/>
          <polygon class="cls-76" points="304.04 85.95 295.73 87.72 291 92.22 283.38 99.49 285.85 104.13 304.04 85.95"/>
          <polygon class="cls-89" points="283.38 99.49 268.72 113.47 277.75 119.53 285.85 104.13 283.38 99.49"/>
          <polygon class="cls-92" points="285.85 104.13 277.75 119.53 288.92 114.13 305.54 100.82 285.85 104.13"/>
          <polygon class="cls-6" points="288.92 127.02 288.92 114.13 277.75 119.53 288.92 127.02"/>
          <polygon class="cls-118" points="198.61 92.18 211.58 106.38 216.1 85.95 198.61 92.18"/>
          <polygon class="cls-137" points="211.58 106.38 226.24 104.71 216.1 85.95 211.58 106.38"/>
          <polygon class="cls-137" points="252.36 108.3 268.72 113.47 258.5 86.76 252.36 108.3"/>
          <polygon class="cls-13" points="246.68 93.34 258.5 86.76 216.1 85.95 246.68 93.34 246.68 93.34"/>
          <polygon class="cls-105" points="246.68 93.34 216.1 85.95 226.24 104.71 246.68 93.34 246.68 93.34"/>
          <polygon class="cls-62" points="246.68 93.34 252.36 108.3 258.5 86.76 246.68 93.34"/>
          <polygon class="cls-116" points="226.24 104.71 252.36 108.3 246.68 93.34 226.24 104.71"/>
          <path class="cls-45" d="M173.75,119.46c-.27.14-.52.28-.78.43-3.01,1.2-8.23,3.45-8.23,3.45l1.58,1.23-5.58,2.94,2.08.76,23.42-1.26-12.49-7.56Z"/>
          <path class="cls-86" d="M162.82,128.28c-2.05,2.56-3.55,5.29-4.65,8.06l-4.88,5.36,2.36-.73-4.72,7.92,4.95-3.88c-.55,3.53-.7,6.93-.77,9.98l31.13-27.96-23.42,1.26Z"/>
          <path class="cls-56" d="M305.96,143.32l1.19-.46-2.23-1.14,2.96-1.31-4.5-2.16-4.93,6.21,12.63,8.51c-1.41-3.44-3.26-6.75-5.12-9.65Z"/>
          <polygon class="cls-64" points="226.24 104.71 211.58 106.38 221.95 129.95 226.24 104.71"/>
          <path class="cls-164" d="M156.71,172.54c1.31,2.82,3.12,4.93,5.12,6.53v4.74l2.12-3.27c.14.08.28.17.42.25v2.71l1.1-2.13c5.2,2.57,10.31,2.54,10.31,2.54l-.99-32.57-18.09,21.2Z"/>
          <polygon class="cls-93" points="152.2 159.59 154.67 158.21 152.2 165.71 153.66 164.2 150.93 171.97 153.84 171.28 153.84 174.46 156.71 172.54 174.8 151.33 155.11 154.98 152.2 159.59"/>
          <polygon class="cls-120" points="155.11 154.98 174.8 151.33 186.24 127.02 155.11 154.98"/>
          <polygon class="cls-14" points="186.24 127.02 174.8 151.33 198.59 135.74 186.24 127.02"/>
          <polygon class="cls-160" points="222.66 143.11 221.95 129.95 198.59 135.74 222.66 143.11"/>
          <polygon class="cls-133" points="205.03 116.69 186.24 127.02 198.59 135.74 210.9 113.47 205.03 116.69"/>
          <polygon class="cls-16" points="211.58 106.38 210.9 113.47 221.95 129.95 211.58 106.38"/>
          <polygon class="cls-12" points="210.9 113.47 198.59 135.74 221.95 129.95 210.9 113.47"/>
          <polygon class="cls-124" points="174.8 151.33 191.65 151.85 198.59 135.74 174.8 151.33"/>
          <polygon class="cls-169" points="226.24 104.71 221.95 129.95 229.38 123.04 226.24 104.71"/>
          <polygon class="cls-115" points="252.36 108.3 229.38 123.04 229.38 123.04 243.43 128.28 252.36 108.3"/>
          <polygon class="cls-132" points="229.38 123.04 233.12 144.88 243.43 128.28 229.38 123.04"/>
          <path class="cls-69" d="M243.43,128.28l-10.32,16.61c2.78.67,5.77,1.54,9,2.66.98.43,1.91.83,2.82,1.23l-1.5-20.5Z"/>
          <path class="cls-140" d="M222.66,143.11c2.55.23,5.43.66,8.63,1.35.6.13,1.21.27,1.83.42l-11.16-14.94.7,13.16Z"/>
          <polygon class="cls-173" points="221.95 129.95 233.12 144.88 229.38 123.04 221.95 129.95"/>
          <polygon class="cls-41" points="252.36 108.3 243.43 128.28 265.65 127.02 252.36 108.3"/>
          <polygon class="cls-96" points="268.72 113.47 252.36 108.3 265.65 127.02 268.72 113.47"/>
          <polygon class="cls-23" points="243.43 128.28 267.62 141 265.65 127.02 243.43 128.28"/>
          <polygon class="cls-166" points="277.75 119.53 268.72 113.47 265.65 127.02 285.85 146.61 277.75 119.53"/>
          <polygon class="cls-12" points="265.65 127.02 267.62 141 285.85 146.61 265.65 127.02"/>
          <polygon class="cls-133" points="243.43 128.28 244.94 148.78 267.62 141 243.43 128.28"/>
          <path class="cls-155" d="M244.94,148.78c10.17,4.44,15.63,7.01,20.02,10.54l2.67-18.31-22.69,7.77Z"/>
          <polygon class="cls-86" points="267.62 141 264.95 159.31 285.85 146.61 267.62 141"/>
          <path class="cls-114" d="M264.95,159.31c3.69,2.96,6.63,6.6,10.97,12.6l9.93-25.31-20.9,12.7Z"/>
          <polygon class="cls-51" points="285.85 146.61 275.93 171.92 296.92 160.52 285.85 146.61"/>
          <path class="cls-100" d="M296.92,160.52l-21,11.4c11.01,7.56,9.94,17.59,8.56,22.45l12.44-33.84Z"/>
          <path class="cls-159" d="M320.05,183.67l-5.11-7.88c-.04-.57-.1-1.16-.17-1.77l3.46.52s-2.29-2.85-4-4.48l-17.31-9.53,16.05,25.01,2.53,1.14-.91-3.29,5.45.29Z"/>
          <path class="cls-134" d="M284.48,194.37c-.51,1.8-1.06,2.89-1.06,2.89,4.65,1.55,9.91.22,14.73-2.01l-1.23-34.73-12.44,33.84Z"/>
          <path class="cls-93" d="M298.15,195.25c5.36-2.48,10.19-6.07,13.06-8.07.7-.49,1.28-1.04,1.76-1.65l-16.05-25.01,1.23,34.73Z"/>
          <path class="cls-8" d="M313,156.55h2.04l-3.95-3.58-12.63-8.51,15.78,25.59c-.22-1.41-.46-2.88-.71-4.41.15-1.84.02-3.74-.32-5.65l1.83.11-2.04-3.57Z"/>
          <polygon class="cls-136" points="288.92 127.02 285.85 146.61 298.46 144.46 288.92 127.02"/>
          <polygon class="cls-142" points="277.75 119.53 285.85 146.61 288.92 127.02 277.75 119.53"/>
          <polygon class="cls-130" points="298.46 144.46 296.97 160.55 314.24 170.06 298.46 144.46"/>
          <polygon class="cls-165" points="285.85 146.61 296.92 160.52 296.97 160.55 298.46 144.46 285.85 146.61"/>
          <polygon class="cls-29" points="184.17 82.75 181.61 79.54 177.52 85.13 176.53 92.72 180.97 94.33 181.61 88.89 184.17 82.75"/>
          <polygon class="cls-108" points="197.86 99.91 188.23 87.84 186.29 96.26 198.14 100.56 197.86 99.91"/>
          <polygon class="cls-109" points="184.17 82.75 181.61 88.89 180.97 94.33 186.29 96.26 188.23 87.84 184.17 82.75"/>
          <polygon class="cls-171" points="306.9 112.51 305.64 100.79 305.54 100.82 302.19 117.24 288.92 127.02 304.72 128.04 307.99 120.01 306.9 112.51"/>
          <polygon class="cls-110" points="294.49 95.5 294.96 102.6 301.54 101.5 298.67 91.32 294.49 95.5"/>
          <polygon class="cls-111" points="285.85 104.13 294.96 102.6 294.49 95.5 285.85 104.13"/>
          <polygon class="cls-112" points="305.64 100.79 304.04 85.95 298.67 91.32 301.54 101.5 305.54 100.82 305.64 100.79"/>
          <path class="cls-117" d="M175.79,183.91c-.01-8.14,1.97-14.69,4.95-19.94l-5.94-12.63.99,32.57Z"/>
          <path class="cls-42" d="M180.74,163.96c1.65-2.9,3.6-5.41,5.69-7.56l-11.63-5.06,5.94,12.63Z"/>
          <path class="cls-13" d="M191.65,151.85h0s-16.85-.52-16.85-.52l11.63,5.06c1.68-1.73,3.45-3.24,5.22-4.55Z"/>
        </g>
        <path id="shadow-3" data-name="shadow" class="cls-113" d="M176.53,92.72l-.76,5.81-.98,7.51-2.04,2.79c-.15,1.68-.17,3.27-.08,4.71.15,2.73.64,4.88,1.08,5.93-.27.14-.52.28-.78.43-3.01,1.2-8.23,3.45-8.23,3.45l1.58,1.23-5.58,2.94,2.08.76c-2.05,2.56-3.55,5.29-4.65,8.06l-4.88,5.36,2.36-.73-4.72,7.92,4.95-3.88c-.55,3.53-.7,6.93-.77,9.98l-2.91,4.6,2.47-1.38-2.47,7.5,1.45-1.51-2.72,7.77,2.91-.69v3.18l2.87-1.93c1.31,2.82,3.12,4.93,5.12,6.53v4.74l2.12-3.27c.14.08.28.17.42.25v2.71l1.1-2.13c5.2,2.57,10.31,2.54,10.31,2.54-.01-8.14,1.97-14.69,4.95-19.94,1.65-2.9,3.6-5.41,5.69-7.56,1.68-1.73,3.45-3.24,5.22-4.55,8.05-5.94,16.16-7.73,16.16-7.73,0,0,5.02-1.92,14.85-1.02,2.55.23,5.43.66,8.63,1.35.6.13,1.21.27,1.83.42,2.78.67,5.77,1.54,9,2.66.98.43,1.91.83,2.82,1.23,10.17,4.44,15.63,7.01,20.02,10.54,3.69,2.96,6.63,6.6,10.97,12.6,11.01,7.56,9.94,17.59,8.56,22.45-.51,1.8-1.06,2.89-1.06,2.89,4.65,1.55,9.91.22,14.73-2.01,5.36-2.48,10.19-6.07,13.06-8.07.7-.49,1.28-1.04,1.76-1.65l2.53,1.14-.91-3.29,5.45.29-5.11-7.88c-.04-.57-.1-1.16-.17-1.77l3.46.52s-2.29-2.85-4-4.48c-.22-1.41-.46-2.88-.71-4.41.15-1.84.02-3.74-.32-5.65l1.83.11-2.04-3.57h2.04l-3.95-3.58c-1.41-3.44-3.26-6.75-5.12-9.65l1.19-.46-2.23-1.14,2.96-1.31-4.5-2.16,2.16-2.72-.82-7.49,3.27-8.04-1.09-7.49-1.26-11.73-1.6-14.84-8.31,1.77-4.73,4.51-7.62,7.27-24.89-12.73-42.4-.82-17.49,6.23-5.12-5.6-4.19-4.58-7.7-2.45-4.09,5.59-.99,7.59"/>
      </g>
      <path class="cls-94" d="M279.76,68.39c-2.79,7.07-6.05,13.94-9.78,20.57-.51.9,1.05.81,1.52.67,6.87-2.05,13.61-4.51,20.18-7.38l-1.46.21c6.44,1.72,12.91,3.31,19.41,4.75,5.74,1.28,11.51,2.54,17.38,2.96s11.54-.09,16.82-2.35,9.23-5.96,12.66-10.26c6.77-8.47,11.3-19.11,11.51-30.04.19-10.34-3.97-19.95-11.07-27.38C340.71,3.15,316.23.93,294.07.37c-6.44-.16-12.9-.42-19.34-.36-6.05.05-12.19.5-18.02,2.22-9.39,2.76-18.6,9.07-21.21,18.99-2.44,9.27,1.21,19.37,7.51,26.28,7.4,8.11,18.42,11.33,28.1,15.77,2.5,1.14,4.94,2.39,7.3,3.81.75.46,3.44-.67,2.32-1.35-9.56-5.78-20.84-8.32-29.96-14.88-7.96-5.74-13.6-15.38-13.09-25.39.54-10.58,8.5-18.24,18.14-21.5,5.84-1.98,12.11-2.38,18.23-2.41,6.44-.03,12.9.21,19.34.38,12.63.33,25.52,1.02,37.6,5.04,9.48,3.15,18.44,8.53,24.96,16.17,6.9,8.08,10.15,18.42,8.88,29-1.31,10.94-6.77,21.97-14.77,29.58-4.27,4.07-9.37,6.39-15.25,6.91s-11.73-.46-17.42-1.63c-6.37-1.3-12.7-2.79-19-4.38-1.5-.38-2.99-.76-4.48-1.16-.71-.19-1.47-.5-2.21-.53-.86-.03-1.69.48-2.45.8-2.94,1.26-5.91,2.44-8.92,3.53s-6.1,2.1-9.19,3.02l1.52.67c3.8-6.76,7.14-13.76,9.98-20.97.34-.85-2.53-.52-2.89.39h0Z"/>
      <path class="cls-94" d="M267.85,25.76c-4.72,1.9-6.82,6.55-7.28,11.37s.16,11.25,4.56,14.35c2.24,1.58,5.01,2.08,7.69,2.23,2.84.15,6.13.31,8.76-.91,5.26-2.42,5.88-9.45,4.46-14.36-1.61-5.54-6.22-12.48-12.76-12.02-.56.04-1.62.18-1.92.75-.29.54.24.74.74.7,4.89-.34,8.55,5.15,10.22,9.07,1.82,4.25,2.45,9.94-.68,13.78-.88,1.08-1.77,1.45-3.15,1.53-1.26.07-2.53.09-3.78.04-2.32-.09-4.75-.47-6.72-1.78-3.89-2.59-4.71-7.78-4.64-12.12s1.27-9.92,5.58-11.65c.39-.16,1.12-.52.81-1.03-.29-.46-1.56-.08-1.9.05h0Z"/>
      <path class="cls-94" d="M296.78,39.21c-2.92-.32-6.2,1.03-7.59,3.73-1.28,2.49-.38,5.31,1.66,7.09,2.31,2.01,5.44,2.22,8.3,1.5,1.59-.4,3.13-1.08,4.47-2.03.97-.69,2.67-1.87,2.78-3.18.07-.8-.6-1.37-1.16-1.84-.72-.59-1.48-1.12-2.29-1.58-1.59-.92-3.33-1.57-5.12-1.97-.64-.14-1.44.1-2.02.38-.24.11-1,.59-.36.73,2.47.54,4.77,1.62,6.76,3.18.41.33.92.68,1.16,1.16.3.62,0,1.16-.41,1.64-.74.86-1.68,1.6-2.68,2.13-3.66,1.91-8.54-1.1-8.8-5.16-.08-1.17.32-2.33,1-3.28.4-.56,1.14-1.48,1.91-1.39.68.07,1.4-.08,2.02-.38.19-.09,1.03-.66.36-.73h0Z"/>
      <path class="cls-94" d="M308.21,43.1c.53,8.73.27,17.49-.79,26.18-.19,1.53,2.78,1.18,2.94-.19,1.06-8.69,1.33-17.44.79-26.18-.1-1.57-3.03-1.16-2.94.19h0Z"/>
      <path class="cls-94" d="M312.2,45.94c.15-.3.34-.56.59-.79.18-.17.54-.39.64-.44.16-.09.33-.16.5-.24.08-.04.17-.07.25-.11-.03.01-.17.07-.02,0,.34-.14.69-.26,1.03-.38.06-.02.28-.08,0,0,.06-.02.13-.04.19-.06.09-.02.17-.05.26-.07.04-.01.32-.07.13-.03-.15.03.25-.05.32-.06.27-.05.09-.01.03,0,.13-.01.26-.03.38-.03-.14,0,.2,0,.25,0,.12,0,.18,0,.29.02.3.04.6.13.87.28,1.18.64,1.56,2,1.12,3.22-.23.63-.61,1.21-1.09,1.68-.22.22-.46.42-.72.59s-.4.22-.75.34c-.1.04-.21.07-.31.11.18-.06-.11.03-.17.05-.24.07-.48.13-.72.19-.48.12-.97.23-1.45.34-1.1.27-2.18.6-3.22,1.07-.27.12-.96.55-.36.74s1.49-.13,2.02-.37c.39-.18.65-.26.99-.36.53-.15,1.07-.27,1.61-.4,1.16-.27,2.3-.58,3.4-1.04,1.59-.67,3.12-1.88,3.67-3.57.5-1.52-.11-3.12-1.65-3.73-1.77-.7-3.9-.22-5.64.32-1,.31-2,.68-2.93,1.16s-1.87,1.1-2.36,2.08c-.23.46,1.01.3,1.16.27.48-.09,1.45-.28,1.7-.78h0Z"/>
      <path class="cls-94" d="M334.9,45.95c-.75-2.73-4.02-3.75-6.51-2.97-1.39.43-2.63,1.3-3.48,2.49-.72,1-1.5,2.47-1.01,3.72.84,2.16,3.96,2.15,5.85,1.87.26-.04.51-.07.77-.08.13,0,.27-.01.4-.01-.3,0,.14.01.16.01.13,0,.26.02.39.04.01,0,.43.08.17.02.08.02.16.04.24.06.04.01.46.17.28.09.1.05.2.11.29.17.25.17-.08-.12.12.1.18.19.19.2.25.42.12.42-.01.79-.24,1.03-.31.33-.58.42-1.05.54s.23,0-.24.04c-.22.02-.43.05-.65.05s-.58-.02-.92-.06c-1.25-.17-2.54-.8-3.48-1.72-.52-.51-1.33-.47-1.96-.18-.41.19-1.22.91-.7,1.43,2.03,1.99,4.93,2.9,7.74,2.45,1.39-.23,2.83-.77,3.76-1.87.78-.93,1.03-2.3.22-3.29-.73-.89-1.98-1.22-3.07-1.31s-2.13.13-3.21.18c-.03,0-.46.01-.15.01-.13,0-.26,0-.39-.02s-.26-.02-.39-.04c-.02,0-.42-.08-.17-.02-.2-.05-.39-.1-.58-.18.21.09-.11-.06-.13-.07-.04-.03-.33-.27-.21-.15-.27-.27-.35-.49-.32-.92.05-.58.38-1.2.7-1.67.18-.25.39-.49.62-.7-.12.11.26-.21.22-.18.05-.04.47-.3.33-.22.13-.07.27-.14.42-.19-.25.1.2-.05.21-.05.44-.12-.24,0,.19-.03.17,0,.19,0,.06-.01.1,0,.19.01.29.02.44.05.91.23,1.36.58s.77.84.92,1.39c.35,1.27,3.24.5,2.9-.78h0Z"/>
      <path class="cls-94" d="M344.08,55.85c.6,0,1.62-.19,1.91-.81s-.24-.91-.8-.91c-.6,0-1.62.19-1.91.81s.24.91.8.91h0Z"/>
      <path class="cls-94" d="M349.96,56.07c1.67,0,2.21-2.17.24-2.17-1.67,0-2.21,2.17-.24,2.17h0Z"/>
      <path class="cls-94" d="M354.38,55.12c.53,0,1.64-.22,1.93-.73.31-.55-.26-.62-.72-.62-.53,0-1.64.22-1.93.73-.31.55.26.62.72.62h0Z"/>
      <g id="lips">
        <g>
          <path class="cls-131" d="M222.21,228.26c.36-.52,1.01-.74,1.63-.88.14-.03.28-.05.42-.07-1.31,0-2.61-.08-3.9-.28-.42-.06-.85-.14-1.27-.04-.41.1-.81.42-.84.84-.01.15.02.3.07.44,1.14.77,2.39,1.57,3.7,2.3-.02-.13-.04-.25-.06-.38-.09-.66-.13-1.4.25-1.95Z"/>
          <path class="cls-49" d="M224.26,227.31c1,0,1.99-.07,2.98-.19-1-.03-2,.02-2.98.19Z"/>
          <path class="cls-101" d="M246.33,227.15c-.64-.47-1.47-.54-2.25-.6-.84-.06-1.68-.12-2.52-.18-1.07-.08-2.2-.54-3.21-.19-2.73.94-5.46.97-8.14.47-.97-.18-1.96.33-2.94.46,0,0-.01,0-.02,0,1.69.05,3.39.28,5.08.37,1.35.08,2.71.06,4.06.04,1.38-.02,2.81-.05,4.08.48.63.26,1.19.64,1.75,1.02.36.24.71.48,1.04.76,1.24-.75,2.4-1.53,3.43-2.27-.1-.14-.21-.26-.35-.36Z"/>
          <path class="cls-49" d="M237.54,226.95c-9.17-1.19-15.84-.13-16.7,0-.74.11-2.59-1.96-4.04-2.3-.14-.02-.07-.22-.18-.26,0,0-1.49,1.72,1.7,3.9-.05-.14-.08-.29-.07-.44.04-.42.43-.75.84-.84.41-.1.85-.02,1.27.04,1.29.2,2.6.29,3.9.28.98-.17,1.98-.22,2.98-.19,0,0,.01,0,.02,0,.98-.12,2.02-.82,2.94-.46,2.12.83,5.19-.49,8.14-.47,1.07,0,2.14.11,3.21.19.84.06,1.68.12,2.52.18.79.06,1.62.13,2.25.6.13.1.25.22.35.36.25-1.36.09-3.3.09-3.3-3.54,1.48-9.23,2.73-9.23,2.73Z"/>
          <path class="cls-34" d="M239.95,229.44c-.14-.18-.37-.26-.59-.32-.72-.19-1.47-.21-2.21-.22-2.44-.04-4.89-.07-7.33-.11-1.49-.02-2.99-.04-4.46.23-.3.06-.61.13-.85.32s-.38.53-.26.81c.1.22.32.35.54.46,1.38.73,2.77,1.47,4.29,1.83,1.42.33,2.9.32,4.35.22.86-.06,1.72-.14,2.54-.38.58-.17,1.14-.42,1.7-.68l2.11-.95c.07-.08.14-.17.2-.27.16-.29.19-.69-.02-.94Z"/>
          <path class="cls-7" d="M242.21,229.02c-.56-.38-1.12-.76-1.75-1.02-1.28-.53-2.7-.5-4.08-.48-1.35.02-2.71.04-4.06-.04-1.69-.09-3.39-.32-5.08-.37-.99.12-1.98.19-2.98.19-.14.02-.28.04-.42.07-.62.13-1.27.36-1.63.88-.38.55-.34,1.28-.25,1.95.02.13.04.25.06.38,3.2,1.79,6.74,3.23,9.78,3.12h.3c3.48.12,7.63-1.78,11.16-3.92-.33-.27-.68-.52-1.04-.76ZM237.66,231.61c-.56.25-1.11.5-1.7.68-.82.24-1.68.33-2.54.38-1.45.09-2.93.11-4.35-.22-1.52-.36-2.91-1.09-4.29-1.83-.21-.11-.44-.24-.54-.46-.12-.28.03-.62.26-.81s.55-.26.85-.32c1.47-.27,2.97-.25,4.46-.23,2.44.04,4.89.07,7.33.11.74.01,1.49.02,2.21.22.22.06.45.14.59.32.21.26.18.65.02.94-.05.1-.12.18-.2.27l-2.11.95Z"/>
          <path class="cls-101" d="M222.62,222.76c.91-.32,2.03-.32,2.73-.99,3.22-3.02,6.77.6,10.17,1.01.55.07,1.04-.41,1.58-.56,2.32-.65,4.78.66,7.17.36.02,0,.05,0,.07-.01-3.91-1.54-8.26-5.35-8.26-5.35l-4.13,1.73-.62-.2-4.13-1.53s-4.96,4.43-9.27,5.96c1.57.24,3.19.1,4.69-.42Z"/>
          <path class="cls-49" d="M244.34,222.57s-.05,0-.07.01c-2.39.3-4.85-1.02-7.17-.36-.54.15-1.04.71-1.58.56-4.01-1.11-7.44-3.66-10.17-1.01-.7.67-1.82.66-2.73.99-1.49.53-3.12.67-4.69.42-1.93.69-.84,1.5-1.83,1.37,1.79.4,6.12-.21,11.14-2.75,2.98.32,4.39,2.05,10.29.23,0,0,6.63,3.49,9.81,2.24-1.06.45-.15-.58-3-1.71Z"/>
        </g>
        <path class="cls-152" d="M234.52,230.84c0,.34.55.95,1.14.95s.95-.4.95-.75c0-.34-.48-.25-1.06-.25s-1.03-.29-1.03.05Z"/>
        <polygon class="cls-152" points="226.29 219.95 224.65 221.47 224.93 222.24 226.29 221.66 226.29 219.95"/>
        <polygon class="cls-152" points="228.9 227.24 227.51 231.36 228.2 232.33 229.11 229.55 228.9 227.24"/>
        <polygon class="cls-152" points="229.75 227.85 232.92 230.67 233.12 230.46 229.75 227.85"/>
      </g>
    </g>
  </g>
</svg>