<svg xmlns="http://www.w3.org/2000/svg" width="24" height="24" data-name="Layer 2"><path d="M21.12 0H2.88A2.88 2.88 0 0 0 0 2.88v18.23a2.88 2.88 0 0 0 2.88 2.88h18.23a2.88 2.88 0 0 0 2.88-2.88V2.88A2.88 2.88 0 0 0 21.11 0ZM8.84 15.48H6.56v-6.5h2.28v6.5ZM7.7 8.26c-.84 0-1.39-.53-1.39-1.21s.55-1.21 1.39-1.21 1.39.49 1.39 1.18c0 .72-.55 1.25-1.39 1.25Zm9.54 7.22h-2.28v-3.35c0-.94-.41-1.33-1.07-1.33-.73 0-1.3.46-1.3 1.54v3.14h-2.28v-6.5h2.17v.71c.52-.54 1.25-.82 2.06-.82 1.52 0 2.69.88 2.69 2.89v3.72Z" data-name="Layer 1" style="fill:#d13221"/></svg>