<svg xmlns="http://www.w3.org/2000/svg" id="Layer_2" width="56.36" height="24" data-name="Layer 2" viewBox="0 0 56.36 24"><defs><style>.cls-1{fill:#d13221}</style></defs><g id="Layer_1-2" data-name="Layer 1"><path d="M48.26 10.26c-.71 0-1.2.43-1.33 1.12h2.66c-.12-.68-.62-1.12-1.33-1.12ZM13.05 10.26c-.71 0-1.2.43-1.33 1.12h2.66c-.12-.68-.62-1.12-1.33-1.12Z" class="cls-1"/><path d="M53.22 0H3.14C1.41 0 0 1.41 0 3.14v17.72C0 22.59 1.41 24 3.14 24h50.08c1.73 0 3.14-1.41 3.14-3.14V3.14c0-1.73-1.41-3.14-3.14-3.14ZM8.99 10.69c-.2-.02-.35-.04-.52-.04-.92 0-1.56.47-1.56 1.61v2.99H4.63v-6.5H6.8v.78c.47-.59 1.22-.89 2.18-.89v2.05Zm7.49 1.89h-4.72c.19.66.75 1.04 1.59 1.04.64 0 1.06-.18 1.5-.56l1.2 1.25c-.62.7-1.54 1.06-2.77 1.06-2.31 0-3.81-1.43-3.81-3.37s1.52-3.35 3.57-3.35c1.92 0 3.48 1.22 3.48 3.37 0 .17-.02.38-.04.56Zm3.46 2.78c-1.1 0-2.24-.28-2.88-.67l.68-1.56c.6.37 1.48.6 2.27.6s1.02-.17 1.02-.44c0-.88-3.84.12-3.84-2.48 0-1.22 1.13-2.16 3.17-2.16.91 0 1.92.19 2.57.55l-.68 1.55c-.65-.36-1.3-.48-1.87-.48-.77 0-1.04.22-1.04.46 0 .9 3.83-.07 3.83 2.51 0 1.2-1.1 2.13-3.21 2.13Zm11.03-.11H28.8v-.7c-.49.54-1.19.8-1.93.8-1.59 0-2.76-.91-2.76-2.97V8.75h2.28v3.26c0 1.01.4 1.4 1.08 1.4s1.22-.44 1.22-1.54V8.74h2.28v6.5Zm12.57 0h-2.28V11.9c0-.94-.38-1.33-.98-1.33-.66 0-1.14.44-1.14 1.45v3.23h-2.28V11.9c0-.94-.37-1.33-.98-1.33-.67 0-1.15.44-1.15 1.45v3.23h-2.28v-6.5h2.17v.68c.49-.53 1.17-.79 1.94-.79.89 0 1.64.32 2.1 1.02.52-.65 1.32-1.02 2.25-1.02 1.51 0 2.63.88 2.63 2.89v3.72Zm8.15-2.67h-4.72c.19.66.75 1.04 1.59 1.04.64 0 1.06-.18 1.5-.56l1.2 1.25c-.62.7-1.54 1.06-2.77 1.06-2.31 0-3.81-1.43-3.81-3.37s1.52-3.35 3.57-3.35c1.92 0 3.48 1.22 3.48 3.37 0 .17-.02.38-.04.56Z" class="cls-1"/></g></svg>