<svg xmlns="http://www.w3.org/2000/svg" id="Layer_2" width="24" height="24" data-name="Layer 2"><defs><style>.cls-1{fill:#d13221}</style></defs><g id="Layer_1-2" data-name="Layer 1"><path d="M7.26 10.69c-.82 0-1.43.53-1.43 1.32s.61 1.33 1.43 1.33 1.42-.54 1.42-1.33-.6-1.32-1.42-1.32Z" class="cls-1"/><path d="M21.12 0H2.88A2.88 2.88 0 0 0 0 2.88v18.23a2.88 2.88 0 0 0 2.88 2.88h18.23a2.88 2.88 0 0 0 2.88-2.88V2.88A2.88 2.88 0 0 0 21.11 0ZM10.93 14.3c0 2.46-1.39 3.62-3.81 3.62-1.25 0-2.43-.29-3.23-.85l.83-1.6c.54.43 1.43.7 2.19.7 1.22 0 1.74-.55 1.74-1.57v-.22c-.44.52-1.1.77-1.93.77-1.73 0-3.19-1.22-3.19-3.14s1.46-3.13 3.19-3.13c.9 0 1.6.29 2.04.9v-.79h2.17v5.31Zm3.75 1.19H12.4v-6.5h2.28v6.5Zm-1.14-7.22c-.84 0-1.39-.53-1.39-1.21s.55-1.21 1.39-1.21 1.39.49 1.39 1.18c0 .72-.55 1.25-1.39 1.25Zm5.52 7.33c-1.67 0-2.64-.82-2.64-2.48v-2.18h-.95v-1.7h.95V7.55h2.28v1.69h1.49v1.7H18.7v2.16c0 .48.28.74.68.74.25 0 .5-.07.7-.2l.56 1.6c-.4.25-.98.37-1.58.37Z" class="cls-1"/></g></svg>