<svg xmlns="http://www.w3.org/2000/svg" 
viewBox="0 0 93.76 93.76">
<g id="hamburger"><path id="Rec-1" d="M4.15 4.15h20.06v20.06H4.15z" class="cls-1" transform="rotate(45 14.188 14.177)"/><path id="Rec-2" d="M36.85 4.15h20.06v20.06H36.85z" class="cls-1" transform="rotate(45 46.874 14.186)"/><path id="Rec-3" d="M69.54 4.15H89.6v20.06H69.54z" class="cls-1" transform="rotate(45 79.572 14.19)"/><path id="Rec-4" d="M4.15 36.85h20.06v20.06H4.15z" class="cls-1" transform="rotate(45 14.184 46.875)"/><path id="Rec-5" d="M36.85 36.85h20.06v20.06H36.85z" class="cls-1" transform="rotate(45 46.882 46.88)"/><path id="Rec-6" d="M69.54 36.85H89.6v20.06H69.54z" class="cls-1" transform="rotate(45 79.563 46.876)"/><path id="Rec-7" d="M4.15 69.54h20.06V89.6H4.15z" class="cls-1" transform="rotate(45 14.18 79.573)"/><path id="Rec-8" d="M36.85 69.54h20.06V89.6H36.85z" class="cls-1" transform="rotate(45 46.873 79.565)"/><path id="Rec-9" d="M69.54 69.54H89.6V89.6H69.54z" class="cls-1" transform="rotate(45 79.571 79.57)"/>
</g>
</svg>