<?xml version="1.0" encoding="UTF-8"?>
<svg id="sunny" xmlns="http://www.w3.org/2000/svg" xmlns:xlink="http://www.w3.org/1999/xlink" version="1.1" viewBox="0 0 348.9 432.4">
  <!-- Generator: Adobe Illustrator 29.6.0, SVG Export Plug-In . SVG Version: 2.1.1 Build 207)  -->
  <defs>
    <style>
      .st0, .st1, .st2, .st3 {
        fill: none;
      }

      .st4 {
        fill: #d6bc99;
      }

      .st5 {
        fill: #8a8475;
      }

      .st6 {
        fill: #ce2f00;
      }

      .st7 {
        fill: #28635d;
      }

      .st8 {
        fill: #d8b690;
      }

      .st9 {
        fill: #c09d6c;
      }

      .st10 {
        fill: #1b090a;
      }

      .st11 {
        fill: #656952;
      }

      .st12 {
        fill: #9aa88e;
      }

      .st13 {
        fill: #775d3f;
      }

      .st14 {
        fill: #a17a56;
      }

      .st15 {
        fill: #4e4b3c;
      }

      .st16 {
        fill: #488978;
      }

      .st17 {
        fill: #292d1e;
      }

      .st18 {
        fill: #e6cca9;
      }

      .st19 {
        fill: #76b19f;
      }

      .st20 {
        fill: #8d6943;
      }

      .st21 {
        fill: url(#linear-gradient2);
      }

      .st22 {
        fill: url(#linear-gradient1);
      }

      .st23 {
        fill: url(#linear-gradient9);
      }

      .st24 {
        fill: url(#linear-gradient3);
      }

      .st25 {
        fill: url(#linear-gradient6);
      }

      .st26 {
        fill: url(#linear-gradient8);
      }

      .st27 {
        fill: url(#linear-gradient7);
      }

      .st28 {
        fill: url(#linear-gradient5);
      }

      .st29 {
        fill: url(#linear-gradient4);
      }

      .st30 {
        fill: #b38f6e;
      }

      .st31 {
        fill: #412c1f;
      }

      .st32 {
        fill: #eccdaa;
      }

      .st33 {
        fill: url(#linear-gradient13);
      }

      .st34 {
        fill: url(#linear-gradient12);
      }

      .st35 {
        fill: url(#linear-gradient11);
      }

      .st36 {
        fill: url(#linear-gradient10);
      }

      .st37 {
        fill: url(#linear-gradient14);
      }

      .st38 {
        fill: #f3f3f0;
      }

      .st39 {
        fill: #db4a00;
      }

      .st40 {
        fill: #314431;
      }

      .st41 {
        fill: #f0d7b8;
      }

      .st42 {
        fill: #7e583c;
      }

      .st1 {
        stroke: #fff;
      }

      .st1, .st2, .st3 {
        stroke-miterlimit: 10;
      }

      .st43 {
        fill: #4d563f;
      }

      .st44 {
        fill: #676b54;
      }

      .st45 {
        fill: #3d362e;
      }

      .st46 {
        fill: #e9cfac;
      }

      .st47 {
        fill: #e0e1da;
      }

      .st48 {
        fill: #242625;
      }

      .st49 {
        fill: #baae98;
      }

      .st2 {
        stroke: #614d36;
      }

      .st50 {
        fill: #0f1907;
      }

      .st51 {
        fill: #8a7e6d;
      }

      .st52 {
        fill: #614d36;
      }

      .st53 {
        fill: #c40500;
      }

      .st54 {
        fill: url(#linear-gradient);
      }

      .st55 {
        fill: #5a4f43;
      }

      .st56 {
        fill: #151014;
      }

      .st57 {
        fill: #573529;
      }

      .st58 {
        fill: #2b2b2a;
      }

      .st59 {
        fill: #1a1a1c;
      }

      .st60 {
        fill: #3b342c;
      }

      .st61 {
        fill: #15190f;
      }

      .st62 {
        fill: #d6c4ac;
      }

      .st63 {
        fill: #8c6341;
      }

      .st64 {
        fill: #775434;
      }

      .st65 {
        fill: #274942;
      }

      .st66 {
        fill: #63442f;
      }

      .st67 {
        fill: #6b4c30;
      }

      .st68 {
        fill: #5f402b;
      }

      .st69 {
        fill: #c2956d;
      }

      .st70 {
        fill: #606359;
      }

      .st71 {
        fill: #1b796e;
      }

      .st72 {
        fill: #243a35;
      }

      .st73 {
        fill: #988975;
      }

      .st74 {
        fill: #448b7d;
      }

      .st75 {
        fill: #928877;
      }

      .st76 {
        fill: #5e4434;
      }

      .st77 {
        fill: #c5c6bf;
      }

      .st78 {
        fill: #e3dcd4;
      }

      .st79 {
        fill: #0c0b0b;
      }

      .st80 {
        fill: #97704c;
      }

      .st81 {
        fill: #cabba1;
      }

      .st82 {
        fill: #6a6353;
      }

      .st83 {
        fill: #928f7b;
      }

      .st84 {
        fill: #1a1414;
      }

      .st85 {
        fill: #34352d;
      }

      .st86 {
        fill: #e3e1da;
      }

      .st87 {
        fill: #978672;
      }

      .st88 {
        fill: #b0b4a2;
      }

      .st89 {
        fill: #446454;
      }

      .st90 {
        fill: #2d4026;
      }

      .st91 {
        fill: #5a4128;
      }

      .st92 {
        fill: #1d1512;
      }

      .st93 {
        fill: #fff;
      }

      .st94 {
        fill: #875c3b;
      }

      .st95 {
        fill: #fafaf8;
      }

      .st96 {
        fill: #1e4c42;
      }

      .st97 {
        fill: #2c3222;
      }

      .st98 {
        fill: #c2b599;
      }

      .st99 {
        fill: #99b6a2;
      }

      .st100 {
        fill: #51bca4;
      }

      .st101 {
        fill: #a4815b;
      }

      .st102 {
        fill: #a68562;
      }

      .st103 {
        fill: #e50000;
      }

      .st104 {
        fill: #191011;
      }

      .st105 {
        fill: #bdafa4;
      }

      .st106 {
        fill: #cfcdbd;
      }

      .st107 {
        fill: #575b42;
      }

      .st108 {
        fill: #7e8b74;
      }

      .st109 {
        fill: #254d45;
      }

      .st110 {
        fill: #453424;
      }

      .st111 {
        fill: #78ab96;
      }

      .st112 {
        fill: #2e4229;
      }

      .st113 {
        fill: #be8e5e;
      }

      .st114 {
        fill: #473323;
      }

      .st115 {
        fill: #1d2a14;
      }

      .st116 {
        fill: #946645;
      }

      .st117 {
        fill: #24281c;
      }

      .st118 {
        fill: #bc9579;
      }

      .st119 {
        fill: #7dad98;
      }

      .st120 {
        fill: #9c7752;
      }

      .st121 {
        fill: #9f7847;
      }

      .st3 {
        stroke: #241f20;
        stroke-width: .8px;
      }

      .st122 {
        fill: #805331;
      }

      .st123 {
        fill: #676858;
      }

      .st124 {
        fill: #b39f89;
      }

      .st125 {
        fill: #766041;
      }

      .st126 {
        fill: #292d2a;
      }

      .st127 {
        fill: #d00;
      }

      .st128 {
        fill: #243434;
      }

      .st129 {
        fill: #92694a;
      }

      .st130 {
        fill: #402b1f;
      }

      .st131 {
        fill: #535648;
      }

      .st132 {
        fill: #3c342b;
      }

      .st133 {
        fill: #33251b;
      }

      .st134 {
        fill: #ece8e1;
      }

      .st135 {
        fill: #241f20;
      }

      .st136 {
        fill: #6d6153;
      }

      .st137 {
        fill: #21463e;
      }

      .st138 {
        fill: #29504f;
      }

      .st139 {
        fill: #c6b59d;
      }

      .st140 {
        fill: #2f1f20;
      }

      .st141 {
        fill: #808d75;
      }

      .st142 {
        fill: #393333;
      }

      .st143 {
        fill: #a17945;
      }

      .st144 {
        fill: #6d4f38;
      }

      .st145 {
        fill: #91a98f;
      }

      .st146 {
        fill: #837661;
      }

      .st147 {
        fill: #cdd0c3;
      }

      .st148 {
        fill: #817666;
      }

      .st149 {
        fill: #1d5248;
      }

      .st150 {
        fill: #292e2f;
      }

      .st151 {
        fill: #f9f5ec;
      }

      .st152 {
        fill: #593e2a;
      }

      .st153 {
        fill: #483127;
      }

      .st154 {
        fill: #715334;
      }

      .st155 {
        fill: #745640;
      }

      .st156 {
        fill: #767467;
      }

      .st157 {
        fill: #224841;
      }

      .st158 {
        fill: #d1b594;
      }

      .st159 {
        fill: #7c5b3d;
      }

      .st160 {
        fill: #837b69;
      }

      .st161 {
        fill: #9f7356;
      }

      .st162 {
        fill: #63665d;
      }

      .st163 {
        fill: #5c492b;
      }

      .st164 {
        fill: #313332;
      }

      .st165 {
        fill: #4d8c7c;
      }

      .st166 {
        fill: #bbaf9a;
      }

      .st167 {
        fill: #936f4b;
      }

      .st168 {
        fill: #ac7c52;
      }

      .st169 {
        fill: #b3835a;
      }
    </style>
    <linearGradient id="linear-gradient" x1="159.4" y1="744.7" x2="159" y2="777.4" gradientTransform="translate(0 -410)" gradientUnits="userSpaceOnUse">
      <stop offset="0" stop-color="#050a07"/>
      <stop offset="1" stop-color="#000" stop-opacity="0"/>
    </linearGradient>
    <linearGradient id="linear-gradient1" x1="279.8" y1="469.1" x2="306.3" y2="489.1" gradientTransform="translate(0 -410)" gradientUnits="userSpaceOnUse">
      <stop offset=".3" stop-color="#120a0a"/>
      <stop offset=".4" stop-color="#1d1c19"/>
      <stop offset=".6" stop-color="#262b26"/>
      <stop offset=".7" stop-color="#2c342e"/>
      <stop offset="1" stop-color="#2e3731"/>
    </linearGradient>
    <linearGradient id="linear-gradient2" x1="307" y1="448.5" x2="286.2" y2="443.5" gradientTransform="translate(0 -410)" gradientUnits="userSpaceOnUse">
      <stop offset=".4" stop-color="#1e2223"/>
      <stop offset=".7" stop-color="#1e4c48"/>
      <stop offset="1" stop-color="#1e6861"/>
    </linearGradient>
    <linearGradient id="linear-gradient3" x1="276.2" y1="443.8" x2="282" y2="461.1" gradientTransform="translate(0 -410)" gradientUnits="userSpaceOnUse">
      <stop offset=".3" stop-color="#5e5d4b"/>
      <stop offset=".5" stop-color="#62634b"/>
      <stop offset="1" stop-color="#65664c"/>
    </linearGradient>
    <linearGradient id="linear-gradient4" x1="317.2" y1="446.8" x2="293.5" y2="432.1" gradientTransform="translate(0 -410)" gradientUnits="userSpaceOnUse">
      <stop offset=".3" stop-color="#1a1819"/>
      <stop offset=".5" stop-color="#21312f"/>
      <stop offset=".7" stop-color="#26423d"/>
      <stop offset=".8" stop-color="#284843"/>
    </linearGradient>
    <linearGradient id="linear-gradient5" x1="80.5" y1="463.1" x2="46.8" y2="476.1" gradientTransform="translate(0 -410)" gradientUnits="userSpaceOnUse">
      <stop offset=".3" stop-color="#120a0a"/>
      <stop offset=".4" stop-color="#1d1c19"/>
      <stop offset=".6" stop-color="#262b26"/>
      <stop offset=".7" stop-color="#2c342e"/>
      <stop offset="1" stop-color="#2e3731"/>
    </linearGradient>
    <linearGradient id="linear-gradient6" x1="51.2" y1="424.8" x2="66.5" y2="424.8" gradientTransform="translate(0 -410)" gradientUnits="userSpaceOnUse">
      <stop offset=".2" stop-color="#1a1819"/>
      <stop offset=".4" stop-color="#21312f"/>
      <stop offset=".7" stop-color="#26423d"/>
      <stop offset=".8" stop-color="#284843"/>
    </linearGradient>
    <linearGradient id="linear-gradient7" x1="70.7" y1="439.3" x2="94.4" y2="439.3" gradientTransform="translate(0 -410)" gradientUnits="userSpaceOnUse">
      <stop offset=".3" stop-color="#5e5d4b"/>
      <stop offset=".5" stop-color="#62634b"/>
      <stop offset="1" stop-color="#65664c"/>
    </linearGradient>
    <linearGradient id="linear-gradient8" x1="60.1" y1="429.9" x2="74.6" y2="429.9" gradientTransform="translate(0 -410)" gradientUnits="userSpaceOnUse">
      <stop offset="0" stop-color="#1e2223"/>
      <stop offset=".6" stop-color="#1e4c48"/>
      <stop offset="1" stop-color="#1e6861"/>
    </linearGradient>
    <linearGradient id="linear-gradient9" x1="121.7" y1="662" x2="141.9" y2="700" gradientTransform="translate(0 -410)" gradientUnits="userSpaceOnUse">
      <stop offset="0" stop-color="#bdafa4"/>
      <stop offset=".4" stop-color="#baada2"/>
      <stop offset=".6" stop-color="#b2a89d"/>
      <stop offset=".8" stop-color="#a8a297"/>
      <stop offset=".8" stop-color="#969187"/>
      <stop offset=".9" stop-color="#68655f"/>
      <stop offset="1" stop-color="#242625"/>
    </linearGradient>
    <linearGradient id="linear-gradient10" x1="201" y1="666.9" x2="181.6" y2="707.1" gradientTransform="translate(0 -410)" gradientUnits="userSpaceOnUse">
      <stop offset="0" stop-color="#bdafa4"/>
      <stop offset=".4" stop-color="#baada2"/>
      <stop offset=".5" stop-color="#b2a89d"/>
      <stop offset=".7" stop-color="#a8a297"/>
      <stop offset=".7" stop-color="#969187"/>
      <stop offset=".8" stop-color="#68655f"/>
      <stop offset=".8" stop-color="#242625"/>
    </linearGradient>
    <linearGradient id="linear-gradient11" x1="-392.1" y1="608.9" x2="-389" y2="615.7" gradientTransform="translate(-152.4 -410) rotate(-180) scale(1 -1)" gradientUnits="userSpaceOnUse">
      <stop offset="0" stop-color="#000"/>
      <stop offset=".4" stop-color="#231f20" stop-opacity="0"/>
    </linearGradient>
    <linearGradient id="linear-gradient12" x1="224.1" y1="560.4" x2="191.7" y2="640.2" gradientTransform="translate(0 -410)" gradientUnits="userSpaceOnUse">
      <stop offset="0" stop-color="#231f20"/>
      <stop offset="0" stop-color="#231f20" stop-opacity=".7"/>
      <stop offset=".3" stop-color="#231f20" stop-opacity="0"/>
    </linearGradient>
    <linearGradient id="linear-gradient13" x1="85.8" y1="606.6" x2="89.5" y2="613.1" gradientTransform="translate(0 -410)" gradientUnits="userSpaceOnUse">
      <stop offset="0" stop-color="#000"/>
      <stop offset=".4" stop-color="#231f20" stop-opacity="0"/>
    </linearGradient>
    <linearGradient id="linear-gradient14" x1="157.3" y1="533.2" x2="124.8" y2="613" gradientTransform="translate(0 -410)" gradientUnits="userSpaceOnUse">
      <stop offset="0" stop-color="#231f20"/>
      <stop offset="0" stop-color="#231f20" stop-opacity=".7"/>
      <stop offset=".3" stop-color="#231f20" stop-opacity="0"/>
    </linearGradient>
  </defs>
  <g id="neck">
    <g id="neck-2">
      <path class="st59" d="M220.8,303.1c-2.6,3.1-5.4,6.4-8.5,9.8-4.9,5.4-9,9.6-12.6,13.1-3.2,3.1-5.9,5.5-8.2,7.4l-16.3,16.6,29.9,7.8,15.7-54.6h0Z"/>
      <path class="st145" d="M119.9,323.6c-2.2-2.2-4.6-4.6-6.8-7-4.9-5.3-9.8-10.9-13.6-16.1h-.6l5.9,45,15.2-21.8h0Z"/>
      <path class="st19" d="M104.7,345.5l30,50.1-5.7-37-24.3-13.2h0Z"/>
      <path class="st74" d="M119.9,323.6l-15.2,21.8,24.3,13.2-9.1-35Z"/>
      <path class="st88" d="M134.7,395.6l23.2,13.4-3.2-23.8-25.7-26.5,5.7,37h0Z"/>
      <path class="st17" d="M154.7,385.1l3.2,23.8,27.2-29.5-30.4,5.7Z"/>
      <path class="st71" d="M154.7,385.1l30.4-5.7-9.9-29.5-20.5,35.2Z"/>
      <path class="st157" d="M175.2,349.9l9.9,29.5,20-21.7-29.9-7.8Z"/>
      <path class="st56" d="M138.4,339.5c-.7-.4-1.4-.8-2-1.2-2-1.5-5-4-8.5-7.2-2.4-2.2-5.2-4.8-8-7.6l9.1,35,31.3-16.3c-7.7.4-16.4,0-22-2.8h0Z"/>
      <path class="st72" d="M129,358.6l25.7,26.5,5.6-42.8-31.3,16.3Z"/>
      <path class="st65" d="M178.5,340.1c-.9.1-1.7.2-2.6.4-2.3.5-8.2,1.4-14.9,1.8h-.7l-5.6,42.8,20.5-35.2,16.3-16.6c-6.8,5.5-10.2,6.4-13,6.8h0Z"/>
    </g>
    <path id="shadow" class="st54" d="M220.8,303.1c-2.6,3.1-5.4,6.4-8.5,9.8-4.9,5.4-9,9.6-12.6,13.1-3.2,3.1-5.9,5.5-8.2,7.4-6.8,5.5-10.2,6.4-13,6.8-.9.1-1.7.2-2.6.4-2.3.5-8.2,1.4-14.9,1.8h-.7c-7.7.4-16.4,0-22-2.8-.7-.4-1.4-.8-2-1.2-2-1.5-5-4-8.5-7.2-2.4-2.2-5.2-4.8-8-7.6-2.2-2.2-4.6-4.6-6.8-7-4.9-5.3-9.8-10.9-13.6-16.1h-.6l5.9,45,30,50.1,23.2,13.4,27.2-29.5,20-21.7,15.7-54.6h0Z"/>
  </g>
  <path id="hair" d="M330.1,398.3c2-.3,10-17.5-1.9-27.5s-43.8-3.2-52.2,0c-4.5,1.7-19.8,4-38.2,5.8,8.5-5.6,10.3-14.2,9.2-21.8-2-12.9,9.2-35.2,15.6-54.2,16-23,11.1-49.2,9.2-55.2.1-1.8.6-4.6.9-8.5-2.6,0-5.2-.5-7.7-1.3l2.1-5.8c2.8-9.7,4.9-29.8-17.1-44.9,0,0,.1,7.4,0,17.6-.2,14.9-.9,35.5-3.3,46.7-1,4.9-2.1,9.6-3.5,14.4-2.6,8.7-6.5,17.8-14.2,28.7-4.3,6.2-8.6,11-8.2,10.9s-15.7,54.6-15.7,54.6l-20,21.7c-32.5-.6-51.9-16.7-71.9-36.4-10.9-10.8-18-34.4-23-61-2.5-9.1-6.8-23.7-9.2-40.3-2-14-2.7-29.5.4-44.6,1.6-7.6,3.9-15,6.6-21.9l.2-.5c1.8-4.4,3.7-8.6,5.6-12.6,9.4-19.2,19.9-32.8,19.9-32.8,0,0-16.2,3.6-32.3,15.5-3.7,2.7-7.2,5.8-10.4,9.1-4.2,4.3-8.1,9.3-11.4,15.1-6,10.5-9.9,23.6-9.9,39.9-8.2,20.2-9.3,33.3-7.5,54.8,1.8,21.4.2,35.9-15.5,79s-8.6,54.1,37.9,69.1c46.5,15,114.5,15,156.1,5.8s106.4,2,106.4,2l3,12s6.6,5.8,17.1-11.4c8.7-20.5-19.1-21.4-17.1-21.7v-.3Z"/>
  <g id="hat-right">
    <path class="st22" d="M309.2,42.5l-33.2,26.6v25.8l26.5-19.6s6.7-32.8,6.7-32.8Z"/>
    <path class="st114" d="M264.9,39.9l-49.8-25.4,20.4,53.4,29.3-28h.1Z"/>
    <path class="st82" d="M275.9,94.9l19.1,34.9,9.9-12.4,4.3-5.4-1.6-15-31.6-2.1h0Z"/>
    <path class="st80" d="M306.2,12.8l-16.6,3.6-9.5,9-15.2,14.5,4.9,9.3,36.4-36.4h0Z"/>
    <path class="st92" d="M264.9,39.9l-29.3,27.9,18.1,12.1,16.2-30.8-4.9-9.3h-.1Z"/>
    <path class="st95" d="M269.8,49.2l-16.2,30.8,22.3-10.8,33.2-26.6-39.4,6.6h0Z"/>
    <path class="st5" d="M275.9,94.9v-25.8l-22.3,10.8,22.3,15Z"/>
    <path class="st60" d="M310,127.5l2.4-.9-4.5-2.3,5.9-2.6-9-4.3-9.9,12.4,25.2,17c-2.8-6.9-6.5-13.5-10.2-19.3h.1Z"/>
    <path class="st45" d="M202.8,57.5l-17.9,39.9,44.4-2.5-26.6-37.4h0Z"/>
    <path class="st98" d="M235.5,67.8l-32.7-10.3,26.6,37.4,6.1-27.1h0Z"/>
    <path class="st31" d="M185,97.4l48.4,25.4-3.9-28-44.4,2.5h-.1Z"/>
    <path class="st161" d="M253.6,80l-18.1-12.1-6.1,27.1,40.4,39.2-16.2-54.2Z"/>
    <path class="st11" d="M229.4,94.9l3.9,28,36.5,11.2s-40.4-39.2-40.4-39.2Z"/>
    <path class="st129" d="M185,97.4l3,41,45.4-15.5-48.4-25.5Z"/>
    <path class="st150" d="M188,138.4c20.3,8.9,31.2,14,40,21.1l5.3-36.6-45.4,15.5h.1Z"/>
    <path class="st89" d="M233.4,122.9l-5.3,36.6,41.8-25.4-36.4-11.2h-.1Z"/>
    <path class="st110" d="M228,159.5c7.4,5.9,13.3,13.2,21.9,25.2l19.8-50.6-41.8,25.4h.1Z"/>
    <path class="st55" d="M269.8,134.1l-19.9,50.6,42-22.8-22.1-27.8Z"/>
    <path class="st102" d="M291.9,161.9l-42,22.8c22,15.1,19.9,35.2,17.1,44.9l24.9-67.7h0Z"/>
    <path class="st154" d="M338.2,208.2l-10.2-15.8c0-1.1-.2-2.3-.3-3.5l6.9,1s-4.6-5.7-8-9l-34.6-19.1,32.1,50,5.1,2.3-1.8-6.6,10.9.6h-.1Z"/>
    <path class="st130" d="M267.1,229.6c-1,3.6-2.1,5.8-2.1,5.8,9.3,3.1,19.8.4,29.5-4l-2.5-69.4-24.9,67.7h0Z"/>
    <path class="st96" d="M294.4,231.4c10.7-4.9,20.4-12.1,26.1-16.1,1.4-1,2.6-2.1,3.5-3.3l-32.1-50,2.5,69.4Z"/>
    <path class="st7" d="M324.1,154h4.1l-7.9-7.2-25.2-17,31.6,51.2c-.4-2.8-.9-5.8-1.4-8.8.3-3.7,0-7.5-.6-11.3l3.7.2-4.1-7.1h-.2Z"/>
    <path class="st132" d="M275.9,94.9l-6.1,39.2,25.2-4.3-19.1-34.9Z"/>
    <path class="st138" d="M253.6,80l16.2,54.2,6.1-39.2-22.3-15h0Z"/>
    <path class="st126" d="M295,129.8l-3,32.2,34.5,19-31.5-51.2Z"/>
    <path class="st160" d="M269.8,134.1l22.1,27.8h.1l3-32.1-25.2,4.3h0Z"/>
    <path class="st166" d="M311.9,65.9l-2.5-23.5h-.2l-6.7,32.9-26.5,19.6,31.6,2.1,6.5-16.1-2.2-15Z"/>
    <path class="st21" d="M287.1,31.9l.9,14.2,13.1-2.2-5.7-20.4s-8.4,8.4-8.4,8.3h.1Z"/>
    <path class="st24" d="M269.8,49.2l18.2-3.1-.9-14.2-17.3,17.3h0Z"/>
    <path class="st29" d="M309.4,42.5l-3.2-29.7-10.7,10.8,5.7,20.4,8-1.3h.2v-.2Z"/>
  </g>
  <g id="hat-left">
    <path class="st97" d="M202.8,57.5l-52.2-7.2,6.3,36.7,45.9-29.5h0Z"/>
    <path class="st90" d="M95.3,112.4l-13.9,32.2c16.1-11.9,32.3-15.5,32.3-15.5,0,0,10-3.8,29.7-2,0,0-48.1-14.7-48.1-14.7Z"/>
    <path class="st57" d="M121.3,53.7l-25.7-11.1,24.3,25.3s1.4-14.2,1.4-14.2Z"/>
    <path class="st104" d="M108.2,74.3l11.7-6.4-26.1-27.1,14.3,33.6h0Z"/>
    <path class="st87" d="M43.6,58.6c-.3,3.3-.3,6.5-.2,9.4.3,5.4,1.3,9.8,2.2,11.8l25,15.1-22.9-42-4.1,5.6h0Z"/>
    <path class="st28" d="M51.2,26.4l-1.5,11.6-2,15,22.9,42,13.2-32.3S51.2,26.4,51.2,26.4Z"/>
    <path class="st1" d="M108.2,74.3l-37.6,20.7,37.6-20.7Z"/>
    <path class="st134" d="M94.4,42l-43.2-15.7,32.7,36.3,24.3,11.6-13.8-32.2Z"/>
    <path class="st113" d="M108.2,74.3l-24.3-11.6-13.2,32.3,37.6-20.7h0Z"/>
    <path class="st30" d="M85.1,14.1l-8.4-9.2L61.3,0l32.5,40.7,1.8,1.8,25.7,11.1S85.1,14.1,85.1,14.1Z"/>
    <path class="st114" d="M95.3,25.3l25.9,28.4,9-40.9-35,12.5h0Z"/>
    <path class="st133" d="M121.3,53.7l29.3-3.3-20.3-37.5-9,40.9h0ZM202.8,57.5l32.7,10.3-20.4-53.4-12.3,43.1Z"/>
    <path class="st12" d="M191.5,27.6l23.6-13.1-84.8-1.6,61.2,14.8h0Z"/>
    <path class="st107" d="M191.5,27.6l-61.2-14.8,20.3,37.5s40.9-22.7,40.9-22.7Z"/>
    <path class="st66" d="M191.5,27.6l11.4,29.9,12.3-43.1-23.6,13.1h0Z"/>
    <path class="st112" d="M150.6,50.3l52.2,7.2-11.4-29.9-40.9,22.7h.1Z"/>
    <path class="st49" d="M45.6,79.8c-.5.3-1,.6-1.6.8-6,2.4-16.5,6.9-16.5,6.9l3.2,2.5-11.2,5.9,4.2,1.5,46.8-2.5-25-15.1h0Z"/>
    <path class="st89" d="M23.8,97.4c-4.1,5.1-7.1,10.6-9.3,16.1l-9.8,10.7,4.7-1.4-9.4,15.8,9.9-7.8c-1.1,7.1-1.4,13.9-1.6,19.9l62.2-55.9-46.8,2.5h0Z"/>
    <path class="st68" d="M150.6,50.3l-29.3,3.3,20.7,47.1,8.6-50.5h0Z"/>
    <path class="st159" d="M11.6,186c2.6,5.6,6.2,9.9,10.2,13.1v9.5l4.2-6.5c.3.2.6.3.8.5v5.4l2.2-4.2c10.4,5.1,20.6,5.1,20.6,5.1l-2-65.1-36.2,42.4.2-.2Z"/>
    <path class="st96" d="M2.5,160.1l4.9-2.8-4.9,15,2.9-3-5.4,15.5,5.8-1.4v6.4l5.7-3.9,36.2-42.4-39.4,7.3-5.8,9.2h0Z"/>
    <path class="st116" d="M8.4,150.9l39.4-7.3,22.9-48.6s-62.2,55.9-62.3,55.9Z"/>
    <path class="st13" d="M70.6,94.9l-22.9,48.6,47.6-31.2s-24.7-17.4-24.7-17.4Z"/>
    <path class="st155" d="M143.4,127.1l-1.4-26.3-46.7,11.6,48.1,14.7Z"/>
    <path class="st129" d="M108.2,74.3l-37.6,20.7,24.7,17.4,24.6-44.5s-11.7,6.4-11.7,6.4Z"/>
    <path class="st15" d="M121.3,53.7l-1.4,14.2,22.1,32.9s-20.7-47.1-20.7-47.1Z"/>
    <path class="st11" d="M119.9,67.8l-24.6,44.5,46.7-11.6-22.1-32.9Z"/>
    <path class="st120" d="M47.7,143.6l33.7,1,13.9-32.2s-47.6,31.2-47.6,31.2Z"/>
    <path class="st164" d="M150.6,50.3l-8.6,50.5,14.9-13.8-6.3-36.7h0Z"/>
    <path class="st111" d="M202.8,57.5l-45.9,29.5,28.1,10.5,17.9-39.9h0Z"/>
    <path class="st128" d="M156.9,87l7.5,43.7,20.6-33.2-28.1-10.5Z"/>
    <path class="st73" d="M185,97.4l-20.6,33.2c5.6,1.3,11.6,3.1,18,5.3l5.6,2.5s-3-41-3-41Z"/>
    <path class="st136" d="M143.4,127.1c5.1.5,10.9,1.3,17.2,2.7,1.2.3,2.4.5,3.7.8l-22.3-29.9,1.4,26.3h0Z"/>
    <path class="st168" d="M142,100.8l22.3,29.9-7.5-43.7-14.9,13.8h0Z"/>
    <path class="st25" d="M66.5,6.4L61.3,0l-8.2,11.2-2,15.2,8.9,3.2,1.3-10.9,5.1-12.3h0Z"/>
    <path class="st27" d="M93.8,40.7l-19.3-24.1-3.9,16.8,23.7,8.6-.6-1.3h0Z"/>
    <path class="st26" d="M66.5,6.4l-5.1,12.3-1.3,10.9,10.6,3.8,3.9-16.8s-8.1-10.2-8.1-10.2Z"/>
    <path class="st113" d="M49.7,208.7c0-16.3,3.9-29.4,9.9-39.9l-11.9-25.2,2,65.1h0Z"/>
    <path class="st46" d="M59.6,168.8c3.3-5.8,7.2-10.8,11.4-15.1l-23.3-10.1,11.9,25.2h0Z"/>
    <path class="st12" d="M81.4,144.6l-33.7-1,23.3,10.1c3.4-3.5,6.9-6.5,10.4-9.1h0Z"/>
  </g>
  <path id="left-eye-bg" class="st47" d="M140.5,205.2s-.9-2.4-3.4-5.4c-1.8-2.1-4.3-4.5-7.9-6.5s-.9-.7-.9-.7c-.8-.6-1.7-1.3-2.5-1.9-.7-.5-1.3-1-2.1-1.4-1.1-.6-2.3-.8-3.5-1.1-1.1-.2-2.1-.5-3.2-.6-1.9-.3-3.9-.2-5.8-.1-1.6,0-3.1.2-4.7.5-3.2.7-6.3,2.2-9.4,3.2l-1.5.9c.3.3.6.7.9,1l.2.2c0-.2-.3-.3-.4-.5l2.6,3.2.2.2c.8,1,1.7,2,2.7,2.7.8.6,1.8,1,2.8,1.4.9.4,1.8.7,2.7.9,3.1.9,6.4,1.3,9.6,1.2.8,0,1.6,0,2.5-.1,1,0,2-.2,3-.3,1.7-.2,3.4-.3,5.1-.4,3.6,0,7.3.5,10.1,2.7.3.2.6.5.7.9,0,.2,0,.4-.1.5l2.4-.6h0Z"/>
  <path id="right-eye-bg" class="st47" d="M232.3,195.9c-.2,0-.4-.2-.6-.3-.4,0-.7-.2-1-.2.4,0,.7.2,1.1.2-5.6-2.5-10.2-3.8-13.8-4.4-4.5-.8-7-.6-7-.6-5.5.4-9.7,1.8-13,3.6-1.9,1-3.5,2.3-4.8,3.6s-1,1-1.4,1.6v.2-.2c-.4.5-.8,1.1-1.2,1.6v.2c-.8,1.1-1.5,2.2-2.1,3.4-.3.5-.5,1-.6,1.3l.9.2c.1-.1.3-.2.4-.4l1.7-1c1.5-.7,3.3-1.1,5-1.4h1.6c1.4.1,2.7.4,4.1.6,2.6.3,5.2.1,7.9-.1,1.9-.2,3.7-.4,5.5-.6h.5c2.7-.4,5.3-1,7.9-1.9,1.2-.4,2.4-.9,3.5-1.6,1-.6,2-1.4,3.1-1.9.7-.3,1.4-.5,2-1,.3-.2.6-.6.7-1h-.4Z"/>
  <g id="left-eye">
    <path class="st61" d="M130,193.6c0,4.7-4.1,8.3-10.8,8.3s-13.3-3.5-13.3-8.3,4.2-8.3,10.9-8.3,13.2,3.5,13.2,8.3Z"/>
    <path class="st44" d="M127.3,193.6c0,3.7-3.8,7.5-8.9,7.5s-9.7-3.9-9.7-7.5,4.2-7.4,9.3-7.4,9.3,3.7,9.3,7.4Z"/>
    <path class="st108" d="M125.7,195c0,2.8-5.2,4.5-9.1,4.5s-5.8-3-5.8-5.8,3.2-5.2,7.2-5.2,7.7,3.7,7.7,6.5Z"/>
    <path class="st50" d="M122.1,193.6c0,1.6-1.8,3.9-4.1,3.9s-4.8-2.2-4.8-3.8c0-2.4,4-4.2,5.9-3.7s2.9,2,2.9,3.6h0Z"/>
    <path class="st147" d="M117.1,196c0,.9-1.4,2.3-2.8,2.3s-2.4-1-2.4-1.8,1.2-.6,2.6-.6,2.5-.7,2.5.1h.1ZM123.1,195.1c-.5,0-.4.6-1.2,1.1s-1.5.4-1.3.8,1.3.6,2.1.1.8-2,.4-2h0Z"/>
    <circle class="st93" cx="119.7" cy="190.4" r=".9"/>
    <path class="st100" d="M116.3,192.3l-3.3-.3-1.6,1.7,2.4,1,2.4-2.4h0Z"/>
  </g>
  <g id="right-eye">
    <path class="st61" d="M222.2,193.1c.9,4.7-2.4,8.9-9,10.2-6.5,1.3-13.7-.8-14.6-5.5s2.5-8.9,9-10.3c6.5-1.3,13.6.9,14.6,5.5h0Z"/>
    <path class="st44" d="M219.5,193.6c.7,3.6-2.2,8.1-7.3,9.1s-10.3-1.9-11-5.5,2.6-8.1,7.7-9.1,9.9,1.8,10.6,5.4h0Z"/>
    <path class="st108" d="M218.2,195.3c.6,2.8-4.2,5.4-8.1,6.2s-6.2-1.8-6.8-4.6,2.2-5.7,6.1-6.5,8.3,2.1,8.8,4.9h0Z"/>
    <path class="st50" d="M214.4,194.6c.3,1.6-1,4.2-3.2,4.6s-5.1-1.2-5.4-2.8c-.5-2.3,3.1-4.9,5-4.8s3.3,1.4,3.6,3h0Z"/>
    <path class="st147" d="M209.9,197.9c.2.8-.9,2.6-2.3,2.8s-2.5-.5-2.7-1.3,1-.8,2.5-1.1,2.4-1.2,2.5-.4ZM215.7,195.9c-.5,0-.2.7-.9,1.3s-1.4.7-1.1,1,1.4.3,2.1-.3.4-2.1,0-2.1h-.1Z"/>
    <circle class="st93" cx="211.3" cy="192.1" r=".9"/>
    <path class="st100" d="M208.4,194.5l-3.3.3-1.2,2,2.6.6,1.9-2.9h0Z"/>
  </g>
  <g id="left-eye-frame">
    <path class="st0" d="M95.5,192.1c.2.3.4.5.7.8l-.7-.8Z"/>
    <path class="st85" d="M101.4,190.4c-1.6.4-3.3.9-5,1.4.3.5.8,1.2,1.5,2,.2-.7.9-2.1,3.5-3.4Z"/>
    <path class="st58" d="M128.7,193.1c-.3-.2-.7-.4-1.1-.5l-2.1-.9c-2.5-1-5.5-1.9-8.9-2.4h0c-.3,0-.7,0-1-.1-.9-.1-1.8-.2-2.8-.2-3.7-.1-7.4.6-11.4,1.6-2.6,1.2-3.4,2.7-3.6,3.4.5.5.9,1.1,1.5,1.6,0-.7,0-1.4.3-2.1.5-1.2,1.5-2.1,2.8-2.5.6-.2,1.2-.2,1.8-.2,2,0,4.3-.2,6.2-.2s1.8-.2,3.1-.2h2c2.4.1,5.4.6,8.6,1.8,1.1.4,2.2.9,3.3,1.5.4.2.9.6,1.4.8v-.2c0-.4,0-.8-.1-1.1h.1Z"/>
    <path class="st131" d="M125.8,190.8c-.7-.5-1.3-1-2.1-1.4-1.1-.6-2.3-.8-3.5-1.1-1.1-.2-2.2-.5-3.2-.6-1.9-.3-3.9-.2-5.8-.1-1.6,0-3.1.2-4.7.5-3.2.7-6.3,2.2-9.4,3.2l-1.5.9c6.5-1.9,11.8-3.4,17.3-3.3,1.2,0,2.5.1,3.8.4,4.9.7,8.9,2.2,12.1,3.9-.9-.8-1.9-1.6-2.8-2.3h-.2Z"/>
    <path class="st58" d="M114.7,200.4c-10.5-.4-15.5-4.1-18.5-7.6l2.6,3.2c1.3,1,2.6,2,3.9,2.9.6.4,1.2.9,1.9,1.1.7.3,1.4.5,2.2.6,3.2.6,6.5.9,9.8.9s1.5,0,2.2-.1c1-.1,2.1-.4,3.1-.6l.3-.2c-2.2-.1-4.7-.2-7.4-.3h0Z"/>
    <path class="st61" d="M137.1,199.8v.4c0,.2,0,.5-.1.6-.2.3-.7.4-1.1.4-1.2,0-2.3,0-3.5-.2-2.1-.3-4.1-.9-6.2-.8-.5,0-1,0-1.6.2l-2,.3c-.2,0-.3,0-.5.1,12.6.6,15.8,1.4,18.3,4.5,0,0-.9-2.4-3.4-5.4h.1Z"/>
    <path class="st85" d="M137.1,199.8c-1.9-2.2-4.6-4.7-8.4-6.8,0,.4.1.8.1,1.2v.2c.9.4,1.7.8,2.4,1.4,1.1.9,2.1,2,3.1,3.1.3.4.7.9.8,1.4,0,.3,0,.7-.3.9h1.2c.4,0,.9,0,1.1-.4s.1-.4.1-.6v-.4h-.1Z"/>
    <path class="st61" d="M140.5,205.2c-2.6-3.2-5.8-4-18.3-4.5l-.3.2c-1,.1-2.1.4-3.1.6-.7.1-1.5.1-2.2.1-3.3,0-6.6-.3-9.8-.9-.7-.1-1.5-.3-2.2-.6s-1.3-.7-1.9-1.1c-1.2-.9-2.4-1.8-3.6-2.8.8,1,1.7,1.9,2.7,2.7.8.6,1.8,1,2.8,1.4,3.9,1.6,8.2,2.3,12.4,2.2.8,0,1.6,0,2.4-.1,1,0,2-.2,3-.3,1.7-.2,3.4-.4,5.2-.4,3.6,0,7.3.5,10.1,2.7.3.2.6.5.7.9,0,.2,0,.4-.1.5l2.4-.6h-.2Z"/>
    <path class="st162" d="M120.2,200.6c.7,0,1.4,0,2,.1-.2,0-1,0-2-.1ZM120.2,200.6c-5.7-.4-13.4-1.7-17.8-3.2-.8-.4-1.6-.9-2.2-1.2-2-1.6-3.2-3.3-3.8-4.3l-.9.3c1,1.2,2.2,2.5,3.8,3.8.9,1,3.6,2.1,3.6,2.1,2.5,1.4,5.8,2.4,10,2.4s4.6.2,7.3.3v-.2Z"/>
  </g>
  <g id="right-eye-frame">
    <path class="st61" d="M198.9,201.5c-2.3,0-4.6.2-6.9.4-.3,0-.7,0-.8-.3v-.4c.1-.6.2-1.2.4-1.8-1.3,1.6-2.5,3.3-3.4,5.2,2.7-2.2,9.2-2.7,15.7-2.6-1.6-.5-3.3-.5-4.9-.5h-.1Z"/>
    <path class="st0" d="M197.8,195.5v-.4.4Z"/>
    <path class="st58" d="M217.9,191.2c-4.5-.8-7-.6-7-.6-5.5.4-9.7,1.8-13,3.6-2.6,1.4-4.8,3.4-6.4,5.3l-.2.9c1.8-1.6,3.7-3.1,5.8-4.4.2-.2.5-.3.7-.5v-.4.4c.9-.6,1.8-1.1,2.8-1.5,1.4-.6,2.9-1,4.4-1.3,4.6-.8,9.3-.6,14,.1h.3c4.2.7,8.3,1.7,12.4,2.7-5.6-2.5-10.2-3.8-13.8-4.4h0Z"/>
    <path class="st123" d="M193.7,201.1c-.2-.1-.4-.3-.6-.5l-.2-.2v-.4c.2-.7.5-1.3,1-1.8-.9.7-1.8,1.4-2.6,2.1l-.2.9v.4c.1.3.5.3.8.3,1.6-.1,3.1-.2,4.7-.3-.8,0-1.5-.2-2.2-.3-.2,0-.5-.1-.7-.2Z"/>
    <path class="st85" d="M229.4,195.1s-.1-.1-.2-.1c-3.3-.8-6.6-1.6-10-2.1h-.3c2.4.6,4.9,1.4,7.2,2.3.4.1.8.4.7.8,0,.2-.1.3-.2.4-.4.5-1,.8-1.6,1.1-2.1.8-3.9,1.1-6.3,1.5-1,.6-5.8,1.7-6.3,2.1l8.9-2.4c2.5-.6,5-1.1,7.3-2.3.3-.1.5-.3.7-.5s.2-.6,0-.8h.1Z"/>
    <path class="st117" d="M232.3,195.9c-2.8,1.6-8,3.7-17.3,5.4-.7.1-1.5.3-2.3.4-2.9.3-6,.3-8.9.3-5.7,0-11.2.4-14.4,1.9,2.5-.4,5.1-.6,7.7-.4,1.4.1,2.7.4,4.1.6,2.6.3,5.2.1,7.9-.1,1.9-.2,3.7-.4,5.5-.6h.5c2.7-.4,5.3-1,7.9-1.9,1.2-.4,2.4-.9,3.5-1.6,1-.6,2-1.4,3.1-1.9.7-.3,1.4-.5,2-1,.3-.2.6-.6.7-1h0Z"/>
    <path class="st50" d="M195.5,203.4c-2,0-4,.1-6,.5-.5.2-.9.5-1.3.8-.3.5-.5,1-.6,1.3l.9.2c.1-.1.3-.2.4-.4,1.9-1.4,4.3-2,6.7-2.4h0Z"/>
    <path class="st162" d="M232.3,195.9l-.6-.3-2.4-.6s.1,0,.2.1c.2.2.1.6,0,.8-.2.2-.4.4-.7.5-2.3,1.1-4.8,1.7-7.3,2.3l-4.2,1c-.6.6-7.6,1.7-8.5,2.2,9.3.2,20.8-4.4,23.6-6.1h-.1Z"/>
  </g>
  <g id="right-face">
    <g id="face-right">
      <path class="st127" d="M142.5,297.4c.7-1,2-1.5,3.3-1.8.3,0,.6,0,.8-.1-2.6,0-5.2-.2-7.8-.6-.8-.1-1.7-.3-2.5,0-.8.2-1.6.8-1.7,1.7,0,.3,0,.6.1.9,2.3,1.5,4.8,3.1,7.4,4.6,0-.2,0-.5-.1-.8-.2-1.3-.3-2.8.5-3.9h0Z"/>
      <path class="st53" d="M146.6,295.5c2,0,4-.1,6-.4-2,0-4,0-6,.4Z"/>
      <path class="st103" d="M190.8,295.2c-1.3-.9-2.9-1.1-4.5-1.2l-5-.4c-2.1-.1-4.3-.3-6.4-.4-5.4-.2-10.9.1-16.3,1-2,.3-3.9.7-5.9.9,3.4,0,6.8.5,10.2.7,2.7.1,5.4.1,8.1,0,2.8,0,5.6-.1,8.2,1,1.2.5,2.4,1.3,3.5,2l2.1,1.5c2.5-1.5,4.8-3.1,6.9-4.5-.2-.3-.4-.5-.7-.7h-.2Z"/>
      <path class="st53" d="M185.6,291.9c-18.3-2.4-44.4,0-46.1.3-1.5.2-11.9-2.2-14.8-2.9-.3,0-.5,0-.7-.2,0,0,4.5,4,10.9,8.4,0-.3-.2-.6-.1-.9,0-.9.9-1.5,1.7-1.7s1.7,0,2.5,0c2.6.4,5.2.6,7.8.6,2-.4,4-.4,6-.4,2-.2,3.9-.6,5.9-.9,5.4-.8,10.8-1.1,16.3-1,2.1,0,4.3.2,6.4.4l5,.4c1.6.1,3.2.3,4.5,1.2.3.2.5.5.7.7,5.2-3.7,8.7-6.8,8.7-6.8-7.1,3-14.6,2.8-14.6,2.8h0Z"/>
      <path class="st39" d="M178,299.8c-.3-.4-.7-.5-1.2-.6-1.4-.4-2.9-.4-4.4-.4-4.9,0-9.8-.1-14.7-.2-3,0-6,0-8.9.5-.6.1-1.2.3-1.7.6s-.8,1.1-.5,1.6c.2.4.6.7,1.1.9,2.8,1.5,5.5,2.9,8.6,3.6,2.8.7,5.8.6,8.7.5,1.7-.1,3.4-.3,5.1-.8,1.2-.4,2.3-.9,3.4-1.4l4.2-1.9c.1-.2.3-.3.4-.5.3-.6.4-1.4,0-1.9h-.1Z"/>
      <path class="st6" d="M182.5,298.9c-1.1-.8-2.2-1.5-3.5-2-2.6-1-5.4-1-8.2-1h-8.1c-3.4-.2-6.8-.6-10.2-.7-2,.2-4,.4-6,.4s-.6,0-.8.1c-1.2.3-2.5.7-3.3,1.8-.8,1.1-.7,2.6-.5,3.9v.8c6.5,3.6,13.6,6.5,19.7,6.2h.6c7,.2,15.3-3.6,22.3-7.9l-2.1-1.5h.1ZM173.4,304.1c-1.1.5-2.2,1-3.4,1.4-1.6.5-3.4.6-5.1.8-2.9.2-5.9.2-8.7-.5-3-.7-5.8-2.2-8.6-3.6-.4-.2-.9-.5-1.1-.9-.2-.6,0-1.2.5-1.6s1.1-.5,1.7-.6c2.9-.5,5.9-.5,8.9-.5,4.9,0,9.8.1,14.7.2,1.5,0,3,0,4.4.4.4.1.9.3,1.2.6.4.5.4,1.3,0,1.9-.1.2-.2.4-.4.5l-4.2,1.9h.1Z"/>
      <path class="st103" d="M143.4,286.4c1.8-.6,3.6-1.6,5.5-2,6.8-1.4,13.7,4,20.3,2,1.1-.3,2.1-.8,3.2-1.1,4.6-1.3,9.6,1.3,14.3.7h.1c-7.8-3.1-15.9-7.2-15.9-7.2l-8.6,3.4h-.6l-8.6-3.4s-10.5,5.4-19.1,8.5c3.1.5,6.4.2,9.4-.9h0Z"/>
      <path class="st53" d="M186.8,286h-.1c-4.8.6-9.7-2-14.3-.7-1.1.3-2.1.8-3.2,1.1-6.6,2-13.6-3.5-20.3-2-1.9.4-3.6,1.3-5.5,2-3,1.1-6.2,1.3-9.4.9-3.9,1.4-7.3,2.3-9.3,2,3.6.8,18.1,3.6,28.2-1.5,6,.6,9.6,3.6,21.4,0,0,0,19.5,3.8,25.9,1.3-2.1.9-7.7-.8-13.4-3.1h0Z"/>
      <path class="st147" d="M167.1,302.5c0,.7,1.1,1.9,2.3,1.9s1.9-.8,1.9-1.5-.9-.5-2.1-.5-2.1-.6-2.1.1h0ZM151.2,282.2l-3.3,3,.5,1.5,2.7-1.2v-3.4h.1ZM155.9,292.2l-2.8,8.2,1.4,1.9,1.8-5.6-.4-4.6h0ZM158.5,292.2l5.5,10,1.2-4.8-6.7-5.2Z"/>
      <path class="st86" d="M157.9,248.3l3.5,17.6,6.5-16.3-9.9-1.3h-.1Z"/>
      <path class="st77" d="M161.4,265.9l-23.1-6.1,14.8,19,8.3-12.9ZM185,260.1l-23.6,5.7,9.5,12.9,14.1-18.6Z"/>
      <path class="st3" d="M191.5,181.8l13.5-5.2-21.3,1,7.8,4.2Z"/>
      <path class="st42" d="M191.5,181.8l6.9,12.7,6.6-17.9-13.5,5.2Z"/>
      <path class="st9" d="M198.4,194.5c3.3-1.8,7.5-3.1,13-3.6,0,0,2.6-.2,7,.6,3.6.6,8.5,2,14.4,4.7l-27.8-19.6-6.6,17.9Z"/>
      <path class="st20" d="M205,176.6l27.8,19.6-1.3-18.5-26.5-1h0Z"/>
      <path class="st131" d="M232.8,196.2l17.1,6.1-18.4-24.6,1.3,18.5h0Z"/>
      <path class="st40" d="M249.9,184.7l-18.4-7.1,18.4,24.6c.1-10.1,0-17.6,0-17.6h0Z"/>
      <path class="st10" d="M191.5,181.8l13.5-5.2-21.3,1,7.8,4.2Z"/>
      <path class="st142" d="M200.9,169.3l4.2,7.3,22.2-8.6-26.3,1.3h0Z"/>
      <path class="st140" d="M183.7,177.6l21.3-1-4.2-7.3-17.1,8.4h0ZM227.2,168l4.4,9.6,18.4,7.1-22.8-16.7h0Z"/>
      <path class="st84" d="M205,176.6l26.5,1-4.4-9.6-22.2,8.6h0Z"/>
      <path class="st63" d="M191.5,181.8l-6.8,20.2,3.2,4.3c.1-.4.4-.8.6-1.3,1.4-2.8,4.5-7.6,9.8-10.4l-6.9-12.7h0Z"/>
      <path class="st167" d="M218.3,152.9c-7.4-4.3-16.7-8.5-30.3-14.5l13.8,13.7,16.5.8Z"/>
      <path class="st44" d="M184.7,165.2l-1,12.4,17.1-8.4.9-17.2-17,13.1h0Z"/>
      <path class="st125" d="M177.8,152.1l6.9,13.1,17-13.1h-24,.1ZM201.8,152.1l25.4,15.9-8.9-15.1-16.5-.8h0Z"/>
      <path class="st69" d="M200.9,169.3l26.3-1.3-25.4-15.9-.9,17.2h0Z"/>
      <path class="st137" d="M218.3,152.9l8.9,15.1,22.8,16.7c-12.1-16.7-18.8-24.3-31.6-31.8h0Z"/>
      <path class="st169" d="M188,138.4l-10.2,13.7h24l-13.8-13.7Z"/>
      <path class="st76" d="M183.7,177.6l-5.3,20.1,6.3,4.2,6.8-20.2-7.8-4.2h0Z"/>
      <path class="st8" d="M232.9,196.2c-.1.4-.4.7-.7,1-.6.4-1.3.7-2,1-1.1.5-2.1,1.3-3.1,1.9-1.1.6-2.3,1.1-3.5,1.6-2.6.9-5.2,1.5-7.9,1.9l6.2,4.4,13.8-10.7-2.7-1h-.1Z"/>
      <path class="st18" d="M215.1,203.6l-8.8,6.9,15.5-2.6-6.2-4.4h-.5Z"/>
      <path class="st121" d="M215.1,203.6c-1.8.3-3.7.5-5.5.6-2.6.2-5.2.4-7.9.1-1.4-.1-2.7-.4-4.1-.6h-1.6c-2.4.4-4.8,1-6.7,2.4-.1.1-.3.2-.4.4l17.4,4.1,8.8-6.9h0Z"/>
      <path class="st149" d="M249.9,202.3l-10.1,27.2,3.3,34c1.4-4.8,2.5-9.5,3.5-14.4,2.4-11.2,3.1-31.9,3.3-46.7h0Z"/>
      <path class="st106" d="M249.9,202.3l-31,24.2,20.9,2.9,10.1-27.2h0Z"/>
      <path class="st151" d="M219,226.5l8.4,28.2,12.5-25.3-20.9-2.9Z"/>
      <path class="st16" d="M239.9,229.5l-12.5,25.3,15.8,8.7-3.3-34Z"/>
      <path class="st105" d="M219,226.5l-36.6,3.8,45,24.4-8.4-28.2Z"/>
      <path class="st70" d="M215.5,267.5l13.5,24.7c7.6-11,11.5-20,14.2-28.7l-27.7,4Z"/>
      <path class="st78" d="M182.3,230.3l33.2,37.1,11.9-12.7-45-24.4h0Z"/>
      <path class="st99" d="M227.4,254.7l-11.9,12.7,27.7-4-15.8-8.7Z"/>
      <path class="st165" d="M93.8,257.3l-2.3,29.4,18.8-28.7-16.4-.7h0Z"/>
      <path class="st75" d="M206.3,210.5l12.6,16,2.8-18.7-15.5,2.6h0Z"/>
      <path class="st48" d="M184.7,202l-6.9,3.2-2.5,2.2,12.7-1.2-3.2-4.3h-.1Z"/>
      <path class="st18" d="M206.3,210.5l-18.3-4.3,6.6,9.6,11.8-5.4h-.1Z"/>
      <path class="st125" d="M188,206.3l-12.7,1.2,19.3,8.4-6.6-9.6h0Z"/>
      <path class="st139" d="M206.3,210.5l-11.8,5.4,24.4,10.6-12.6-16h0Z"/>
      <path class="st48" d="M175.3,207.5l7.1,22.8,12.2-14.4-19.3-8.4h0Z"/>
      <path class="st144" d="M194.5,215.9l-12.2,14.4,36.6-3.8-24.4-10.6h0Z"/>
      <path class="st85" d="M249.9,202.3l-14.4-5.1,9.4,9.1,5-3.9h0Z"/>
      <path class="st78" d="M219,226.5l25.9-20.3-23.1,1.6-2.8,18.7h0Z"/>
      <path class="st52" d="M235.5,197.1l-13.8,10.7,23.1-1.6-9.4-9.1h0Z"/>
      <path class="st0" d="M123.8,289.1c.2.1.5.1.8.2l-.8-.2Z"/>
      <path class="st0" d="M123.8,289.1c.2,0,.5.1.7.2-.5-.1-.7-.2-.7-.2Z"/>
      <path class="st2" d="M170.9,278.8l-8.6,3.4h-.6l-8.6-3.4s-22.1,11.3-28.5,10.5c3.6.8,18.1,3.6,28.2-1.5,6,.6,9.6,3.6,21.4,0,0,0,19.5,3.8,25.9,1.3-5,2.1-29.3-10.3-29.3-10.3h.1Z"/>
      <path class="st2" d="M185.6,291.9c-18.3-2.4-44.4,0-46.1.3-1.5.2-11.9-2.2-14.8-2.9-.3,0-.5,0-.7-.2,0,0,22.3,19.8,37.9,19.2h.6c15.6.5,37.9-19.2,37.9-19.2-7.1,3-14.6,2.8-14.6,2.8h-.2Z"/>
      <path class="st0" d="M170.9,278.8l-8.6,3.4h-.6l-8.6-3.4s-22.1,11.3-28.5,10.5c-.3,0-.5,0-.7-.2,0,0,22.3,19.8,37.9,19.2h.6c15.6.5,37.9-19.2,37.9-19.2-5,2.1-29.3-10.3-29.3-10.3h0Z"/>
      <path class="st135" d="M138.3,259.7l23.1,6.1-15-12.1-8.1,6ZM161.4,265.9l23.6-5.7-10.6-5.4-12.9,11.1h-.1Z"/>
      <path class="st0" d="M161.7,282.2l-8.6-3.4s-22.1,11.3-28.5,10.5c-.3,0-.5,0-.7-.2,0,0,22.3,19.8,37.9,19.2h.6c15.6.5,37.9-19.2,37.9-19.2-5,2.1-29.3-10.3-29.3-10.3l-8.6,3.4h-.7Z"/>
      <path class="st0" d="M124.7,289.3c-.3,0-.5,0-.7-.2,0,0,22.3,19.8,37.9,19.2h.6c15.6.5,37.9-19.2,37.9-19.2-5,2.1-29.3-10.3-29.3-10.3l-9.5-12.9-8.3,12.9s-22.1,11.3-28.5,10.5h0Z"/>
      <path class="st124" d="M162.3,282.2l8.6-3.4-9.5-12.9-8.3,12.9,8.6,3.4h.6,0Z"/>
      <path class="st79" d="M139.4,292.2c1.7-.2,27.8-2.7,46.2-.3,0,0,7.5.1,14.6-2.8-6.4,2.5-25.9-1.3-25.9-1.3-11.8,3.6-15.5.6-21.4,0-10.1,5.1-24.6,2.3-28.2,1.5,2.9.7,13.3,3.1,14.8,2.9h-.1Z"/>
      <path class="st32" d="M167.9,249.6l-6.5,16.3,12.9-11.1-6.5-5.2h.1Z"/>
      <path class="st41" d="M146.4,253.8l15,12.1-3.5-17.6-11.5,5.5h0Z"/>
      <path class="st124" d="M182.3,230.3l-6.4,7.1,12.9,12.2-6.5-19.3Z"/>
      <path class="st38" d="M174.3,254.7l10.6,5.4,3.9-10.6-14.5,5.2ZM138.3,259.7l8.1-6-9.3-7.3,1.1,13.3h0Z"/>
      <path class="st106" d="M138.3,259.7l-1.1-13.3-10.7,19.4,11.9-6.1h0Z"/>
      <path class="st156" d="M138.3,259.7l-11.9,6.1,26.7,12.9-14.8-19ZM170.9,278.8l26.3-6.7-12.2-12-14.1,18.6h0Z"/>
      <path class="st106" d="M185,260.1l12.2,12-8.3-22.6-3.9,10.6Z"/>
      <path class="st151" d="M182.3,230.3l6.5,19.3,8.3,22.6,18.4-4.7-33.2-37.1h0Z"/>
      <path class="st78" d="M138.3,339.6c5.6,2.8,14.2,3.1,22,2.8h.7l4-14.8-26.7,12.1h0Z"/>
      <path class="st115" d="M165,327.5l-4,14.8c6.7-.4,12.6-1.3,14.9-1.8.9-.2,1.7-.2,2.6-.4l-13.5-12.7h0Z"/>
      <path class="st151" d="M159.8,314l-21.5,25.6,26.7-12.1-5.1-13.5h0Z"/>
      <path class="st0" d="M123.8,289.1s.2.2.7.6l.2-.4c-.3,0-.5,0-.7-.2h-.2Z"/>
      <path class="st83" d="M113,316.6l11.5-26.9-33-2.9c2.5,7.8,11.8,19.4,21.5,29.8Z"/>
      <path class="st0" d="M124.5,289.6l-.2-.4c-.2,0-.3,0-.5-.1,0,0,.2.2.7.6h0Z"/>
      <path class="st151" d="M91.5,286.8l33,2.9c-.4-.4-.7-.6-.7-.6,0,0,.3,0,.5.1l-14-31.1-18.8,28.7Z"/>
      <path class="st23" d="M110.3,258.1l14,31.1h.3c6.4.8,28.5-10.5,28.5-10.5l-42.8-20.7h0Z"/>
      <path class="st78" d="M138.3,339.6l21.5-25.6-18,9.7-3.5,15.9Z"/>
      <path class="st139" d="M127.8,331.2c3.5,3.2,6.5,5.7,8.5,7.2.6.5,1.3.9,2,1.2l3.5-15.9-14,7.5h0Z"/>
      <path class="st78" d="M141.8,323.7l-28.8-7.1c5.1,5.5,10.4,10.6,14.8,14.6l14-7.5Z"/>
      <path class="st119" d="M113,316.6l28.8,7.1-5.7-14.4s-23.1,7.3-23.1,7.3Z"/>
      <path class="st151" d="M141.8,323.7l18-9.7-23.7-4.7,5.7,14.4h0Z"/>
      <path class="st131" d="M113,316.6l23.1-7.3-11.6-19.6s-11.5,26.9-11.5,26.9Z"/>
      <path class="st158" d="M136.1,309.3l23.7,4.7-15.3-10.7-8.4,5.9h0Z"/>
      <path class="st139" d="M162.3,308.3h-.6c-4.7.2-10-1.5-15.2-4-10.1-4.8-19.5-12.5-22-14.7l11.6,19.6,8.4-5.9,15.3,10.7,2.9-5.7h-.4Z"/>
      <path class="st36" d="M170.9,278.8s24.2,12.4,29.3,10.3l15.3-21.6-44.6,11.3h0Z"/>
      <path class="st106" d="M215.5,267.5l-15.3,21.6,28.8,3.1-13.5-24.7Z"/>
      <path class="st149" d="M200.2,289.1l12,23.9c7.1-7.8,12.5-14.6,16.8-20.8l-28.8-3.1Z"/>
      <path class="st131" d="M165,327.5l13.5,12.7,9.6-21.5-23,8.8h-.1Z"/>
      <path class="st76" d="M178.4,340.2c3.7-.5,8.6-1.9,21.2-14.1l-11.6-7.4-9.6,21.5h0Z"/>
      <path class="st135" d="M188,318.7l11.6,7.4c3.5-3.4,7.7-7.7,12.6-13.1l-24.2,5.7h0Z"/>
      <path class="st122" d="M200.2,289.1l-12.2,29.6,24.2-5.7-12-23.9Z"/>
      <path class="st135" d="M165,327.5l23-8.8-28.1-4.7,5.1,13.5Z"/>
      <path class="st48" d="M200.2,289.1s-21.9,19.4-37.4,19.2-2.9,5.7-2.9,5.7l23.9-5.7,16.5-19.2h0Z"/>
      <path class="st149" d="M159.8,314l28.1,4.7-4.3-10.4-23.9,5.7h0Z"/>
      <path class="st119" d="M183.7,308.3l4.3,10.4,12.2-29.6-16.5,19.2Z"/>
      <path class="st35" d="M250,202.3h0c0-.1-25.3-9.4-25.3-9.4l24.9,23.1.2-4.1.2-9.6h0Z"/>
    </g>
    <path class="st34" d="M249.9,184.7c-12.1-16.7-18.8-24.3-31.6-31.8-7.3-4.3-16.7-8.5-30.3-14.5l-10.2,13.7,6.9,13.1-1,12.4v.5c28.9,6.4,50.2,12.9,66.2,21v-14.4h0Z"/>
  </g>
  <g id="left-face">
    <g id="face-left">
      <path class="st48" d="M81,241.7c2.8,19.1,8.1,35.4,10.2,44,0,.4.2.7.3,1.1l2.3-29.5-12.8-15.7h0Z"/>
      <path class="st131" d="M81.4,197l14.1-4.9-7.4-17c-2.7,7-5.1,14.4-6.6,21.9h0Z"/>
      <path class="st20" d="M88.1,175.1l7.4,17,25.8-15.5-33.2-1.6h0Z"/>
      <path class="st84" d="M88.1,175.1c0-.2,0-.3.2-.5l-.8.5,32.3,1.5,23.6,1.1-22.2-1-33.2-1.6h0Z"/>
      <path class="st140" d="M121.2,176.6l22.2,1-25.4-11.1,3.3,10.1h0Z"/>
      <path class="st84" d="M121.2,176.6l-18.9-10.1-14.1,8c0,.2,0,.3-.2.5l33.2,1.6Z"/>
      <path class="st142" d="M118,166.6h-15.6l18.9,10.1-3.3-10.1Z"/>
      <path class="st14" d="M145.7,200.4l10.6,1.6,1.5-14.3-14.4-10.1-8.4,5.8,10.7,17h0Z"/>
      <path class="st10" d="M143.4,177.6l-22.2-1,13.8,6.8,8.4-5.8Z"/>
      <path class="st63" d="M140.5,205.2l11.5,2.2,4.3-5.4-10.6-1.6-5.2,4.8Z"/>
      <path class="st76" d="M135,183.4l-6.4,9.6c9.2,4.9,11.9,12.2,11.9,12.2l5.2-4.8-10.7-17Z"/>
      <path class="st42" d="M135,183.4l-13.8-6.8,7.4,16.4,6.4-9.6h0Z"/>
      <path class="st81" d="M88.2,174.6l14.1-8-8.5-4.6c-1.9,4-3.8,8.2-5.6,12.6Z"/>
      <path class="st44" d="M118,166.6l25.4,11.1,8.6-20.3-34.1,9.2h0Z"/>
      <path class="st125" d="M93.8,161.9l8.5,4.6h15.6l-1.5-16.2-22.6,11.6h0Z"/>
      <path class="st169" d="M93.8,161.9l22.6-11.6-2.7-21.2s-10.5,13.6-19.9,32.8Z"/>
      <path class="st69" d="M116.5,150.3l1.5,16.2,34-9.2s-35.6-7-35.5-7Z"/>
      <path class="st0" d="M81,241.7"/>
      <path class="st119" d="M169.2,189.3l.8-8.1-7.8-6.1-6.3,7.1,1.9,5.6,7.4,6.8,4-5.2h0Z"/>
      <path class="st109" d="M81.4,197c-3.1,15.1-2.4,30.6-.4,44.6s4.9-21.4,4.9-21.4l-4.5-23.3h0Z"/>
      <path class="st78" d="M103.6,225.9l-17.6-5.6-4.9,21.4,22.6-15.8h0Z"/>
      <path class="st75" d="M81.4,197l4.5,23.3,17.6,5.6-22.1-28.9Z"/>
      <path class="st9" d="M111.1,187.5c1.9,0,3.9-.1,5.8.1,1.1.1,2.2.4,3.2.6,1.2.3,2.4.5,3.5,1.1.7.4,1.4.9,2.1,1.4.9.7,1.9,1.4,2.8,2.2l-7.4-16.3-24.2,14.6c3.2-1,6.2-2.5,9.4-3.2,1.5-.3,3.1-.4,4.7-.5h.1Z"/>
      <path class="st85" d="M81.4,197l2.4,3.2,11.6-8.1-14.1,4.9h0Z"/>
      <path class="st3" d="M169.5,209.4"/>
      <path class="st118" d="M169.5,209.4c-1.5.4-3.3.8-5.5,1.1l-.9,30.3,4.9,8.7,8.1-12.2-6.5-28h-.1Z"/>
      <path class="st101" d="M158,209.4l-7.8,29.3,7.7,9.6,5.1-7.4.9-30.3c-2.4-.4-4.4-.8-6-1.1h.1Z"/>
      <path class="st32" d="M150.2,238.7l7.8-29.3c-4.3-1-5.9-1.9-5.9-1.9l-10,23.4,8.2,7.8h-.1ZM169.5,209.4l6.5,28,6.4-7.1-7.1-22.8s-1.4.8-5.8,1.9h0Z"/>
      <path class="st4" d="M171.8,203.5l-7.9,4-7.6-5.5-4.3,5.4s1.6.9,5.9,1.9c1.6.4,3.6.8,6,1.1,2.2-.4,4.1-.8,5.5-1.1,4.4-1.1,5.8-1.9,5.8-1.9l2.5-2.2-6-1.7h.1Z"/>
      <path class="st67" d="M165.2,194.5l-7.4-6.8-1.5,14.3,7.6,5.5,1.2-13h0Z"/>
      <path class="st91" d="M171.8,203.5l-2.6-14.2-4,5.2-1.2,13,7.9-4h0Z"/>
      <path class="st153" d="M164.9,146.7l-2.6,28.4,15.5-22.9-12.9-5.4h0Z"/>
      <path class="st115" d="M177.8,152.1l-15.5,22.9,21.4,2.6,1-12.4-6.9-13.1Z"/>
      <path class="st163" d="M162.3,175l7.8,6.1,13.6-3.5-21.4-2.6h0Z"/>
      <path class="st148" d="M183.7,177.6l-13.6,3.5-.8,8.1,14.5-11.7h0Z"/>
      <path class="st40" d="M152,157.3l10.2,17.7,2.6-28.4-12.9,10.6h0Z"/>
      <path class="st62" d="M143.4,177.6l18.9-2.6-10.2-17.7-8.6,20.3h0Z"/>
      <path class="st108" d="M164.4,130.7c-1.2-.3-2.5-.6-3.7-.8l-8.7,27.5,12.9-10.6-.6-16h.1Z"/>
      <path class="st51" d="M162.3,175l-18.9,2.6,12.5,4.5,6.3-7.1h0Z"/>
      <path class="st64" d="M143.4,177.6l14.4,10.1-1.9-5.6-12.5-4.5Z"/>
      <path class="st63" d="M171.8,203.5l6,1.7,6.9-3.2-6.3-4.2-6.6,5.7h0Z"/>
      <path class="st14" d="M183.7,177.6l-14.5,11.7,2.6,14.2,6.6-5.7,5.3-20.1h0Z"/>
      <path class="st18" d="M119.3,202.4l-10.3,6.1,14.2.9-.8-7.3-3,.3h0Z"/>
      <path class="st121" d="M137.6,204.4c-2.8-2.1-6.6-2.8-10.1-2.7-1.7,0-3.4.2-5.2.4l.8,7.3,15-3.6c.1-.1.1-.3.1-.5,0-.4-.4-.7-.7-.9h0Z"/>
      <path class="st8" d="M116.9,202.5c-4.2.1-8.5-.6-12.4-2.2-1-.4-1.9-.8-2.8-1.4-1-.7-1.9-1.7-2.7-2.7,0,0-.2-.1-.2-.2l10.3,12.4,10.3-6.1c-.8,0-1.6.1-2.4.1h-.1ZM119.3,202.4l-10.3,6.1,10.3-6.1Z"/>
      <path class="st52" d="M96.1,192.9c-.2-.3-.4-.5-.7-.8l-11.6,8.1,25.1,8.3-12.8-15.6Z"/>
      <path class="st139" d="M83.8,200.2l19.7,25.7,5.4-17.4-25.1-8.3Z"/>
      <path class="st105" d="M110.3,258.1l31.7-27.2-38.5-4.9,6.7,32.1h.1Z"/>
      <path class="st144" d="M103.6,225.9l38.5,4.9,10-23.4-48.4,18.5h-.1Z"/>
      <path class="st48" d="M140.5,205.2l-17.3,4.1,28.8-1.9-11.5-2.2h0Z"/>
      <path class="st143" d="M109,208.5l-5.4,17.4,19.6-16.5-14.2-.9Z"/>
      <path class="st158" d="M123.2,209.4l-19.6,16.5,48.4-18.5-28.8,1.9h0Z"/>
      <path class="st151" d="M103.6,225.9l-9.7,31.4,16.4.7s-6.7-32.1-6.7-32.1Z"/>
      <path class="st106" d="M81,241.7l12.8,15.7,9.7-31.4-22.6,15.8h0Z"/>
      <path class="st137" d="M182.3,136c-6.4-2.2-12.4-4-18-5.3l.6,16,23.1-8.2-5.6-2.5h-.1Z"/>
      <path class="st152" d="M164.9,146.7l12.9,5.4,10.2-13.7-23.1,8.2h0Z"/>
      <path class="st146" d="M130.7,141.6l12.8-14.5c-19.7-1.8-29.7,2-29.7,2l16.9,12.5Z"/>
      <path class="st167" d="M116.5,150.3l35.5,7-21.3-15.7-14.2,8.7Z"/>
      <path class="st125" d="M113.7,129.1l2.7,21.2,14.2-8.7s-16.9-12.5-16.9-12.5Z"/>
      <path class="st141" d="M130.7,141.6l21.3,15.7-8.6-30.2-12.8,14.5h.1Z"/>
      <path class="st43" d="M143.4,127.1l8.6,30.2,8.7-27.5c-6.4-1.4-12.1-2.2-17.2-2.7h-.1Z"/>
      <path class="st156" d="M163,240.8l-5.1,7.4,9.9,1.3-4.9-8.7h.1Z"/>
      <path class="st94" d="M176,237.4l-8.1,12.2,6.5,5.2,14.5-5.2-12.9-12.2Z"/>
      <path class="st124" d="M142,230.9l-4.9,15.6,13-7.8-8.2-7.8h0Z"/>
      <path class="st94" d="M150.2,238.7l-13,7.8,9.3,7.3,11.5-5.5-7.7-9.6h-.1Z"/>
      <path class="st151" d="M137.2,246.5l4.9-15.6-31.7,27.2,16.2,7.8,10.7-19.4h0Z"/>
      <path id="left_eye_shadow" class="st33" d="M100.8,189.8l-19.3,7.1-4.2,18.1,23.5-25.2h0Z"/>
    </g>
    <path class="st37" d="M184.7,165.2l-6.9-13.1,10.2-13.7-5.6-2.5c-6.4-2.2-12.4-4-18-5.3-1.2-.3-2.5-.6-3.7-.8-6.4-1.4-12.1-2.2-17.2-2.7-19.7-1.8-29.7,2-29.7,2,0,0-10.5,13.6-19.9,32.8-2,4-3.8,8.2-5.6,12.6l-.8.5h.6c-.4,1-.8,2-1.2,3.1,18.5-6.7,44.3-10.6,77.7-4,6.7,1.3,13,2.6,19,4v-.5c.1,0,1.1-12.4,1.1-12.4h0Z"/>
  </g>
</svg>