<?xml version="1.0" encoding="UTF-8"?>
<svg id="Layer_2" data-name="Layer 2" xmlns="http://www.w3.org/2000/svg" width="288.02" height="56.46" viewBox="0 0 288.02 56.46">
  <defs>
    <style>
      .cls-1 {
        fill: #1a201e;
      }
    </style>
  </defs>
  <g id="Layer_1-2" data-name="Layer 1">
    <g>
      <path class="cls-1" d="M0,49.87l3.53-7.92c4.39,3.53,11.37,6.04,18.11,6.04,8.55,0,12.15-3.06,12.15-7.14,0-11.84-32.62-4.08-32.62-24.47C1.18,7.53,8.23,0,23.29,0c6.59,0,13.49,1.73,18.27,4.86l-3.21,7.92c-4.94-2.9-10.35-4.31-15.13-4.31-8.47,0-11.92,3.29-11.92,7.45,0,11.68,32.54,4.08,32.54,24.23,0,8.78-7.14,16.31-22.19,16.31-8.55,0-17.09-2.67-21.64-6.59Z"/>
      <path class="cls-1" d="M53.48,31.76V.78h10.19v30.58c0,11.29,5.1,16.15,13.96,16.15s13.88-4.86,13.88-16.15V.78h10.04v30.97c0,16-9.02,24.7-23.99,24.7s-24.07-8.7-24.07-24.7Z"/>
      <path class="cls-1" d="M164.6.78v54.89h-8.39l-30.27-37.17v37.17h-10.12V.78h8.39l30.27,37.17V.78h10.12Z"/>
      <path class="cls-1" d="M228.11.78v54.89h-8.39l-30.27-37.17v37.17h-10.12V.78h8.39l30.27,37.17V.78h10.12Z"/>
      <path class="cls-1" d="M266.54,36.31v19.37h-10.19v-19.21L234.78.78h10.9l16.07,26.74L277.99.78h10.04l-21.49,35.52Z"/>
    </g>
  </g>
</svg>