<svg xmlns="http://www.w3.org/2000/svg" id="Layer_2" width="237.21" height="841.89" data-name="Layer 2" viewBox="0 0 237.21 841.89"><defs><style>.cls-1{fill:none;stroke:#231f20;stroke-miterlimit:10}</style></defs><g id="Layer_1-2" data-name="Layer 1"><path d="M10.5 0v173.32a13.6 13.6 0 0 1-2.98 8.5l-4.05 5.07a13.62 13.62 0 0 0-2.98 8.5v107.36c0 2.9.93 5.73 2.64 8.07l4.71 6.42c1.72 2.34 2.64 5.17 2.64 8.07v516.57M123.61 0v603.32a13.6 13.6 0 0 1-2.98 8.5l-4.05 5.07a13.62 13.62 0 0 0-2.98 8.5v107.36c0 2.9.93 5.73 2.64 8.07l4.71 6.42c1.72 2.34 2.64 5.17 2.64 8.07v86.57M236.71 0v353.32a13.6 13.6 0 0 1-2.98 8.5l-4.05 5.07a13.62 13.62 0 0 0-2.98 8.5v107.36c0 2.9.93 5.73 2.64 8.07l4.71 6.42c1.72 2.34 2.64 5.17 2.64 8.07v336.57" class="cls-1"/></g></svg>